<?xml version="1.0" standalone="no"?>
<!DOCTYPE svg PUBLIC "-//W3C//DTD SVG 1.1//EN" "http://www.w3.org/Graphics/SVG/1.1/DTD/svg11.dtd" >
<svg>
<metadata>
Created by FontForge 20090914 at Wed Apr  3 10:27:40 2013
 By www-data
Copyright 1997 Bigelow &#38; Holmes Inc. U.S. Pat. Des. 289,420. All rights reserved.
</metadata>
<defs>
<font id="LucidaGrande-Bold" horiz-adv-x="0" >
  <font-face 
    font-family="Lucida Grande"
    font-weight="700"
    font-stretch="normal"
    units-per-em="2048"
    panose-1="0 0 0 0 0 0 0 0 0 0"
    ascent="1638"
    descent="-410"
    x-height="1098"
    cap-height="1480"
    bbox="-1511 -790.004 3410 2048"
    underline-thickness="100"
    underline-position="-151"
    unicode-range="U+0020-U+FFF0"
  />
<missing-glyph horiz-adv-x="1024" 
d="M877 0h-730v1552h730v-1552zM727 1402h-430v-1252h430v1252z" />
    <glyph glyph-name="uniFB57" unicode="&#x67e;" horiz-adv-x="2495" arabic-form="final" 
d="M2014 765l258.998 0.00195312v-196c0 -112.667 13.667 -186.334 41 -221.001s85.333 -52 174 -52h32v-296h-85c-123.333 0 -224.333 37.833 -303 113.5s-118 172.5 -118 290.5v42c-163.333 -150.667 -349 -266.834 -557 -348.501s-423.333 -122.5 -646 -122.5
c-251.333 0 -441.666 44.667 -570.999 134c-102.667 70.667 -154 183.667 -154 339c0 68 6.66699 157.333 20 268h197l-1 -87c0 -106 18 -181.667 54 -227c70.667 -87.333 247.334 -131 530.001 -131c458.667 0 834.667 164.667 1128 494zM644.998 -344.998l148 148
l148 -148l-148 -148zM989.998 -344.998l148 148l148 -148l-148 -148zM817.998 -604.998l148 149l148 -149l-148 -148z" />
    <glyph glyph-name="uniFB58" unicode="&#x67e;" horiz-adv-x="747" arabic-form="initial" 
d="M-25 0l-0.000976562 296.001h76c118.667 0 231.334 26 338.001 78l2 48l2 78c0 151.333 -27.333 297.333 -82 438h311c26 -116 39 -222.667 39 -320c0 -202.667 -54.833 -356.334 -164.5 -461.001s-270.167 -157 -481.5 -157h-40zM27.999 -344.999l148 148l148 -148
l-148 -148zM373.999 -344.999l148 148l148 -148l-148 -148zM200.999 -604.999l148 149l148 -149l-148 -148z" />
    <glyph glyph-name="uniFB59" unicode="&#x67e;" horiz-adv-x="938" arabic-form="medial" 
d="M-25 0v296h49c88 0 189 22.333 303 67c8 70.667 12 137.667 12 201v201h259v-249c0 -96.667 17.833 -157.5 53.5 -182.5s122.5 -37.5 260.5 -37.5h50v-296h-52c-138 0 -235.333 13.167 -292 39.5s-114.667 84.5 -174 174.5c-104.667 -142.667 -237.667 -214 -399 -214
h-70zM148 -345l148 148l148 -148l-148 -148zM493 -345l148 148l148 -148l-148 -148zM321 -605l148 149l148 -149l-148 -148z" />
    <glyph glyph-name="uniFB67" unicode="&#x679;" horiz-adv-x="2495" arabic-form="final" 
d="M2014 765l258.998 0.00195312v-196c0 -112.667 13.667 -186.334 41 -221.001s85.333 -52 174 -52h32v-296h-85c-123.333 0 -224.333 37.833 -303 113.5s-118 172.5 -118 290.5v42c-163.333 -150.667 -349 -266.834 -557 -348.501s-423.333 -122.5 -646 -122.5
c-251.333 0 -441.666 44.667 -570.999 134c-102.667 70.667 -154 183.667 -154 339c0 68 6.66699 157.333 20 268h197l-1 -87c0 -106 18 -181.667 54 -227c70.667 -87.333 247.334 -131 530.001 -131c458.667 0 834.667 164.667 1128 494zM655.998 962.002v118h148v388h111
v-252c70.667 68 139.667 102 207 102c56 0 100.833 -17.833 134.5 -53.5s50.5 -83.5 50.5 -143.5c0 -106 -80.333 -159 -241 -159h-410zM911.998 1080h273.999l-1 19c-3.33301 70 -29.666 105 -78.999 105c-63.333 0 -128 -41.333 -194 -124z" />
    <glyph glyph-name="uniFB68" unicode="&#x679;" horiz-adv-x="747" arabic-form="initial" 
d="M-25 0l-0.000976562 296.001h76c118.667 0 231.334 26 338.001 78l2 48l2 78c0 151.333 -27.333 297.333 -82 438h311c26 -116 39 -222.667 39 -320c0 -202.667 -54.833 -356.334 -164.5 -461.001s-270.167 -157 -481.5 -157h-40zM63.999 1135v117h148v389h111v-253
c70.667 68.667 139.667 103 207 103c56 0 100.833 -17.833 134.5 -53.5s50.5 -83.5 50.5 -143.5c0 -106 -80.333 -159 -241 -159h-410zM319.999 1252h274l-1 20c-4 70 -30.333 105 -79 105c-63.333 0 -128 -41.667 -194 -125z" />
    <glyph glyph-name="uniFB69" unicode="&#x679;" horiz-adv-x="938" arabic-form="medial" 
d="M-25 0v296h49c88 0 189 22.333 303 67c8 70.667 12 137.667 12 201v201h259v-249c0 -96.667 17.833 -157.5 53.5 -182.5s122.5 -37.5 260.5 -37.5h50v-296h-52c-138 0 -235.333 13.167 -292 39.5s-114.667 84.5 -174 174.5c-104.667 -142.667 -237.667 -214 -399 -214
h-70zM153 962v118h148v388h111v-252c70.667 68 140 102 208 102c56 0 100.667 -17.833 134 -53.5s50 -83.5 50 -143.5c0 -106 -80.333 -159 -241 -159h-410zM410 1080h273l-1 19c-3.33301 70 -29.333 105 -78 105c-63.333 0 -128 -41.333 -194 -124z" />
    <glyph glyph-name="uniFB6B" unicode="&#x6a4;" horiz-adv-x="2743" arabic-form="final" 
d="M114 716l197 -0.000976562c-10.667 -75.333 -16 -134 -16 -176c0 -120 55.667 -204 167 -252s305.333 -72 582 -72c331.333 0 627.333 26.667 888 80c-72.667 78.667 -109 160 -109 244c0 108.667 54.5 210.334 163.5 305.001s226.167 142 351.5 142
c82 0 147.5 -24.5 196.5 -73.5s73.5 -114.833 73.5 -197.5c0 -142 -79.667 -282 -239 -420h398v-296h-102c-134.667 -0 -239.667 8.33301 -315 25s-144 47 -206 91c-338 -130.667 -725.667 -196 -1163 -196c-332 0 -564.167 38 -696.5 114s-198.5 209.333 -198.5 400
c0 86.667 9.33301 180.667 28 282zM2222 406.999c76 54.667 132 98.333 168 131c-11.333 134.667 -60 202 -146 202c-60 0 -123.333 -31.333 -190 -94c61.333 -107.333 117.333 -187 168 -239zM2004 1332l148 148l148 -148l-148 -148zM2349 1332l148 148l148 -148l-148 -148
zM2176 1592l148 148l148 -148l-148 -149z" />
    <glyph glyph-name="uniFB6C" unicode="&#x6a4;" horiz-adv-x="1035" arabic-form="initial" 
d="M-25 0v296h661c8 44 13.667 80.333 17 109c-42 -6.66699 -81.667 -10 -119 -10c-259.333 0 -389 84.667 -389 254c0 148 50 282.5 150 403.5s211 181.5 333 181.5c213.333 0 320 -184.333 320 -553c0 -264.667 -65.667 -441.667 -197 -531
c-147.333 -100 -358.333 -150 -633 -150h-143zM683 693l1 46c0 158 -37.667 237 -113 237c-86.667 0 -150 -83.667 -190 -251c52 -22.667 134 -34 246 -34zM326 1382l148 148l148 -148l-148 -148zM672 1382l148 148l148 -148l-148 -148zM499 1592l148 148l148 -148
l-148 -149z" />
    <glyph glyph-name="uniFB6D" unicode="&#x6a4;" horiz-adv-x="1117" arabic-form="medial" 
d="M1141 296l-0.000976562 -296.001h-103c-134.667 0 -239.667 8.33301 -315 25s-144 47 -206 91c-117.333 -77.333 -273.333 -116 -468 -116h-74v296h330c-72.667 78.667 -109 160 -109 244c0 108.667 54.5 210.334 163.5 305.001s226.167 142 351.5 142
c82.667 0 148.334 -24.5 197.001 -73.5s73 -115.167 73 -198.5c0 -141.333 -79.667 -281 -239 -419h399zM594.999 406.999c76.667 54.667 132.668 98.334 168.001 131.001c-10.667 134.667 -59.334 202 -146.001 202c-60 0 -123.333 -31.333 -190 -94
c60.667 -106.667 116.667 -186.334 168 -239.001zM377 1332l148 148l148 -148l-148 -148zM722 1332l148 148l148 -148l-148 -148zM550 1592l147 148l149 -148l-149 -149z" />
    <glyph glyph-name="uniFB7B" unicode="&#x686;" horiz-adv-x="1339" arabic-form="final" 
d="M1125 605l0.00292969 -158c0 -68.667 9.16699 -111 27.5 -127s66.166 -24 143.499 -24h67v-296h-131c-116.667 0 -200.667 30 -252 90s-77 157.667 -77 293v222c-160 -57.333 -271.333 -112 -334 -164c-147.333 -123.333 -221 -285.666 -221 -486.999
c0 -298.667 181.667 -448 545 -448c126.667 0 273 22.333 439 67v-223c-156.667 -93.333 -318.334 -140 -485.001 -140c-230.667 0 -414.834 63.833 -552.501 191.5s-206.5 298.5 -206.5 512.5c0 327.333 169.333 575.666 508 744.999l-50 3l-118 9
c-52.667 3.33301 -97.667 5 -135 5c-62.667 0 -134 -13.667 -214 -41v254c64.667 24 133.667 36 207 36c56 0 117.667 -2.33301 185 -7l193 -13c169.333 -11.333 356 -17 560 -17h83v-283h-182zM376.003 -25l148 148l148 -148l-148 -148zM722.003 -25l148 148l148 -148
l-148 -148zM549.003 -234l148 148l148 -148l-148 -148z" />
    <glyph glyph-name="uniFB7C" unicode="&#x686;" horiz-adv-x="1469" arabic-form="initial" 
d="M-25 0l0.000976562 296h349c89.333 0 159.5 6.5 210.5 19.5s141.167 47.5 270.5 103.5l66 28c-272 84.667 -479.333 127 -622 127c-44.667 0 -109.334 -5 -194.001 -15v266c56.667 9.33301 109 14 157 14c145.333 0 324.666 -32.667 537.999 -98l145 -45l71 -21l151 -45
c118 -33.333 226.667 -50 326 -50h20v-272h-80c-172 0 -308.333 -23.667 -409 -71l-105 -51l-91 -44l-92 -46c-131.333 -64 -287.666 -96 -468.999 -96h-242zM279.001 -345l148 148l148 -148l-148 -148zM624.001 -345l148 148l148 -148l-148 -148zM451.001 -605l148 149
l148 -149l-148 -148z" />
    <glyph glyph-name="uniFB7D" unicode="&#x686;" horiz-adv-x="1534" arabic-form="medial" 
d="M-25 0l0.000976562 295.999h514c168.667 0 297 13.667 385 41c-220.667 114.667 -380.167 188 -478.5 220s-213.833 48 -346.5 48v283c181.333 0 369.166 -40.667 563.499 -122s431.166 -218.666 710.499 -411.999l84 -58h151v-296h-45
c-70.667 0 -128.667 9.16699 -174 27.5s-106.666 56.833 -183.999 115.5l-58 44c-199.333 -124.667 -423.333 -187 -672 -187h-450zM282.001 -345.001l148 148l148 -148l-148 -148zM628.001 -345.001l148 148l148 -148l-148 -148zM455.001 -605.001l148 149l148 -149
l-148 -148z" />
    <glyph glyph-name="uniFB89" unicode="&#x688;" horiz-adv-x="1341" arabic-form="final" 
d="M816 314c4.66699 44 7 75.667 7 95c0 71.333 -6.66699 140 -20 206l-106 532h263l122 -631c16 -82.667 41.5 -140 76.5 -172s89.833 -48 164.5 -48h42v-296h-44c-89.333 0 -157.333 14 -204 42s-99 85.333 -157 172c-44 -93.333 -96.833 -156.5 -158.5 -189.5
s-158.167 -49.5 -289.5 -49.5c-158 0 -311 21.333 -459 64v305c142 -48.667 292.667 -73 452 -73c107.333 0 211 14.333 311 43zM491 1234v117h148v389h111v-253c71.333 68 140.333 102 207 102c56 0 100.833 -17.667 134.5 -53s50.5 -83 50.5 -143
c0 -106 -80.333 -159 -241 -159h-410zM747 1351h273.999l-1 20c-3.33301 70 -29.666 105 -78.999 105c-63.333 0 -128 -41.667 -194 -125z" />
    <glyph glyph-name="uniFB8B" unicode="&#x698;" horiz-adv-x="1174" arabic-form="final" 
d="M669 92c-59.333 162.667 -157.332 337.668 -293.999 525.001h359l35 -54l42 -66l34 -58l20 -30c48.667 -75.333 147 -113 295 -113h39v-296h-41c-96.667 0 -188 30.667 -274 92c-33.333 -164 -92.833 -308.333 -178.5 -433s-228.834 -274.334 -429.501 -449.001h-548
c310 228.667 523.333 397.667 640 507s217 234.333 301 375zM134.001 962.001l148 148l148 -148l-148 -148zM479.001 962.001l148 148l148 -148l-148 -148zM307.001 1221l147 148l149 -148l-149 -148z" />
    <glyph glyph-name="uniFB8D" unicode="&#x691;" horiz-adv-x="1174" arabic-form="final" 
d="M669 92c-59.333 162.667 -157.332 337.668 -293.999 525.001h359l35 -54l42 -66l34 -58l20 -30c48.667 -75.333 147 -113 295 -113h39v-296h-41c-96.667 0 -188 30.667 -274 92c-33.333 -164 -92.833 -308.333 -178.5 -433s-228.834 -274.334 -429.501 -449.001h-548
c310 228.667 523.333 397.667 640 507s217 234.333 301 375zM231.001 962.001v118h148v388h111v-252c70.667 68 139.667 102 207 102c56 0 100.833 -17.833 134.5 -53.5s50.5 -83.167 50.5 -142.5c0 -106.667 -80.333 -160 -241 -160h-410zM487.001 1080h274.001l-1 19
c-4 70 -30.333 105 -79 105c-62.667 0 -127.334 -41.333 -194.001 -124z" />
    <glyph glyph-name="uniFB93" unicode="&#x6af;" horiz-adv-x="2403" arabic-form="final" 
d="M1273 1371l1037 369v-158l-1037 -369v158zM105 716h197l-2 -87c0 -106 18.333 -181.667 55 -227c70 -87.333 272.667 -131 608 -131c240.667 0 469 25 685 75c-12.667 103.333 -30 177.5 -52 222.5s-71.667 109.167 -149 192.5l-174 185v177l1037 369v-212l-730 -259
l427 -459c97.333 -104 172.666 -174.333 226 -211c53.333 -36.667 107.666 -55 163 -55h32v-296h-57c-89.333 0 -168.833 20.167 -238.5 60.5s-141.5 107.833 -215.5 202.5l-54 68c-40 -98 -106.667 -170.333 -200 -217c-184 -92.667 -474.667 -139 -872 -139
c-244 0 -422.5 38.667 -535.5 116s-169.5 199.333 -169.5 366c0 60 6.33301 146.333 19 259z" />
    <glyph glyph-name="uniFB94" unicode="&#x6af;" horiz-adv-x="1148" arabic-form="initial" 
d="M135 1371l1037 369v-158l-1037 -369v158zM741 349c-123.333 302.667 -325.332 501.667 -605.999 597v177l1037 369v-212l-692 -246c138.667 -72.667 254.5 -168.667 347.5 -288s139.5 -231.333 139.5 -336c0 -113.333 -43.333 -208.333 -130 -285
c-58.667 -52 -125.667 -85.833 -201 -101.5s-208.333 -23.5 -399 -23.5h-262v296h333c183.333 0 327.666 17.667 432.999 53z" />
    <glyph glyph-name="uniFB95" unicode="&#x6af;" horiz-adv-x="1243" arabic-form="medial" 
d="M1268 296l0.00195312 -296h-57c-169.333 0 -321 87.667 -455 263l-67 88l1 -31c0 -76.667 -29.667 -144.334 -89 -203.001c-46 -46 -97.333 -76.833 -154 -92.5s-144.667 -23.5 -264 -23.5l-208 -1v296h113c130.667 0 260.667 10 390 30
c0 98.667 -11.333 173.834 -34 225.501s-75 121.5 -157 209.5l-174 185v177l1037 369v-212l-730 -259l427 -459c97.333 -104.667 172.666 -175.167 225.999 -211.5s107.666 -54.5 162.999 -54.5h32zM113.002 1371l1037 369v-158l-1037 -369v158z" />
    <glyph glyph-name="uniFB9F" unicode="&#x6ba;" horiz-adv-x="2055" arabic-form="final" 
d="M147 352l197.001 0.000976562c-20 -87.333 -30 -184.666 -30 -291.999c0 -286.667 171 -430 513 -430c230.667 0 444 54 640 162c12 97.333 18 186.333 18 267c0 177.333 -50 379.666 -150 606.999h326c42 -116 69 -217.333 81 -304c81.333 -44 177.333 -66 288 -66h50
v-296h-53c-112 0 -200.333 16.333 -265 49c-20.667 -229.333 -118.334 -406 -293.001 -530s-413 -186 -715 -186c-445.333 0 -668 204.333 -668 613c0 125.333 20.333 260.666 61 405.999z" />
    <glyph glyph-name="uniFBA4" unicode="&#x6c0;" horiz-adv-x="1111" arabic-form="isolated" 
d="M549 987c170 -94.667 291.668 -184.667 365.001 -270s110 -179.333 110 -282c0 -128.667 -51.5 -237.5 -154.5 -326.5s-229.167 -133.5 -378.5 -133.5c-126.667 0 -225.834 31.167 -297.501 93.5s-107.5 148.5 -107.5 258.5c0 231.333 154.333 451.333 463 660z
M500.001 685c-90.667 -102 -136 -199 -136 -291c0 -98 54.333 -147 163 -147c101.333 0 184.333 29 249 87c0 110 -92 227 -276 351zM796.001 1386l-0.00195312 -154l-518 -134v153l242 62c-100 49.333 -150 107 -150 173c0 74 40.333 134.833 121 182.5
s183.334 71.5 308.001 71.5v-146c-125.333 -8 -221.666 -42 -288.999 -102c80 -70.667 175.333 -106 286 -106z" />
    <glyph glyph-name="uniFBA5" unicode="&#x6c0;" horiz-adv-x="1163" arabic-form="final" 
d="M685 1110h258.999v-546l5 -93c3.33301 -67.333 18.333 -113.333 45 -138s75.334 -37 146.001 -37h48v-296h-109c-144 -0 -245.667 23.333 -305 70s-89 126.667 -89 240v90c-59.333 -135.333 -156 -203 -290 -203c-86 0 -161 25.5 -225 76.5s-96 111.167 -96 180.5
c0 88 55.167 183.5 165.5 286.5s258.833 197.5 445.5 283.5v86zM684.999 808c-130.667 -74.667 -243 -159.333 -337 -254c46.667 -56.667 96.667 -85 150 -85c48 0 107.333 25.667 178 77c2 18.667 3 31 3 37l3 46c2 34.667 3 52.667 3 54v125zM1005 1386v-154l-518 -134
v153l242 62c-99.333 49.333 -149 107 -149 173c0 74 40.167 134.833 120.5 182.5s182.833 71.5 307.5 71.5v-146c-125.333 -8 -221.333 -42 -288 -102c80 -70.667 175 -106 285 -106z" />
    <glyph glyph-name="uniFBA8" unicode="&#x6c1;" horiz-adv-x="747" arabic-form="initial" 
d="M-25 0l-0.000976562 296.001h76c118.667 0 231.334 26 338.001 78l2 48l2 78c0 151.333 -27.333 297.333 -82 438h311c26 -116 39 -222.667 39 -320c0 -202.667 -54.833 -356.334 -164.5 -461.001s-270.167 -157 -481.5 -157h-40zM330.999 -147.999
c-46 -118.667 -80.666 -218.999 -103.999 -300.999c42.667 -32.667 95 -57.334 157 -74.001v-267c-102.667 28.667 -184.834 67.5 -246.501 116.5s-92.5 99.833 -92.5 152.5c0 82 43.667 206.333 131 373h155z" />
    <glyph glyph-name="uniFBA9" unicode="&#x6c1;" horiz-adv-x="1496" arabic-form="medial" 
d="M1521 296l0.00195312 -296.002h-28c-76.667 0 -136.334 10 -179.001 30l-36 17l-44 20c-62.667 29.333 -109.667 44 -141 44c-55.333 0 -102.833 -36.667 -142.5 -110s-59.5 -161.666 -59.5 -264.999c0 -90 28 -166.333 84 -229v-297c-346.667 90 -520 375 -520 855
c0 42 3 84.667 9 128c-82.667 -86 -148 -139.667 -196 -161s-127.333 -32 -238 -32h-55v296h47c118.667 0 225.667 31.167 321 93.5s253 203.833 473 424.5c-87.333 -223.333 -131 -450 -131 -680c0 -93.333 18 -189.333 54 -288c-2 33.333 -3 59 -3 77
c0 132.667 34.167 246.5 102.5 341.5s150.5 142.5 246.5 142.5c53.333 0 113.333 -17.333 180 -52c25.333 -13.333 39 -20.333 41 -21l35 -14c17.333 -7.33301 33.666 -11.666 48.999 -12.999l54 -7c24 -2.66699 43.667 -4 59 -4h18z" />
    <glyph glyph-name="uniFBAF" unicode="&#x6d2;" horiz-adv-x="1717" arabic-form="final" 
d="M1742 296l0.000976562 -295.999h-303c-366 0 -620.167 -17.833 -762.5 -53.5s-263.5 -111.5 -363.5 -227.5c42.667 -38 97.667 -62.333 165 -73s196.333 -16 387 -16h593v-296h-799c-222.667 0 -373.834 20.167 -453.501 60.5s-119.5 117.166 -119.5 230.499
c0 209.333 116.667 379.333 350 510c111.333 62.667 233.5 105.167 366.5 127.5s328.5 33.5 586.5 33.5h353z" />
    <glyph glyph-name="uniFC08" unicode="&#xfc08;" horiz-adv-x="1208" arabic-form="isolated" 
d="M604 91c-103.333 -32.667 -154.999 -107.999 -154.999 -225.999c0 -25.333 1.66699 -56.333 5 -93c3.33301 -46 6.33301 -90.333 9 -133c3.33301 -68 5.66602 -107 6.99902 -117c3.33301 -45.333 5 -75 5 -89v-223h-260v225c0 41.333 -1.33301 81.666 -4 120.999l-12 162
l-8 114c-4 56 -6 101.667 -6 137c0 158 66.333 270.667 199 338c-49.333 62.667 -74 126 -74 190c0 136.667 61.5 252.5 184.5 347.5s273.5 142.5 451.5 142.5c81.333 0 160.666 -11.667 237.999 -35v-324c-88 42 -185.667 63 -293 63c-154 0 -279.333 -59.333 -376 -178
c32 -50 73.333 -95 124 -135c56.667 3.33301 96.334 5 119.001 5c84 0 156 -16 216 -48v-254c-72.667 -22.667 -135.667 -34 -189 -34c-54 0 -114.333 14.667 -181 44zM727.001 -344.999l148 148l148 -148l-148 -148z" />
    <glyph glyph-name="uniFC0B" unicode="&#xfc0b;" horiz-adv-x="1339" arabic-form="isolated" 
d="M1308 419h-95.9971c-250 0 -432 -23.667 -546 -71c-96.667 -40.667 -172.834 -100.167 -228.501 -178.5s-83.5 -165.5 -83.5 -261.5c0 -130 47 -229.333 141 -298s229.667 -103 407 -103c121.333 0 265 22 431 66v-223c-157.333 -93.333 -320 -140 -488 -140
c-216.667 0 -395.834 59.5 -537.501 178.5s-212.5 269.5 -212.5 451.5c0 244 122.333 437 367 579h-376v247c43.333 0 81.666 9.16699 114.999 27.5s90 60.833 170 127.5l77 63l65 53c130.667 105.333 236.667 172.833 318 202.5s200.333 44.5 357 44.5v-407h-223v106h-20
c-52 0 -110 -16.5 -174 -49.5s-145.333 -88.833 -244 -167.5h781v-247zM682.003 1530l148 148l148 -148l-148 -148zM1027 1530l148 148l148 -148l-148 -148zM765.003 0l148 148l148 -148l-148 -148z" />
    <glyph glyph-name="uniFC0C" unicode="&#xfc0c;" horiz-adv-x="1339" arabic-form="isolated" 
d="M1308 419h-95.9971c-250 0 -432 -23.667 -546 -71c-96.667 -40.667 -172.834 -100.167 -228.501 -178.5s-83.5 -165.5 -83.5 -261.5c0 -130 47 -229.333 141 -298s229.667 -103 407 -103c121.333 0 265 22 431 66v-223c-157.333 -93.333 -320 -140 -488 -140
c-216.667 0 -395.834 59.5 -537.501 178.5s-212.5 269.5 -212.5 451.5c0 244 122.333 437 367 579h-376v247c43.333 0 81.666 9.16699 114.999 27.5s90 60.833 170 127.5l77 63l65 53c130.667 105.333 236.667 172.833 318 202.5s200.333 44.5 357 44.5v-407h-223v106h-20
c-52 0 -110 -16.5 -174 -49.5s-145.333 -88.833 -244 -167.5h781v-247zM682.003 1530l148 148l148 -148l-148 -148zM1027 1530l148 148l148 -148l-148 -148z" />
    <glyph glyph-name="uniFC0E" unicode="&#xfc0e;" horiz-adv-x="1208" arabic-form="isolated" 
d="M604 91c-103.333 -32.667 -154.999 -107.999 -154.999 -225.999c0 -25.333 1.66699 -56.333 5 -93c3.33301 -46 6.33301 -90.333 9 -133c3.33301 -68 5.66602 -107 6.99902 -117c3.33301 -45.333 5 -75 5 -89v-223h-260v225c0 41.333 -1.33301 81.666 -4 120.999l-12 162
l-8 114c-4 56 -6 101.667 -6 137c0 158 66.333 270.667 199 338c-49.333 62.667 -74 126 -74 190c0 136.667 61.5 252.5 184.5 347.5s273.5 142.5 451.5 142.5c81.333 0 160.666 -11.667 237.999 -35v-324c-88 42 -185.667 63 -293 63c-154 0 -279.333 -59.333 -376 -178
c32 -50 73.333 -95 124 -135c56.667 3.33301 96.334 5 119.001 5c84 0 156 -16 216 -48v-254c-72.667 -22.667 -135.667 -34 -189 -34c-54 0 -114.333 14.667 -181 44zM567.001 1332l148 148l148 -148l-148 -148zM913.001 1332l147 148l149 -148l-149 -148z" />
    <glyph glyph-name="uniFC48" unicode="&#xfc48;" horiz-adv-x="1225" arabic-form="isolated" 
d="M666 376c50.667 4.66699 86.667 7.00195 108 7.00195c73.333 0 140 -16 200 -48v-254c-72.667 -22.667 -135.667 -34 -189 -34c-56 0 -115 15.667 -177 47c-106 -45.333 -159 -122 -159 -230c0 -24.667 1.66699 -55.334 5 -92.001
c3.33301 -45.333 6.33301 -89.666 9 -132.999c3.33301 -67.333 5.66602 -106.333 6.99902 -117c3.33301 -45.333 5 -75 5 -89v-223h-260v225c0 41.333 -1.33301 81.666 -4 120.999l-12 162l-8 114c-4 54.667 -6 99.667 -6 135c0 149.333 71 266.666 213 351.999
c-59.333 83.333 -89 160 -89 230c0 198 124.333 344 373 438v296l57 -40c179.333 -125.333 333 -202.333 461 -231v-210h-67c-160 0 -287.167 -17.333 -381.5 -52s-175.5 -94 -243.5 -178c46.667 -82 99.334 -147.333 158.001 -196z" />
    <glyph glyph-name="uniFC4B" unicode="&#xfc4b;" horiz-adv-x="1339" arabic-form="isolated" 
d="M1308 419h-95.9961c-250 0 -432 -23.667 -546 -71c-96.667 -40.667 -172.834 -100.167 -228.501 -178.5s-83.5 -165.5 -83.5 -261.5c0 -130 47 -229.333 141 -298s229.667 -103 407 -103c121.333 0 264.666 22 429.999 66v-223c-156 -93.333 -318.333 -140 -487 -140
c-216.667 0 -395.834 59.5 -537.501 178.5s-212.5 269.5 -212.5 451.5c0 244 122.333 437 367 579h-376v247c43.333 0 81.666 9.16699 114.999 27.5s90.333 60.833 171 127.5l76 63l65 53c131.333 105.333 237.5 172.833 318.5 202.5s199.833 44.5 356.5 44.5v-407h-223v106
h-20c-52 0 -110 -16.5 -174 -49.5s-145.333 -88.833 -244 -167.5h781v-247zM765.004 0l148 148l148 -148l-148 -148zM855.004 1530l147 148l149 -148l-149 -148z" />
    <glyph glyph-name="uniFC4E" unicode="&#xfc4e;" horiz-adv-x="1208" arabic-form="isolated" 
d="M604 91c-103.333 -32.667 -154.999 -107.999 -154.999 -225.999c0 -25.333 1.66699 -56.333 5 -93c3.33301 -46 6.33301 -90.333 9 -133c3.33301 -68 5.66602 -107 6.99902 -117c3.33301 -45.333 5 -75 5 -89v-223h-260v225c0 41.333 -1.33301 81.666 -4 120.999l-12 162
l-8 114c-4 56 -6 101.667 -6 137c0 158 66.333 270.667 199 338c-49.333 62.667 -74 126 -74 190c0 136.667 61.5 252.5 184.5 347.5s273.5 142.5 451.5 142.5c81.333 0 160.666 -11.667 237.999 -35v-324c-88 42 -185.667 63 -293 63c-154 0 -279.333 -59.333 -376 -178
c32 -50 73.333 -95 124 -135c56.667 3.33301 96.334 5 119.001 5c84 0 156 -16 216 -48v-254c-72.667 -22.667 -135.667 -34 -189 -34c-54 0 -114.333 14.667 -181 44zM786.001 1332l148 148l148 -148l-148 -148z" />
    <glyph glyph-name="uniFC58" unicode="&#xfc58;" horiz-adv-x="1208" arabic-form="isolated" 
d="M604 91c-103.333 -32.667 -154.999 -107.999 -154.999 -225.999c0 -25.333 1.66699 -56.333 5 -93c3.33301 -46 6.33301 -90.333 9 -133c3.33301 -68 5.66602 -107 6.99902 -117c3.33301 -45.333 5 -75 5 -89v-223h-260v225c0 41.333 -1.33301 81.666 -4 120.999l-12 162
l-8 114c-4 56 -6 101.667 -6 137c0 158 66.333 270.667 199 338c-49.333 62.667 -74 126 -74 190c0 136.667 61.5 252.5 184.5 347.5s273.5 142.5 451.5 142.5c81.333 0 160.666 -11.667 237.999 -35v-324c-88 42 -185.667 63 -293 63c-154 0 -279.333 -59.333 -376 -178
c32 -50 73.333 -95 124 -135c56.667 3.33301 96.334 5 119.001 5c84 0 156 -16 216 -48v-254c-72.667 -22.667 -135.667 -34 -189 -34c-54 0 -114.333 14.667 -181 44zM567.001 -344.999l148 148l148 -148l-148 -148zM913.001 -344.999l147 148l149 -148l-149 -148z" />
    <glyph glyph-name="uniFC5E" unicode="&#xfc5e;" arabic-form="isolated" 
d="M684 1184l142 -0.000976562v-156c0 -229.333 -80 -344 -240 -344c-60 0 -109 20.333 -147 61c-46 -102 -113 -153 -201 -153c-55.333 0 -94.5 19.333 -117.5 58s-34.5 104.334 -34.5 197.001v239h142v-206v-48c0 -57.333 20.667 -86 62 -86c63.333 0 95 48.667 95 146
v243h142v-123l2 -66c0 -76.667 25.333 -115 76 -115c52 0 78 40.667 78 122l1 63v168zM555 1343c-116 39.333 -174.002 92.333 -174.002 159c0 61.333 28.833 116.333 86.5 165s123.167 73 196.5 73c113.333 0 170 -60.333 170 -181c0 -46.667 -14 -93 -42 -139
c42.667 -6 83 -9 121 -9v-146h-32c-61.333 0 -122.666 8.66699 -183.999 26c-112.667 -79.333 -245.667 -119 -399 -119h-231v123c82.667 59.333 124 114 124 164c0 45.333 -32.333 68 -97 68c-23.333 0 -54.666 -5 -93.999 -15v118c48 10 87 15 117 15
c143.333 0 215 -57.333 215 -172c0 -54.667 -29 -114 -87 -178h56c87.333 0 172 16 254 48zM659.998 1444c22.667 40.667 33.999 77 33.999 109c0 46.667 -21.333 70 -64 70c-45.333 0 -90 -31.333 -134 -94c44.667 -42 99.334 -70.333 164.001 -85z" />
    <glyph glyph-name="uniFC5F" unicode="&#xfc5f;" arabic-form="isolated" 
d="M599 1740h141v-157c0 -229.333 -80 -344 -240 -344c-60 0 -109 20.333 -147 61c-46 -102 -112.667 -153 -200 -153c-56 0 -95.5 19.167 -118.5 57.5s-34.5 104.5 -34.5 198.5v238h142v-206l1 -48c0 -57.333 20.333 -86 61 -86c63.333 0 95 48.667 95 146v243h142v-123
l2 -66c0 -76.667 25.333 -115 76 -115c52 0 78 40.667 78 122l2 63v169zM740 1085l-740 -197v124l740 196v-123zM740 875l-740 -196v123l740 196v-123z" />
    <glyph glyph-name="uniFC60" unicode="&#xfc60;" arabic-form="isolated" 
d="M599 1480h141v-156c0 -229.333 -79.667 -344 -239 -344c-60.667 0 -110 20.333 -148 61c-45.333 -102 -112 -153 -200 -153c-56 0 -95.5 19.167 -118.5 57.5s-34.5 104.5 -34.5 198.5v238h142v-206l1 -48c0 -57.333 20.333 -86 61 -86c63.333 0 95 48.667 95 146v243h142
v-123l2 -66c0 -76.667 25.333 -115 76 -115c52 0 78 40.667 78 122l2 63v168zM740 1616l-740 -196v123l740 197v-124z" />
    <glyph glyph-name="uniFC61" unicode="&#xfc61;" arabic-form="isolated" 
d="M599 1184l141 0.000976562v-156c0 -229.333 -80 -344 -240 -344c-60 0 -109 20.333 -147 61c-45.333 -102 -112 -153 -200 -153c-56 0 -95.5 19.167 -118.5 57.5s-34.5 104.166 -34.5 197.499v239h142v-206l1 -48c0 -57.333 20.333 -86 61 -86c63.333 0 95 48.667 95 146
v243h142v-123l2 -66c0 -76.667 25.333 -115 76 -115c52 0 78 40.667 78 122l2 63v168zM740 1411l-0.000976562 -146c-83.333 0 -156 10.667 -218 32c-122 -83.333 -270.667 -125 -446 -125h-76v136h75c134 0 229.667 14.667 287 44c-110.667 31.333 -166 82 -166 152
c0 60.667 29 115.167 87 163.5s123.333 72.5 196 72.5c113.333 0 170 -56.333 170 -169c0 -54 -16 -105.333 -48 -154c40.667 -3.33301 73.334 -5 98.001 -5zM474.999 1448c23.333 40.667 35 77 35 109c0 46.667 -21.333 70 -64 70c-46 0 -91 -31.333 -135 -94
c45.333 -42 100 -70.333 164 -85z" />
    <glyph glyph-name="uniFC62" unicode="&#xfc62;" arabic-form="isolated" 
d="M599 1740h141v-157c0 -229.333 -80 -344 -240 -344c-60 0 -109 20.333 -147 61c-46 -102 -112.667 -153 -200 -153c-56 0 -95.5 19.167 -118.5 57.5s-34.5 104.5 -34.5 198.5v238h142v-206l1 -48c0 -57.333 20.333 -86 61 -86c63.333 0 95 48.667 95 146v243h142v-123
l2 -66c0 -76.667 25.333 -115 76 -115c52 0 78 40.667 78 122l2 63v169zM740 1085l-740 -197v124l740 196v-123z" />
    <glyph glyph-name="uniFC6D" unicode="&#xfc6d;" horiz-adv-x="2652" arabic-form="final" 
d="M147 352l197.001 -0.000976562c-20 -87.333 -30 -184.666 -30 -291.999c0 -286.667 170.667 -430 512 -430c231.333 0 445 54 641 162c10.667 59.333 16 113 16 161c0 220.667 -36.333 417.334 -109 590.001h326c36 -17.333 70 -26 102 -26c72.667 0 131.167 22 175.5 66
s69.5 104.667 75.5 182h260v-249c0 -96.667 17.667 -157.5 53 -182.5s122.333 -37.5 261 -37.5h50v-296h-155c-135.333 0 -227.5 5 -276.5 15s-89.5 32 -121.5 66c-47.333 50 -71 137 -71 261v17c-60.667 -90 -158.334 -135 -293.001 -135c2.66699 -50 4 -91.667 4 -125
c0 -235.333 -90.667 -421.833 -272 -559.5s-427.333 -206.5 -738 -206.5c-445.333 0 -668 204.333 -668 613c0 125.333 20.333 260.666 61 405.999zM2035 -345.001l148 148l148 -148l-148 -148zM852.001 863.999l148 148l148 -148l-148 -148z" />
    <glyph glyph-name="uniFC73" unicode="&#xfc73;" horiz-adv-x="2652" arabic-form="final" 
d="M147 352l197.001 -0.000976562c-20 -87.333 -30 -184.666 -30 -291.999c0 -286.667 170.667 -430 512 -430c231.333 0 445 54 641 162c10.667 59.333 16 113 16 161c0 220.667 -36.333 417.334 -109 590.001h326c36 -17.333 70 -26 102 -26c72.667 0 131.167 22 175.5 66
s69.5 104.667 75.5 182h260v-249c0 -96.667 17.667 -157.5 53 -182.5s122.333 -37.5 261 -37.5h50v-296h-155c-135.333 0 -227.5 5 -276.5 15s-89.5 32 -121.5 66c-47.333 50 -71 137 -71 261v17c-60.667 -90 -158.334 -135 -293.001 -135c2.66699 -50 4 -91.667 4 -125
c0 -235.333 -90.667 -421.833 -272 -559.5s-427.333 -206.5 -738 -206.5c-445.333 0 -668 204.333 -668 613c0 125.333 20.333 260.666 61 405.999zM1862 1110l148 148l148 -148l-148 -148zM2208 1110l148 148l148 -148l-148 -148zM852.001 863.999l148 148l148 -148
l-148 -148z" />
    <glyph glyph-name="uniFC8D" unicode="&#xfc8d;" horiz-adv-x="2652" arabic-form="final" 
d="M147 352h198c-20 -94.667 -30 -188.334 -30 -281.001c0 -294 170.333 -441 511 -441c230.667 0 444.334 54 641.001 162c10.667 59.333 16 113 16 161c0 220.667 -36.333 417.334 -109 590.001h326c36 -17.333 70 -26 102 -26c72.667 0 131.167 22 175.5 66
s69.5 104.667 75.5 182h260v-249c0 -96.667 17.667 -157.5 53 -182.5s122.333 -37.5 261 -37.5h50v-296h-155c-135.333 0 -227.5 5 -276.5 15s-89.5 32 -121.5 66c-47.333 50 -71 137 -71 261v17c-60.667 -90 -158.334 -135 -293.001 -135c2.66699 -50 4 -91.667 4 -125
c0 -234 -90 -420 -270 -558s-422.333 -207 -727 -207c-454 0 -681 200.667 -681 602c0 140 20.333 278.667 61 416zM852 864l148 148l148 -148l-148 -148zM2060 1110l148 148l148 -148l-148 -148z" />
    <glyph glyph-name="uniFC94" unicode="&#xfc94;" horiz-adv-x="2652" arabic-form="final" 
d="M147 352l197.001 -0.000976562c-20 -87.333 -30 -184.666 -30 -291.999c0 -286.667 170.667 -430 512 -430c231.333 0 445 54 641 162c10.667 59.333 16 113 16 161c0 220.667 -36.333 417.334 -109 590.001h326c36 -17.333 70 -26 102 -26c72.667 0 131.167 22 175.5 66
s69.5 104.667 75.5 182h260v-249c0 -96.667 17.667 -157.5 53 -182.5s122.333 -37.5 261 -37.5h50v-296h-155c-135.333 0 -227.5 5 -276.5 15s-89.5 32 -121.5 66c-47.333 50 -71 137 -71 261v17c-60.667 -90 -158.334 -135 -293.001 -135c2.66699 -50 4 -91.667 4 -125
c0 -235.333 -90.667 -421.833 -272 -559.5s-427.333 -206.5 -738 -206.5c-445.333 0 -668 204.333 -668 613c0 125.333 20.333 260.666 61 405.999zM1862 -345.001l148 148l148 -148l-148 -148zM2208 -345.001l148 148l148 -148l-148 -148zM852.001 862.999l148 148
l148 -148l-148 -148z" />
    <glyph glyph-name="uniFC9F" unicode="&#xfc9f;" horiz-adv-x="1110" arabic-form="initial" 
d="M-25 0l0.00292969 296h46c50.667 0 129 16 235 48c-46 76 -69 149.667 -69 221c0 140 61.167 257.667 183.5 353s273.166 143 452.499 143c81.333 0 160.666 -11.667 237.999 -35v-324c-88 42 -182.333 63 -283 63c-90 0 -163 -14.833 -219 -44.5
s-111.667 -82.5 -167 -158.5c35.333 -64 81 -124.333 137 -181c129.333 -11.333 234.666 -57.333 315.999 -138v-243c-98 0 -175.5 8.16699 -232.5 24.5s-121.5 48.5 -193.5 96.5c-158 -80.667 -282.667 -121 -374 -121h-70zM715.003 -345l148 148l148 -148l-148 -148z" />
    <glyph glyph-name="uniFCA1" unicode="&#xfca1;" horiz-adv-x="1388" arabic-form="initial" 
d="M1381 666l-0.00195312 -247h-30c-82 0 -151.667 -10.667 -209 -32s-140.666 -68 -249.999 -140l-62 -41l-112 -75c-134.667 -87.333 -315.667 -131 -543 -131h-200v296h280c121.333 0 210.333 5.83301 267 17.5s140 41.167 250 88.5l39 17h-750v247
c42.667 0 81 9.16699 115 27.5s90.667 60.833 170 127.5l77 63l65 53c131.333 105.333 237.5 172.833 318.5 202.5s199.5 44.5 355.5 44.5v-407h-222v106h-21c-52 0 -109.667 -16.5 -173 -49.5s-144.666 -88.833 -243.999 -167.5h879zM738.998 -197l148 148l148 -148
l-148 -148zM523.998 1530l148 148l148 -148l-148 -148zM868.998 1530l148 148l148 -148l-148 -148z" />
    <glyph glyph-name="uniFCA2" unicode="&#xfca2;" horiz-adv-x="1388" arabic-form="initial" 
d="M1381 666l-0.00195312 -247h-30c-82 0 -151.667 -10.667 -209 -32s-140.666 -68 -249.999 -140l-62 -41l-112 -75c-134.667 -87.333 -315.667 -131 -543 -131h-200v296h280c121.333 0 210.333 5.83301 267 17.5s140 41.167 250 88.5l39 17h-750v247
c42.667 0 81 9.16699 115 27.5s90.667 60.833 170 127.5l77 63l65 53c131.333 105.333 237.5 172.833 318.5 202.5s199.5 44.5 355.5 44.5v-407h-222v106h-21c-52 0 -109.667 -16.5 -173 -49.5s-144.666 -88.833 -243.999 -167.5h879zM523.998 1530l148 148l148 -148
l-148 -148zM868.998 1530l148 148l148 -148l-148 -148z" />
    <glyph glyph-name="uniFCA4" unicode="&#xfca4;" horiz-adv-x="1110" arabic-form="initial" 
d="M-25 0l0.00292969 296h46c50.667 0 129 16 235 48c-46 76 -69 149.667 -69 221c0 140 61.167 257.667 183.5 353s273.166 143 452.499 143c81.333 0 160.666 -11.667 237.999 -35v-324c-88 42 -182.333 63 -283 63c-90 0 -163 -14.833 -219 -44.5
s-111.667 -82.5 -167 -158.5c35.333 -64 81 -124.333 137 -181c129.333 -11.333 234.666 -57.333 315.999 -138v-243c-98 0 -175.5 8.16699 -232.5 24.5s-121.5 48.5 -193.5 96.5c-158 -80.667 -282.667 -121 -374 -121h-70zM321.003 1406l148 149l148 -149l-148 -148z
M666.003 1406l148 149l148 -149l-148 -148z" />
    <glyph glyph-name="uniFCC9" unicode="&#xfcc9;" horiz-adv-x="1388" arabic-form="initial" 
d="M505 1740h258.997v-560c0 -139.333 -10.833 -246.666 -32.5 -321.999s-60.5 -139.333 -116.5 -192h766v-247h-29c-82.667 0 -152.667 -10.667 -210 -32s-140.666 -68 -249.999 -140l-62 -41c-77.333 -51.333 -156.666 -96.333 -237.999 -135
c-64.667 -31.333 -125.167 -51 -181.5 -59s-158.833 -12 -307.5 -12h-128v296h269c132 0 224.333 5.33301 277 16s136.334 40.667 251.001 90l40 17h-751v247h31c100.667 0 176.167 8.33301 226.5 25s92.5 47 126.5 91c40 53.333 60 185.666 60 396.999v561zM622.997 -197
l148 148l148 -148l-148 -148z" />
    <glyph glyph-name="uniFCCA" unicode="&#xfcca;" horiz-adv-x="1388" arabic-form="initial" 
d="M505 1740h258.997v-560c0 -139.333 -10.833 -246.666 -32.5 -321.999s-60.5 -139.333 -116.5 -192h766v-247h-29c-82.667 0 -152.667 -10.667 -210 -32s-140.666 -68 -249.999 -140l-62 -41c-77.333 -51.333 -156.666 -96.333 -237.999 -135
c-64.667 -31.333 -125.167 -51 -181.5 -59s-158.833 -12 -307.5 -12h-128v296h269c132 0 224.333 5.33301 277 16s136.334 40.667 251.001 90l40 17h-751v247h31c100.667 0 176.167 8.33301 226.5 25s92.5 47 126.5 91c40 53.333 60 185.666 60 396.999v561z" />
    <glyph glyph-name="uniFCCB" unicode="&#xfccb;" horiz-adv-x="1388" arabic-form="initial" 
d="M505 1740h258.997v-560c0 -139.333 -10.833 -246.666 -32.5 -321.999s-60.5 -139.333 -116.5 -192h766v-247h-29c-82.667 0 -152.667 -10.667 -210 -32s-140.666 -68 -249.999 -140l-62 -41c-77.333 -51.333 -156.666 -96.333 -237.999 -135
c-64.667 -31.333 -125.167 -51 -181.5 -59s-158.833 -12 -307.5 -12h-128v296h269c132 0 224.333 5.33301 277 16s136.334 40.667 251.001 90l40 17h-751v247h31c100.667 0 176.167 8.33301 226.5 25s92.5 47 126.5 91c40 53.333 60 185.666 60 396.999v561zM11.9971 1012
l148 148l148 -148l-148 -148z" />
    <glyph glyph-name="uniFCCC" unicode="&#xfccc;" horiz-adv-x="907" arabic-form="initial" 
d="M-25 0v296.001h77c108 0 223.333 23.333 346 70c-39.333 108 -59 259.333 -59 454v858h259v-865c0 -200.667 19.667 -344.667 59 -432c100.667 -20.667 183.667 -67.334 249 -140.001v-241c-138.667 0 -255 41.667 -349 125l-18 -9l-36 -19l-38 -21l-29 -14
c-86 -41.333 -190.333 -62 -313 -62h-148z" />
    <glyph glyph-name="uniFCD1" unicode="&#xfcd1;" horiz-adv-x="1086" arabic-form="initial" 
d="M381 572c26.667 -54 75.002 -117.001 145.002 -189.001c145.333 -13.333 249.666 -58.666 312.999 -135.999v-247c-109.333 6 -191.833 17.167 -247.5 33.5s-113.834 46.5 -174.501 90.5l-39 -22c-120.667 -68 -226 -102 -316 -102h-87v296h66
c47.333 0 117 15.333 209 46c-45.333 68 -68 139.667 -68 215c0 192.667 124.333 336 373 430v296l56 -40c180 -125.333 334 -202.333 462 -231v-210h-67c-160 0 -287.167 -17.333 -381.5 -52s-175.5 -94 -243.5 -178z" />
    <glyph glyph-name="uniFCD2" unicode="&#xfcd2;" horiz-adv-x="1388" arabic-form="initial" 
d="M1382 666l0.000976562 -247h-30c-82.667 0 -152.5 -10.667 -209.5 -32s-140.167 -68 -249.5 -140l-62 -41l-113 -75c-134 -87.333 -315 -131 -543 -131h-200v296h280c121.333 0 210.333 5.83301 267 17.5s140 41.167 250 88.5l40 17h-751v247
c43.333 0 81.666 9.16699 114.999 27.5s90.333 60.833 171 127.5l76 63l65 53c131.333 105.333 237.5 172.833 318.5 202.5s199.833 44.5 356.5 44.5v-407h-223v106h-20c-52 0 -110 -16.5 -174 -49.5s-145.333 -88.833 -244 -167.5h880zM829.001 1530l148 148l148 -148
l-148 -148zM739.001 -197l149 148l147 -148l-147 -148z" />
    <glyph glyph-name="uniFCD5" unicode="&#xfcd5;" horiz-adv-x="1110" arabic-form="initial" 
d="M-25 0l0.00292969 296h46c50.667 0 129 16 235 48c-46 76 -69 149.667 -69 221c0 140 61.167 257.667 183.5 353s273.166 143 452.499 143c81.333 0 160.666 -11.667 237.999 -35v-324c-88 42 -182.333 63 -283 63c-90 0 -163 -14.833 -219 -44.5
s-111.667 -82.5 -167 -158.5c35.333 -64 81 -124.333 137 -181c129.333 -11.333 234.666 -57.333 315.999 -138v-243c-98 0 -175.5 8.16699 -232.5 24.5s-121.5 48.5 -193.5 96.5c-158 -80.667 -282.667 -121 -374 -121h-70zM675.003 1406l148 149l148 -149l-148 -148z" />
    <glyph glyph-name="uniFCDD" unicode="&#xfcdd;" horiz-adv-x="1110" arabic-form="initial" 
d="M-25 0l0.00292969 296h46c50.667 0 129 16 235 48c-46 76 -69 149.667 -69 221c0 140 61.167 257.667 183.5 353s273.166 143 452.499 143c81.333 0 160.666 -11.667 237.999 -35v-324c-88 42 -182.333 63 -283 63c-90 0 -163 -14.833 -219 -44.5
s-111.667 -82.5 -167 -158.5c35.333 -64 81 -124.333 137 -181c129.333 -11.333 234.666 -57.333 315.999 -138v-243c-98 0 -175.5 8.16699 -232.5 24.5s-121.5 48.5 -193.5 96.5c-158 -80.667 -282.667 -121 -374 -121h-70zM321.003 -345l148 148l148 -148l-148 -148z
M666.003 -345l148 148l148 -148l-148 -148z" />
    <glyph glyph-name="uniFD88" unicode="&#xfd88;" horiz-adv-x="1511" arabic-form="initial" 
d="M-25 0v296.001h370l231 2c118.667 0 216.667 8.33301 294 25l-809 90v240c206.667 153.333 456 243.333 748 270c-34 96 -51 211.667 -51 347v470h260v-512c0 -135.333 14 -236 42 -302c86.667 -21.333 152.667 -52.333 198 -93v-260c-134.667 0 -261 63 -379 189
c-215.333 -20.667 -395.333 -71 -540 -151l1123 -130v-247c-30 3.33301 -56.333 5 -79 5c-118.667 0 -229.667 -21.333 -333 -64l-72 -31l-86 -36c-106 -44.667 -200 -73.834 -282 -87.501s-204.333 -20.5 -367 -20.5h-268z" />
    <glyph glyph-name="uniFE82" unicode="&#x622;" horiz-adv-x="808" arabic-form="final" 
d="M209 1382l260 -0.000976562v-609l5 -180c0 -115.333 19.5 -193.666 58.5 -234.999s112.5 -62 220.5 -62h80v-296h-102c-229.333 -0 -378 59.333 -446 178c-50.667 88 -76 273 -76 555v649zM0 1468l0.000976562 138.001c73.333 89.333 136 134 188 134
c25.333 0 76 -13 152 -39l42 -15c52.667 -18 92.667 -27 120 -27c41.333 0 93.333 22 156 66l20 15v-139c-74 -88.667 -136.667 -133 -188 -133c-25.333 0 -76 13 -152 39l-42 14c-52.667 18.667 -92.667 28 -120 28c-42 0 -94 -22.333 -156 -67
c-4.66699 -2.66699 -11.334 -7.33398 -20.001 -14.001z" />
    <glyph glyph-name="uniFE84" unicode="&#x623;" horiz-adv-x="808" arabic-form="final" 
d="M209 1308l259 0.000976562v-535l6 -180c0 -114.667 19.5 -192.834 58.5 -234.501s112.5 -62.5 220.5 -62.5h80v-296h-102c-229.333 -0 -378 59.333 -446 178c-50.667 88 -76 273 -76 555v575zM586 1723v-133.001c-78.667 20 -167.667 34 -267 42
c28.667 -55.333 68 -101.666 118 -138.999h168v-124h-531v124h171c-50 54 -75 100.667 -75 140c0 71.333 76.333 107 229 107c64 0 126.333 -5.66699 187 -17z" />
    <glyph glyph-name="uniFE86" unicode="&#x624;" horiz-adv-x="1051" arabic-form="final" 
d="M687 0l-93.999 1c-283.333 0 -425 84.333 -425 253c0 148.667 50 283.5 150 404.5s211.333 181.5 334 181.5c215.333 0 323 -176.667 323 -530v-14h99v-296h-142c-62.667 -240.667 -258.334 -504 -587.001 -790h-548l151 112c212 156.667 361 274.5 447 353.5
s183.333 187.167 292 324.5zM718.001 298l0.999023 45c0 158.667 -40 238 -120 238c-90 0 -155 -83.667 -195 -251c52.667 -22.667 136.334 -34 251.001 -34zM840 1324v-154l-518 -134v153l242 62c-99.333 49.333 -149 107 -149 173c0 74 40.167 134.833 120.5 182.5
s182.833 71.5 307.5 71.5v-146c-125.333 -8 -221.333 -42 -288 -102c80 -70.667 175 -106 285 -106z" />
    <glyph glyph-name="uniFE88" unicode="&#x625;" horiz-adv-x="809" arabic-form="final" 
d="M210 1678l259.001 -0.000976562v-905l6 -180c0 -115.333 19.5 -193.666 58.5 -234.999s112.5 -62 220.5 -62h79v-296h-102c-228.667 -0 -377.334 59.333 -446.001 178c-50 87.333 -75 272.333 -75 555v945zM593.001 -502.001v-154l-518 -134v153l242 62
c-99.333 49.333 -149 107 -149 173c0 74 40.167 134.833 120.5 182.5s182.833 71.5 307.5 71.5v-146c-125.333 -8 -221.333 -42 -288 -102c80 -70.667 175 -106 285 -106z" />
    <glyph glyph-name="uniFE8A" unicode="&#x626;" horiz-adv-x="2025" arabic-form="final" 
d="M2049 296l0.000976562 -296.001h-23c-46 0 -90 5 -132 15l-48 12l-36 7c-70.667 14.667 -137 22 -199 22c-108 0 -178.333 -41.667 -211 -125l243 -35l132 -22c128 -20.667 192 -71.667 192 -153c0 -102 -56.333 -195.333 -169 -280
c-206.667 -154 -526.334 -231 -959.001 -231c-502 0 -753 149 -753 447c0 96.667 24.667 211 74 343h198c-26 -88.667 -39 -161 -39 -217c0 -184.667 192.333 -277 577 -277c354.667 0 628.667 44 822 132l-274 40c-128.667 18 -216.167 42.833 -262.5 74.5
s-69.5 81.834 -69.5 150.501c0 121.333 54 226.5 162 315.5s235.333 133.5 382 133.5c62.667 0 129.667 -8 201 -24l43 -9l49 -10c38.667 -8.66699 65 -13 79 -13h21zM572.001 484.999v-154l-518 -134v153l242 62c-99.333 49.333 -149 107 -149 173
c0 74 40.167 134.833 120.5 182.5s182.833 71.5 307.5 71.5v-146c-125.333 -8 -221.333 -42 -288 -102c80 -70.667 175 -106 285 -106z" />
    <glyph glyph-name="uniFE8B" unicode="&#x626;" horiz-adv-x="747" arabic-form="initial" 
d="M-25 0l-0.000976562 296.001h76c118.667 0 231.334 26 338.001 78l2 48l2 78c0 151.333 -27.333 297.333 -82 438h311c26 -116 39 -222.667 39 -320c0 -202.667 -54.833 -356.334 -164.5 -461.001s-270.167 -157 -481.5 -157h-40zM671.999 1405v-154l-518 -133v153
l242 62c-99.333 49.333 -149 107 -149 173c0 74 40 134.667 120 182s182.667 71 308 71v-145c-124.667 -8 -220.667 -42.333 -288 -103c79.333 -70.667 174.333 -106 285 -106z" />
    <glyph glyph-name="uniFE8C" unicode="&#x626;" horiz-adv-x="938" arabic-form="medial" 
d="M-25 0v296h49c88 0 188.667 22.333 302 67c8.66699 68.667 13 135.667 13 201v201h259v-249c0 -96.667 17.833 -157.5 53.5 -182.5s122.5 -37.5 260.5 -37.5h50v-296h-52c-138 0 -235.5 13.167 -292.5 39.5s-114.833 84.5 -173.5 174.5
c-104.667 -142.667 -237.667 -214 -399 -214h-70zM718 1250v-154l-519 -134v154l243 61c-100 49.333 -150 107 -150 173c0 74 40.167 134.833 120.5 182.5s183.166 71.5 308.499 71.5v-145c-125.333 -8.66699 -221.666 -43 -288.999 -103c80 -70.667 175.333 -106 286 -106z
" />
    <glyph glyph-name="uniFE8E" unicode="&#x627;" horiz-adv-x="808" arabic-form="final" 
d="M210 1678l259.001 -0.000976562v-905l6 -180c0 -115.333 19.5 -193.666 58.5 -234.999s112.5 -62 220.5 -62h79v-296h-102c-228.667 -0 -377.334 59.333 -446.001 178c-50 87.333 -75 272.333 -75 555v945z" />
    <glyph glyph-name="uniFE90" unicode="&#x628;" horiz-adv-x="2495" arabic-form="final" 
d="M2014 765l258.998 0.00195312v-196c0 -112.667 13.667 -186.334 41 -221.001s85.333 -52 174 -52h32v-296h-85c-123.333 0 -224.333 37.833 -303 113.5s-118 172.5 -118 290.5v42c-163.333 -150.667 -349 -266.834 -557 -348.501s-423.333 -122.5 -646 -122.5
c-251.333 0 -441.666 44.667 -570.999 134c-102.667 70.667 -154 183.667 -154 339c0 68 6.66699 157.333 20 268h197l-1 -87c0 -106 18 -181.667 54 -227c70.667 -87.333 247.334 -131 530.001 -131c458.667 0 834.667 164.667 1128 494zM678.998 -344.998l148 148
l148 -148l-148 -148z" />
    <glyph glyph-name="uniFE91" unicode="&#x628;" horiz-adv-x="747" arabic-form="initial" 
d="M-25 0l-0.000976562 296.001h76c118.667 0 231.334 26 338.001 78l2 48l2 78c0 151.333 -27.333 297.333 -82 438h311c26 -116 39 -222.667 39 -320c0 -202.667 -54.833 -356.334 -164.5 -461.001s-270.167 -157 -481.5 -157h-40zM73.999 -344.999l148 148l148 -148
l-148 -148z" />
    <glyph glyph-name="uniFE92" unicode="&#x628;" horiz-adv-x="938" arabic-form="medial" 
d="M-25 0v296h49c88 0 189 22.333 303 67c8 70.667 12 137.667 12 201v201h259v-249c0 -96.667 17.833 -157.5 53.5 -182.5s122.5 -37.5 260.5 -37.5h50v-296h-52c-138 0 -235.333 13.167 -292 39.5s-114.667 84.5 -174 174.5c-104.667 -142.667 -237.667 -214 -399 -214
h-70zM321 -345l148 148l148 -148l-148 -148z" />
    <glyph glyph-name="uniFE94" unicode="&#x629;" horiz-adv-x="1163" arabic-form="final" 
d="M685 1184h258.999v-620l5 -93c3.33301 -67.333 18.333 -113.333 45 -138s75.334 -37 146.001 -37h48v-296h-109c-144 -0 -245.667 23.333 -305 70s-89 126.667 -89 240v90c-59.333 -135.333 -156 -203 -290 -203c-86 0 -161 25.5 -225 76.5s-96 111.167 -96 180.5
c0 88 55.167 183.5 165.5 286.5s258.833 197.5 445.5 283.5v160zM684.999 808c-130.667 -74.667 -243 -159.333 -337 -254c46.667 -56.667 96.667 -85 150 -85c48 0 107.333 25.667 178 77c2 18.667 3 31 3 37l3 46c2 34.667 3 52.667 3 54v125zM493.999 1517l148 149
l148 -149l-148 -148zM838.999 1517l148 149l148 -149l-148 -148z" />
    <glyph glyph-name="uniFE96" unicode="&#x62a;" horiz-adv-x="2495" arabic-form="final" 
d="M2014 765l258.998 0.00195312v-196c0 -112.667 13.667 -186.334 41 -221.001s85.333 -52 174 -52h32v-296h-85c-123.333 0 -224.333 37.833 -303 113.5s-118 172.5 -118 290.5v42c-163.333 -150.667 -349 -266.834 -557 -348.501s-423.333 -122.5 -646 -122.5
c-251.333 0 -441.666 44.667 -570.999 134c-102.667 70.667 -154 183.667 -154 339c0 68 6.66699 157.333 20 268h197l-1 -87c0 -106 18 -181.667 54 -227c70.667 -87.333 247.334 -131 530.001 -131c458.667 0 834.667 164.667 1128 494zM681.998 1024l148 148l148 -148
l-148 -148zM1027 1024l148 148l148 -148l-148 -148z" />
    <glyph glyph-name="uniFE97" unicode="&#x62a;" horiz-adv-x="747" arabic-form="initial" 
d="M-25 0l-0.000976562 296.001h76c118.667 0 231.334 26 338.001 78l2 48l2 78c0 151.333 -27.333 297.333 -82 438h311c26 -116 39 -222.667 39 -320c0 -202.667 -54.833 -356.334 -164.5 -461.001s-270.167 -157 -481.5 -157h-40zM27.999 1283l148 148l148 -148
l-148 -148zM373.999 1283l148 148l148 -148l-148 -148z" />
    <glyph glyph-name="uniFE98" unicode="&#x62a;" horiz-adv-x="938" arabic-form="medial" 
d="M-25 0v296h49c88 0 189 22.333 303 67c8 70.667 12 137.667 12 201v201h259v-249c0 -96.667 17.833 -157.5 53.5 -182.5s122.5 -37.5 260.5 -37.5h50v-296h-52c-138 0 -235.333 13.167 -292 39.5s-114.667 84.5 -174 174.5c-104.667 -142.667 -237.667 -214 -399 -214
h-70zM148 1110l148 148l148 -148l-148 -148zM493 1110l148 148l148 -148l-148 -148z" />
    <glyph glyph-name="uniFE9A" unicode="&#x62b;" horiz-adv-x="2495" arabic-form="final" 
d="M2014 765l258.998 0.00195312v-196c0 -112.667 13.667 -186.334 41 -221.001s85.333 -52 174 -52h32v-296h-85c-123.333 0 -224.333 37.833 -303 113.5s-118 172.5 -118 290.5v42c-163.333 -150.667 -349 -266.834 -557 -348.501s-423.333 -122.5 -646 -122.5
c-251.333 0 -441.666 44.667 -570.999 134c-102.667 70.667 -154 183.667 -154 339c0 68 6.66699 157.333 20 268h197l-1 -87c0 -106 18 -181.667 54 -227c70.667 -87.333 247.334 -131 530.001 -131c458.667 0 834.667 164.667 1128 494zM681.998 1024l148 148l148 -148
l-148 -148zM1027 1024l148 148l148 -148l-148 -148zM854.998 1283l147 148l149 -148l-149 -148z" />
    <glyph glyph-name="uniFE9B" unicode="&#x62b;" horiz-adv-x="747" arabic-form="initial" 
d="M-25 0l-0.000976562 296.001h76c118.667 0 231.334 26 338.001 78l2 48l2 78c0 151.333 -27.333 297.333 -82 438h311c26 -116 39 -222.667 39 -320c0 -202.667 -54.833 -356.334 -164.5 -461.001s-270.167 -157 -481.5 -157h-40zM27.999 1283l148 148l148 -148
l-148 -148zM372.999 1283l148 148l148 -148l-148 -148zM200.999 1542l148 148l148 -148l-148 -148z" />
    <glyph glyph-name="uniFE9C" unicode="&#x62b;" horiz-adv-x="938" arabic-form="medial" 
d="M-25 0v296h49c88 0 189 22.333 303 67c8 70.667 12 137.667 12 201v201h259v-249c0 -96.667 17.833 -157.5 53.5 -182.5s122.5 -37.5 260.5 -37.5h50v-296h-52c-138 0 -235.333 13.167 -292 39.5s-114.667 84.5 -174 174.5c-104.667 -142.667 -237.667 -214 -399 -214
h-70zM148 1110l148 148l148 -148l-148 -148zM493 1110l148 148l148 -148l-148 -148zM321 1369l148 148l148 -148l-148 -148z" />
    <glyph glyph-name="uniFE9E" unicode="&#x62c;" horiz-adv-x="1339" arabic-form="final" 
d="M1125 605l0.00292969 -158c0 -68.667 9.16699 -111 27.5 -127s66.166 -24 143.499 -24h67v-296h-131c-116.667 0 -200.667 30 -252 90s-77 157.667 -77 293v222c-160 -57.333 -271.333 -112 -334 -164c-147.333 -123.333 -221 -285.666 -221 -486.999
c0 -298.667 181.667 -448 545 -448c126.667 0 273 22.333 439 67v-223c-156.667 -93.333 -318.334 -140 -485.001 -140c-230.667 0 -414.834 63.833 -552.501 191.5s-206.5 298.5 -206.5 512.5c0 327.333 169.333 575.666 508 744.999l-50 3l-118 9
c-52.667 3.33301 -97.667 5 -135 5c-62.667 0 -134 -13.667 -214 -41v254c64.667 24 133.667 36 207 36c56 0 117.667 -2.33301 185 -7l193 -13c169.333 -11.333 356 -17 560 -17h83v-283h-182zM581.003 0l148 148l148 -148l-148 -148z" />
    <glyph glyph-name="uniFE9F" unicode="&#x62c;" horiz-adv-x="1469" arabic-form="initial" 
d="M-25 0l0.000976562 296h349c89.333 0 159.5 6.5 210.5 19.5s141.167 47.5 270.5 103.5l66 28c-272 84.667 -479.333 127 -622 127c-44.667 0 -109.334 -5 -194.001 -15v266c56.667 9.33301 109 14 157 14c145.333 0 324.666 -32.667 537.999 -98l145 -45l71 -21l151 -45
c118 -33.333 226.667 -50 326 -50h20v-272h-80c-172 0 -308.333 -23.667 -409 -71l-105 -51l-91 -44l-92 -46c-131.333 -64 -287.666 -96 -468.999 -96h-242zM451.001 -345l148 148l148 -148l-148 -148z" />
    <glyph glyph-name="uniFEA0" unicode="&#x62c;" horiz-adv-x="1534" arabic-form="medial" 
d="M-25 0l0.000976562 295.999h514c168.667 0 297 13.667 385 41c-220.667 114.667 -380.167 188 -478.5 220s-213.833 48 -346.5 48v283c181.333 0 369.166 -40.667 563.499 -122s431.166 -218.666 710.499 -411.999l84 -58h151v-296h-45
c-70.667 0 -128.667 9.16699 -174 27.5s-106.666 56.833 -183.999 115.5l-58 44c-199.333 -124.667 -423.333 -187 -672 -187h-450zM455.001 -222.001l148 148l148 -148l-148 -148z" />
    <glyph glyph-name="uniFEA2" unicode="&#x62d;" horiz-adv-x="1339" arabic-form="final" 
d="M1125 605l0.00292969 -158c0 -68.667 9.16699 -111 27.5 -127s66.166 -24 143.499 -24h67v-296h-131c-116.667 0 -200.667 30 -252 90s-77 157.667 -77 293v222c-160 -57.333 -271.333 -112 -334 -164c-147.333 -123.333 -221 -285.666 -221 -486.999
c0 -298.667 181.667 -448 545 -448c126.667 0 273 22.333 439 67v-223c-156.667 -93.333 -318.334 -140 -485.001 -140c-230.667 0 -414.834 63.833 -552.501 191.5s-206.5 298.5 -206.5 512.5c0 327.333 169.333 575.666 508 744.999l-50 3l-118 9
c-52.667 3.33301 -97.667 5 -135 5c-62.667 0 -134 -13.667 -214 -41v254c64.667 24 133.667 36 207 36c56 0 117.667 -2.33301 185 -7l193 -13c169.333 -11.333 356 -17 560 -17h83v-283h-182z" />
    <glyph glyph-name="uniFEA3" unicode="&#x62d;" horiz-adv-x="1469" arabic-form="initial" 
d="M-25 0l0.000976562 296h349c89.333 0 159.5 6.5 210.5 19.5s141.167 47.5 270.5 103.5l66 28c-272 84.667 -479.333 127 -622 127c-44.667 0 -109.334 -5 -194.001 -15v266c56.667 9.33301 109 14 157 14c145.333 0 324.666 -32.667 537.999 -98l145 -45l71 -21l151 -45
c118 -33.333 226.667 -50 326 -50h20v-272h-80c-172 0 -308.333 -23.667 -409 -71l-105 -51l-91 -44l-92 -46c-131.333 -64 -287.666 -96 -468.999 -96h-242z" />
    <glyph glyph-name="uniFEA4" unicode="&#x62d;" horiz-adv-x="1534" arabic-form="medial" 
d="M-25 0l0.000976562 295.999h514c168.667 0 297 13.667 385 41c-220.667 114.667 -380.167 188 -478.5 220s-213.833 48 -346.5 48v283c181.333 0 369.166 -40.667 563.499 -122s431.166 -218.666 710.499 -411.999l84 -58h151v-296h-45
c-70.667 0 -128.667 9.16699 -174 27.5s-106.666 56.833 -183.999 115.5l-58 44c-199.333 -124.667 -423.333 -187 -672 -187h-450z" />
    <glyph glyph-name="uniFEA6" unicode="&#x62e;" horiz-adv-x="1339" arabic-form="final" 
d="M1125 605l0.00292969 -158c0 -68.667 9.16699 -111 27.5 -127s66.166 -24 143.499 -24h67v-296h-131c-116.667 0 -200.667 30 -252 90s-77 157.667 -77 293v222c-160 -57.333 -271.333 -112 -334 -164c-147.333 -123.333 -221 -285.666 -221 -486.999
c0 -298.667 181.667 -448 545 -448c126.667 0 273 22.333 439 67v-223c-156.667 -93.333 -318.334 -140 -485.001 -140c-230.667 0 -414.834 63.833 -552.501 191.5s-206.5 298.5 -206.5 512.5c0 327.333 169.333 575.666 508 744.999l-50 3l-118 9
c-52.667 3.33301 -97.667 5 -135 5c-62.667 0 -134 -13.667 -214 -41v254c64.667 24 133.667 36 207 36c56 0 117.667 -2.33301 185 -7l193 -13c169.333 -11.333 356 -17 560 -17h83v-283h-182zM657.003 1234l148 148l148 -148l-148 -148z" />
    <glyph glyph-name="uniFEA7" unicode="&#x62e;" horiz-adv-x="1469" arabic-form="initial" 
d="M-25 0l0.000976562 296h349c89.333 0 159.5 6.5 210.5 19.5s141.167 47.5 270.5 103.5l66 28c-272 84.667 -479.333 127 -622 127c-44.667 0 -109.334 -5 -194.001 -15v266c56.667 9.33301 109 14 157 14c145.333 0 324.666 -32.667 537.999 -98l145 -45l71 -21l151 -45
c118 -33.333 226.667 -50 326 -50h20v-272h-80c-172 0 -308.333 -23.667 -409 -71l-105 -51l-91 -44l-92 -46c-131.333 -64 -287.666 -96 -468.999 -96h-242zM538.001 1185l148 147l148 -147l-148 -149z" />
    <glyph glyph-name="uniFEA8" unicode="&#x62e;" horiz-adv-x="1534" arabic-form="medial" 
d="M-25 0l0.000976562 295.999h514c168.667 0 297 13.667 385 41c-220.667 114.667 -380.167 188 -478.5 220s-213.833 48 -346.5 48v283c181.333 0 369.166 -40.667 563.499 -122s431.166 -218.666 710.499 -411.999l84 -58h151v-296h-45
c-70.667 0 -128.667 9.16699 -174 27.5s-106.666 56.833 -183.999 115.5l-58 44c-199.333 -124.667 -423.333 -187 -672 -187h-450zM531.001 1234l148 148l148 -148l-148 -148z" />
    <glyph glyph-name="uniFEAA" unicode="&#x62f;" horiz-adv-x="1341" arabic-form="final" 
d="M816 314c4.66699 44 7 75.667 7 95c0 71.333 -6.66699 140 -20 206l-106 532h263l122 -631c16 -82.667 41.5 -140 76.5 -172s89.833 -48 164.5 -48h42v-296h-44c-89.333 0 -157.333 14 -204 42s-99 85.333 -157 172c-44 -93.333 -96.833 -156.5 -158.5 -189.5
s-158.167 -49.5 -289.5 -49.5c-158 0 -311 21.333 -459 64v305c142 -48.667 292.667 -73 452 -73c107.333 0 211 14.333 311 43z" />
    <glyph glyph-name="uniFEAC" unicode="&#x630;" horiz-adv-x="1341" arabic-form="final" 
d="M816 314c4.66699 44 7 75.667 7 95c0 71.333 -6.66699 140 -20 206l-106 532h263l122 -631c16 -82.667 41.5 -140 76.5 -172s89.833 -48 164.5 -48h42v-296h-44c-89.333 0 -157.333 14 -204 42s-99 85.333 -157 172c-44 -93.333 -96.833 -156.5 -158.5 -189.5
s-158.167 -49.5 -289.5 -49.5c-158 0 -311 21.333 -459 64v305c142 -48.667 292.667 -73 452 -73c107.333 0 211 14.333 311 43zM566 1517l148 149l148 -149l-148 -148z" />
    <glyph glyph-name="uniFEAE" unicode="&#x631;" horiz-adv-x="1175" arabic-form="final" 
d="M670 92c-59.333 162.667 -157.332 337.668 -293.999 525.001h359l35 -54l42 -66l34 -58l20 -30c48.667 -75.333 147 -113 295 -113h39v-296h-41c-96.667 0 -188 30.667 -274 92c-33.333 -164 -92.833 -308.333 -178.5 -433s-228.834 -274.334 -429.501 -449.001h-548
c310 228.667 523.333 397.667 640 507s217 234.333 301 375z" />
    <glyph glyph-name="uniFEB0" unicode="&#x632;" horiz-adv-x="1175" arabic-form="final" 
d="M670 92c-59.333 162.667 -157.332 337.668 -293.999 525.001h359l35 -54l42 -66l34 -58l20 -30c48.667 -75.333 147 -113 295 -113h39v-296h-41c-96.667 0 -188 30.667 -274 92c-33.333 -164 -92.833 -308.333 -178.5 -433s-228.834 -274.334 -429.501 -449.001h-548
c310 228.667 523.333 397.667 640 507s217 234.333 301 375zM308.001 962.001l147 148l149 -148l-149 -148z" />
    <glyph glyph-name="uniFEB2" unicode="&#x633;" horiz-adv-x="3352" arabic-form="final" 
d="M1762 25c-34 -226.667 -136.332 -398.664 -306.999 -515.997s-404.334 -176 -701.001 -176c-445.333 0 -668 204.333 -668 613c0 125.333 20.333 260.666 61 405.999h197c-20 -87.333 -30 -184.666 -30 -291.999c0 -286.667 170.667 -430 512 -430
c231.333 0 445 54 641 162c12 97.333 18 185.666 18 264.999c0 188 -48.333 391 -145 609h326c44 -128 71.333 -248.333 82 -361c56 -22.667 103 -34 141 -34c66.667 0 133.667 32.667 201 98c2.66699 29.333 4 45.666 4 48.999l3 64l3 77v206h259v-255
c0 -88 12.333 -149.833 37 -185.5s67 -53.5 127 -53.5c67.333 0 141 32.667 221 98c2.66699 29.333 4 45.666 4 48.999l3 64l3 77v329h259v-376c0 -96.667 17.667 -157.5 53 -182.5s122.333 -37.5 261 -37.5h50v-296h-52c-138 0 -235.5 13.167 -292.5 39.5
s-114.833 84.833 -173.5 175.5c-64.667 -79.333 -123.834 -134.333 -177.5 -165c-53.667 -30.667 -118.834 -46 -195.5 -46c-76 -0 -135.167 15.833 -177.5 47.5s-76.833 86.167 -103.5 163.5c-114 -140.667 -219.667 -211 -317 -211c-43.333 -0 -85.333 8.33301 -126 25z
" />
    <glyph glyph-name="uniFEB3" unicode="&#x633;" horiz-adv-x="2011" arabic-form="initial" 
d="M1098 214c-112.667 -142.667 -233.333 -214 -362 -214c-145.333 -0 -242.666 71.333 -291.999 214c-104.667 -142.667 -237.667 -214 -399 -214h-70v296h49c88 0 189 22.333 303 67c8 70.667 12 137.667 12 201v201h259v-249c0 -163.333 55 -245 165 -245
c63.333 0 136.666 33.667 219.999 101c2.66699 29.333 4 46 4 50l3 64l3 77v202h259v-251c0 -162 56 -243 168 -243c90 0 167.667 34.333 233 103l2 48l2 81c0 182 -27.333 343.333 -82 484h311c26 -116 39 -236.667 39 -362c0 -184.667 -50.333 -335 -151 -451
s-231 -174 -391 -174c-141.333 -0 -236.333 71.333 -285 214z" />
    <glyph glyph-name="uniFEB4" unicode="&#x633;" horiz-adv-x="2246" arabic-form="medial" 
d="M444 214c-105.333 -142.667 -238.667 -214 -400 -214h-69v296h49c87.333 0 188 22.333 302 67c8 70.667 12 137.667 12 201v201h259v-249c0 -163.333 55.333 -245 166 -245c62.667 0 136 33.667 220 101c2.66699 29.333 4 46 4 50l3 64l2 77v202h259v-251
c0 -162 55 -243 165 -243c63.333 0 137 33.667 221 101c2.66699 29.333 4 46 4 50l2 64l3 77v325h259v-372c0 -96.667 17.833 -157.5 53.5 -182.5s122.5 -37.5 260.5 -37.5h50v-296h-52c-138 0 -235.5 13.167 -292.5 39.5s-114.5 84.5 -172.5 174.5
c-113.333 -142.667 -234.333 -214 -363 -214c-146 -0 -243 71.333 -291 214c-113.333 -142.667 -234.333 -214 -363 -214c-145.333 -0 -242.333 71.333 -291 214z" />
    <glyph glyph-name="uniFEB6" unicode="&#x634;" horiz-adv-x="3352" arabic-form="final" 
d="M1762 25c-34 -226.667 -136.332 -398.664 -306.999 -515.997s-404.334 -176 -701.001 -176c-445.333 0 -668 204.333 -668 613c0 125.333 20.333 260.666 61 405.999h197c-20 -87.333 -30 -184.666 -30 -291.999c0 -286.667 170.667 -430 512 -430
c231.333 0 445 54 641 162c12 97.333 18 185.666 18 264.999c0 188 -48.333 391 -145 609h326c44 -128 71.333 -248.333 82 -361c56 -22.667 103 -34 141 -34c66.667 0 133.667 32.667 201 98c2.66699 29.333 4 45.666 4 48.999l3 64l3 77v206h259v-255
c0 -88 12.333 -149.833 37 -185.5s67 -53.5 127 -53.5c67.333 0 141 32.667 221 98c2.66699 29.333 4 45.666 4 48.999l3 64l3 77v329h259v-376c0 -96.667 17.667 -157.5 53 -182.5s122.333 -37.5 261 -37.5h50v-296h-52c-138 0 -235.5 13.167 -292.5 39.5
s-114.833 84.833 -173.5 175.5c-64.667 -79.333 -123.834 -134.333 -177.5 -165c-53.667 -30.667 -118.834 -46 -195.5 -46c-76 -0 -135.167 15.833 -177.5 47.5s-76.833 86.167 -103.5 163.5c-114 -140.667 -219.667 -211 -317 -211c-43.333 -0 -85.333 8.33301 -126 25z
M1908 1110l148 148l148 -148l-148 -148zM2254 1110l148 148l148 -148l-148 -148zM2081 1369l148 148l148 -148l-148 -148z" />
    <glyph glyph-name="uniFEB7" unicode="&#x634;" horiz-adv-x="2011" arabic-form="initial" 
d="M1098 214c-112.667 -142.667 -233.333 -214 -362 -214c-145.333 -0 -242.666 71.333 -291.999 214c-104.667 -142.667 -237.667 -214 -399 -214h-70v296h49c88 0 189 22.333 303 67c8 70.667 12 137.667 12 201v201h259v-249c0 -163.333 55 -245 165 -245
c63.333 0 136.666 33.667 219.999 101c2.66699 29.333 4 46 4 50l3 64l3 77v202h259v-251c0 -162 56 -243 168 -243c90 0 167.667 34.333 233 103l2 48l2 81c0 182 -27.333 343.333 -82 484h311c26 -116 39 -236.667 39 -362c0 -184.667 -50.333 -335 -151 -451
s-231 -174 -391 -174c-141.333 -0 -236.333 71.333 -285 214zM802.001 1110l148 148l148 -148l-148 -148zM1147 1110l148 148l148 -148l-148 -148zM974.001 1369l148 148l148 -148l-148 -148z" />
    <glyph glyph-name="uniFEB8" unicode="&#x634;" horiz-adv-x="2246" arabic-form="medial" 
d="M444 214c-105.333 -142.667 -238.667 -214 -400 -214h-69v296h49c87.333 0 188 22.333 302 67c8 70.667 12 137.667 12 201v201h259v-249c0 -163.333 55.333 -245 166 -245c62.667 0 136 33.667 220 101c2.66699 29.333 4 46 4 50l3 64l2 77v202h259v-251
c0 -162 55 -243 165 -243c63.333 0 137 33.667 221 101c2.66699 29.333 4 46 4 50l2 64l3 77v325h259v-372c0 -96.667 17.833 -157.5 53.5 -182.5s122.5 -37.5 260.5 -37.5h50v-296h-52c-138 0 -235.5 13.167 -292.5 39.5s-114.5 84.5 -172.5 174.5
c-113.333 -142.667 -234.333 -214 -363 -214c-146 -0 -243 71.333 -291 214c-113.333 -142.667 -234.333 -214 -363 -214c-145.333 -0 -242.333 71.333 -291 214zM800.999 1110l148 148l148 -148l-148 -148zM1146 1110l148 148l148 -148l-148 -148zM973.999 1369l148 148
l148 -148l-148 -148z" />
    <glyph glyph-name="uniFEBA" unicode="&#x635;" horiz-adv-x="3385" arabic-form="final" 
d="M147 352h197.002c-20 -87.333 -30 -184.666 -30 -291.999c0 -286.667 171 -430 513 -430c230.667 0 444 54 640 162c12 97.333 18 185.666 18 264.999c0 188 -48 391 -144 609h326c37.333 -111.333 63.333 -219.666 78 -324.999c81.333 -19.333 157.666 -33 228.999 -41
c152 202 312.833 367 482.5 495s312.5 192 428.5 192c100.667 0 182.667 -41.333 246 -124s95 -189.667 95 -321c0 -50.667 -9 -110.667 -27 -180c60.667 -44 119.667 -66 177 -66h34v-296h-36c-134.667 0 -237 54.333 -307 163c-92.667 -68 -191.5 -116.333 -296.5 -145
s-236.5 -43 -394.5 -43c-213.333 0 -418 16.667 -614 50c-34 -226.667 -136.333 -398.667 -307 -516s-404.334 -176 -701.001 -176c-445.333 0 -668 204.333 -668 613c0 125.333 20.333 260.666 61 405.999zM2235 271l57 1c284 0 519.333 37 706 111
c1.33301 19.333 2 34 2 44c0 74.667 -16 138.667 -48 192s-70.333 80 -115 80c-57.333 0 -141 -39 -251 -117s-227 -181.667 -351 -311z" />
    <glyph glyph-name="uniFEBB" unicode="&#x635;" horiz-adv-x="2061" arabic-form="initial" 
d="M444 214c-105.333 -142.667 -238.669 -214 -400.002 -214h-69v296h49c68 0 167.333 22 298 66c2.66699 22.667 4.33398 37.334 5.00098 44.001l5 70l6 88v201h259v-249c0 -90 42 -162 126 -216c151.333 202 312 367 482 495s312.667 192 428 192
c100.667 0 182.667 -41.333 246 -124s95 -189.334 95 -320.001c0 -181.333 -70.667 -321.333 -212 -420s-342.333 -148 -603 -148c-167.333 0 -302.666 17.333 -405.999 52s-206.333 97 -309 187zM982.997 271l57.001 1c284.667 0 520 37 706 111c1.33301 19.333 2 34 2 44
c0 74.667 -15.833 138.667 -47.5 192s-69.834 80 -114.501 80c-58 0 -142 -39 -252 -117s-227 -181.667 -351 -311z" />
    <glyph glyph-name="uniFEBC" unicode="&#x635;" horiz-adv-x="2135" arabic-form="medial" 
d="M983 271l57.001 1c284.667 0 520 37 706 111c1.33301 19.333 2 34 2 44c0 74.667 -15.833 138.667 -47.5 192s-69.834 80 -114.501 80c-58 0 -142 -39 -252 -117s-227 -181.667 -351 -311zM444.001 214c-105.333 -142.667 -238.667 -214.001 -400 -214.001h-69v296h49
c87.333 0 188 22.333 302 67c8 70.667 12 137.667 12 201v201h259v-249c0 -97.333 44.667 -166.666 134 -207.999c136 188.667 291.667 349 467 481s320.333 198 435 198c100.667 0 182.667 -41.333 246 -124s95 -189.667 95 -321c0 -52 -8.66699 -112 -26 -180
c60.667 -44 119.667 -66 177 -66h34v-296h-37c-134.667 -0 -236.667 54.333 -306 163c-95.333 -70 -195.5 -118.833 -300.5 -146.5s-242.5 -41.5 -412.5 -41.5c-170.667 0 -304.167 17.5 -400.5 52.5s-182.5 97.167 -258.5 186.5z" />
    <glyph glyph-name="uniFEBE" unicode="&#x636;" horiz-adv-x="3385" arabic-form="final" 
d="M147 352h197.002c-20 -87.333 -30 -184.666 -30 -291.999c0 -286.667 171 -430 513 -430c230.667 0 444 54 640 162c12 97.333 18 185.666 18 264.999c0 188 -48 391 -144 609h326c37.333 -111.333 63.333 -219.666 78 -324.999c81.333 -19.333 157.666 -33 228.999 -41
c152 202 312.833 367 482.5 495s312.5 192 428.5 192c100.667 0 182.667 -41.333 246 -124s95 -189.667 95 -321c0 -50.667 -9 -110.667 -27 -180c60.667 -44 119.667 -66 177 -66h34v-296h-36c-134.667 0 -237 54.333 -307 163c-92.667 -68 -191.5 -116.333 -296.5 -145
s-236.5 -43 -394.5 -43c-213.333 0 -418 16.667 -614 50c-34 -226.667 -136.333 -398.667 -307 -516s-404.334 -176 -701.001 -176c-445.333 0 -668 204.333 -668 613c0 125.333 20.333 260.666 61 405.999zM2235 271l57 1c284 0 519.333 37 706 111
c1.33301 19.333 2 34 2 44c0 74.667 -16 138.667 -48 192s-70.333 80 -115 80c-57.333 0 -141 -39 -251 -117s-227 -181.667 -351 -311zM2742 1332l148 148l148 -148l-148 -148z" />
    <glyph glyph-name="uniFEBF" unicode="&#x636;" horiz-adv-x="2061" arabic-form="initial" 
d="M444 214c-105.333 -142.667 -238.669 -214 -400.002 -214h-69v296h49c68 0 167.333 22 298 66c2.66699 22.667 4.33398 37.334 5.00098 44.001l5 70l6 88v201h259v-249c0 -90 42 -162 126 -216c151.333 202 312 367 482 495s312.667 192 428 192
c100.667 0 182.667 -41.333 246 -124s95 -189.334 95 -320.001c0 -181.333 -70.667 -321.333 -212 -420s-342.333 -148 -603 -148c-167.333 0 -302.666 17.333 -405.999 52s-206.333 97 -309 187zM982.997 271l57.001 1c284.667 0 520 37 706 111c1.33301 19.333 2 34 2 44
c0 74.667 -15.833 138.667 -47.5 192s-69.834 80 -114.501 80c-58 0 -142 -39 -252 -117s-227 -181.667 -351 -311zM1479 1332l147 148l149 -148l-149 -148z" />
    <glyph glyph-name="uniFEC0" unicode="&#x636;" horiz-adv-x="2135" arabic-form="medial" 
d="M983 271l57.001 1c284.667 0 520 37 706 111c1.33301 19.333 2 34 2 44c0 74.667 -15.833 138.667 -47.5 192s-69.834 80 -114.501 80c-58 0 -142 -39 -252 -117s-227 -181.667 -351 -311zM444.001 214c-105.333 -142.667 -238.667 -214.001 -400 -214.001h-69v296h49
c87.333 0 188 22.333 302 67c8 70.667 12 137.667 12 201v201h259v-249c0 -97.333 44.667 -166.666 134 -207.999c136 188.667 291.667 349 467 481s320.333 198 435 198c100.667 0 182.667 -41.333 246 -124s95 -189.667 95 -321c0 -52 -8.66699 -112 -26 -180
c60.667 -44 119.667 -66 177 -66h34v-296h-37c-134.667 -0 -236.667 54.333 -306 163c-95.333 -70 -195.5 -118.833 -300.5 -146.5s-242.5 -41.5 -412.5 -41.5c-170.667 0 -304.167 17.5 -400.5 52.5s-182.5 97.167 -258.5 186.5zM1479 1332l147 148l149 -148l-149 -148z
" />
    <glyph glyph-name="uniFEC2" unicode="&#x637;" horiz-adv-x="1731" arabic-form="final" 
d="M440 1678h258.998v-572c0 -198.667 -20 -364.667 -60 -498c126.667 138.667 234.334 236.5 323.001 293.5s177 85.5 265 85.5c102.667 0 185.667 -41 249 -123s95 -189.333 95 -322c0 -52 -8.66699 -112 -26 -180c60.667 -44 119.667 -66 177 -66h34v-296h-36
c-134.667 -0 -237 54.333 -307 163c-89.333 -66 -201.666 -113.833 -336.999 -143.5s-310.666 -44.5 -525.999 -44.5c-218.667 0 -402 13 -550 39v303c97.333 -20.667 183.666 -31 258.999 -31h39c59.333 86 97.833 166.333 115.5 241s26.5 193.667 26.5 357v794z
M579.998 271l58 1c284 0 519 37 705 111l1 39c0 80 -15.167 146.167 -45.5 198.5s-68.5 78.5 -114.5 78.5c-58 0 -142 -39 -252 -117s-227.333 -181.667 -352 -311z" />
    <glyph glyph-name="uniFEC3" unicode="&#x637;" horiz-adv-x="1559" arabic-form="initial" 
d="M-25 0l0.00195312 296h228c56.667 76.667 94 153.167 112 229.5s27 195.833 27 358.5v794h259v-572c0 -198 -20.333 -364 -61 -498c127.333 138.667 235.166 236.5 323.499 293.5s176.833 85.5 265.5 85.5c102 0 184.833 -41 248.5 -123s95.5 -188.333 95.5 -319
c0 -196.667 -71 -338 -213 -424c-76 -46 -169.333 -77.667 -280 -95s-276.334 -26 -497.001 -26h-508zM482.002 271l57.001 1c284.667 0 520 37 706 111l1 39c0 80 -15.167 146.167 -45.5 198.5s-68.833 78.5 -115.5 78.5c-58 0 -141.833 -39 -251.5 -117
s-226.834 -181.667 -351.501 -311z" />
    <glyph glyph-name="uniFEC4" unicode="&#x637;" horiz-adv-x="1633" arabic-form="medial" 
d="M1245 387l1 37c0 79.333 -15.167 145 -45.5 197s-68.833 78 -115.5 78c-118.667 0 -311.334 -134.333 -578.001 -403h145c107.333 0 218.333 8.83301 333 26.5s201.334 39.167 260.001 64.5zM-25 0v296h228c56.667 76.667 94 153.167 112 229.5s27 195.833 27 358.5v794
h259v-572c0 -198 -20.333 -364 -61 -498c127.333 138.667 235.166 236.5 323.499 293.5s176.833 85.5 265.5 85.5c102 0 184.833 -41.167 248.5 -123.5s95.5 -189.5 95.5 -321.5c0 -50.667 -8.66699 -110.667 -26 -180c60.667 -44 119.667 -66 177 -66h34v-296h-37
c-134 -0 -236 54.333 -306 163c-88.667 -66 -187.167 -109.667 -295.5 -131s-287.166 -32 -536.499 -32h-508z" />
    <glyph glyph-name="uniFEC6" unicode="&#x638;" horiz-adv-x="1731" arabic-form="final" 
d="M440 1678h258.998v-572c0 -198.667 -20 -364.667 -60 -498c126.667 138.667 234.334 236.5 323.001 293.5s177 85.5 265 85.5c102.667 0 185.667 -41 249 -123s95 -189.333 95 -322c0 -52 -8.66699 -112 -26 -180c60.667 -44 119.667 -66 177 -66h34v-296h-36
c-134.667 -0 -237 54.333 -307 163c-89.333 -66 -201.666 -113.833 -336.999 -143.5s-310.666 -44.5 -525.999 -44.5c-218.667 0 -402 13 -550 39v303c97.333 -20.667 183.666 -31 258.999 -31h39c59.333 86 97.833 166.333 115.5 241s26.5 193.667 26.5 357v794z
M579.998 271l58 1c284 0 519 37 705 111l1 39c0 80 -15.167 146.167 -45.5 198.5s-68.5 78.5 -114.5 78.5c-58 0 -142 -39 -252 -117s-227.333 -181.667 -352 -311zM1076 1332l148 148l148 -148l-148 -148z" />
    <glyph glyph-name="uniFEC7" unicode="&#x638;" horiz-adv-x="1559" arabic-form="initial" 
d="M-25 0l0.00195312 296h228c56.667 76.667 94 153.167 112 229.5s27 195.833 27 358.5v794h259v-572c0 -198 -20.333 -364 -61 -498c127.333 138.667 235.166 236.5 323.499 293.5s176.833 85.5 265.5 85.5c102 0 184.833 -41 248.5 -123s95.5 -188.333 95.5 -319
c0 -196.667 -71 -338 -213 -424c-76 -46 -169.333 -77.667 -280 -95s-276.334 -26 -497.001 -26h-508zM482.002 271l57.001 1c284.667 0 520 37 706 111l1 39c0 80 -15.167 146.167 -45.5 198.5s-68.833 78.5 -115.5 78.5c-58 0 -141.833 -39 -251.5 -117
s-226.834 -181.667 -351.501 -311zM978.003 1332l148 148l147 -148l-147 -148z" />
    <glyph glyph-name="uniFEC8" unicode="&#x638;" horiz-adv-x="1633" arabic-form="medial" 
d="M-25 0v296h228c56.667 76.667 94 153.167 112 229.5s27 195.833 27 358.5v794h259v-572c0 -198 -20.333 -364 -61 -498c127.333 138.667 235.166 236.5 323.499 293.5s176.833 85.5 265.5 85.5c102 0 184.833 -41.167 248.5 -123.5s95.5 -189.5 95.5 -321.5
c0 -50.667 -8.66699 -110.667 -26 -180c60.667 -44 119.667 -66 177 -66h34v-296h-37c-134 -0 -236 54.333 -306 163c-88.667 -66 -187.167 -109.667 -295.5 -131s-287.166 -32 -536.499 -32h-508zM1245 387l1 37c0 79.333 -15.167 145 -45.5 197s-68.833 78 -115.5 78
c-118.667 0 -311.334 -134.333 -578.001 -403h145c107.333 0 218.333 8.83301 333 26.5s201.334 39.167 260.001 64.5zM978 1332l147 148l148 -148l-148 -148z" />
    <glyph glyph-name="uniFECA" unicode="&#x639;" horiz-adv-x="1331" arabic-form="final" 
d="M518 346c-122.667 111.333 -228.001 169.332 -316.001 173.999v317c182.667 100 369 150 559 150c138.667 0 248.167 -29 328.5 -87s120.5 -137 120.5 -237c0 -74 -20.5 -134.667 -61.5 -182s-114.5 -94.666 -220.5 -141.999c54.667 -28.667 170.334 -43 347.001 -43h80
v-296h-99c-181.333 0 -309.166 12 -383.499 36s-146.5 76.333 -216.5 157c-201.333 -80 -302 -199.333 -302 -358c0 -218.667 168.667 -328 506 -328c120.667 0 263.667 22 429 66v-223c-156.667 -93.333 -320.334 -140 -491.001 -140c-210.667 0 -382 53.333 -514 160
s-198 245 -198 415c0 257.333 144 444.333 432 561zM764.999 466.999c86.667 38 130 89.667 130 155c0 92 -77 138 -231 138c-68 0 -139 -13 -213 -39c109.333 -61.333 214 -146 314 -254z" />
    <glyph glyph-name="uniFECB" unicode="&#x639;" horiz-adv-x="1107" arabic-form="initial" 
d="M972 1174l-0.000976562 -281.002c-100 13.333 -176 20 -228 20c-111.333 0 -209.666 -23 -294.999 -69v-24c0 -99.333 30.667 -185.666 92 -258.999c40 -47.333 85.167 -78.666 135.5 -93.999s133.5 -23 249.5 -23h144v-296h-192c-136.667 0 -251 -18 -343 -54l-46 -18
l-59 -25c-83.333 -34 -191.666 -51 -324.999 -51h-130v296h47c143.333 0 270.666 18.333 381.999 55l27 9c-166 98.667 -249 224 -249 376c0 136 54.167 244.833 162.5 326.5s252.833 122.5 433.5 122.5c51.333 0 116 -3.66699 194 -11z" />
    <glyph glyph-name="uniFECC" unicode="&#x639;" horiz-adv-x="1234" arabic-form="medial" 
d="M-25 0l-0.000976562 296h111c125.333 0 241 10 347 30c-103.333 105.333 -212.666 187.666 -327.999 246.999v296c180 78.667 357.333 118 532 118c140 0 254 -29.667 342 -89s132 -136.333 132 -231c0 -132 -93 -255.667 -279 -371h427v-296h-101
c-145.333 0 -251.333 9.83301 -318 29.5s-136.667 61.834 -210 126.501c-88.667 -60 -175 -101 -259 -123s-195 -33 -333 -33h-63zM680.999 437c80.667 68.667 121 130.001 121 184.001c0 96 -78.667 144 -236 144c-67.333 0 -143 -8.66699 -227 -26
c122.667 -76.667 236.667 -177.334 342 -302.001z" />
    <glyph glyph-name="uniFECE" unicode="&#x63a;" horiz-adv-x="1331" arabic-form="final" 
d="M518 346c-122.667 111.333 -228.001 169.332 -316.001 173.999v317c182.667 100 369 150 559 150c138.667 0 248.167 -29 328.5 -87s120.5 -137 120.5 -237c0 -74 -20.5 -134.667 -61.5 -182s-114.5 -94.666 -220.5 -141.999c54.667 -28.667 170.334 -43 347.001 -43h80
v-296h-99c-181.333 0 -309.166 12 -383.499 36s-146.5 76.333 -216.5 157c-201.333 -80 -302 -199.333 -302 -358c0 -218.667 168.667 -328 506 -328c120.667 0 263.667 22 429 66v-223c-156.667 -93.333 -320.334 -140 -491.001 -140c-210.667 0 -382 53.333 -514 160
s-198 245 -198 415c0 257.333 144 444.333 432 561zM764.999 466.999c86.667 38 130 89.667 130 155c0 92 -77 138 -231 138c-68 0 -139 -13 -213 -39c109.333 -61.333 214 -146 314 -254zM640.999 1332l148 148l148 -148l-148 -148z" />
    <glyph glyph-name="uniFECF" unicode="&#x63a;" horiz-adv-x="1107" arabic-form="initial" 
d="M972 1174l-0.000976562 -281.002c-100 13.333 -176 20 -228 20c-111.333 0 -209.666 -23 -294.999 -69v-24c0 -99.333 30.667 -185.666 92 -258.999c40 -47.333 85.167 -78.666 135.5 -93.999s133.5 -23 249.5 -23h144v-296h-192c-136.667 0 -251 -18 -343 -54l-46 -18
l-59 -25c-83.333 -34 -191.666 -51 -324.999 -51h-130v296h47c143.333 0 270.666 18.333 381.999 55l27 9c-166 98.667 -249 224 -249 376c0 136 54.167 244.833 162.5 326.5s252.833 122.5 433.5 122.5c51.333 0 116 -3.66699 194 -11zM616.999 1530l148 148l148 -148
l-148 -148z" />
    <glyph glyph-name="uniFED0" unicode="&#x63a;" horiz-adv-x="1234" arabic-form="medial" 
d="M-25 0l-0.000976562 296h111c125.333 0 241 10 347 30c-103.333 105.333 -212.666 187.666 -327.999 246.999v296c180 78.667 357.333 118 532 118c140 0 254 -29.667 342 -89s132 -136.333 132 -231c0 -132 -93 -255.667 -279 -371h427v-296h-101
c-145.333 0 -251.333 9.83301 -318 29.5s-136.667 61.834 -210 126.501c-88.667 -60 -175 -101 -259 -123s-195 -33 -333 -33h-63zM680.999 437c80.667 68.667 121 130.001 121 184.001c0 96 -78.667 144 -236 144c-67.333 0 -143 -8.66699 -227 -26
c122.667 -76.667 236.667 -177.334 342 -302.001zM461.999 1332l148 148l148 -148l-148 -148z" />
    <glyph glyph-name="uniFED2" unicode="&#x641;" horiz-adv-x="2743" arabic-form="final" 
d="M114 716l197 -0.000976562c-10.667 -75.333 -16 -134 -16 -176c0 -120 55.667 -204 167 -252s305.333 -72 582 -72c331.333 0 627.333 26.667 888 80c-72.667 78.667 -109 160 -109 244c0 108.667 54.5 210.334 163.5 305.001s226.167 142 351.5 142
c82 0 147.5 -24.5 196.5 -73.5s73.5 -114.833 73.5 -197.5c0 -142 -79.667 -282 -239 -420h398v-296h-102c-134.667 -0 -239.667 8.33301 -315 25s-144 47 -206 91c-338 -130.667 -725.667 -196 -1163 -196c-332 0 -564.167 38 -696.5 114s-198.5 209.333 -198.5 400
c0 86.667 9.33301 180.667 28 282zM2222 406.999c76 54.667 132 98.333 168 131c-11.333 134.667 -60 202 -146 202c-60 0 -123.333 -31.333 -190 -94c61.333 -107.333 117.333 -187 168 -239zM2176 1332l148 148l148 -148l-148 -148z" />
    <glyph glyph-name="uniFED3" unicode="&#x641;" horiz-adv-x="1035" arabic-form="initial" 
d="M-25 0v296h661c8 44 13.667 80.333 17 109c-42 -6.66699 -81.667 -10 -119 -10c-259.333 0 -389 84.667 -389 254c0 148 50 282.5 150 403.5s211 181.5 333 181.5c213.333 0 320 -184.333 320 -553c0 -264.667 -65.667 -441.667 -197 -531
c-147.333 -100 -358.333 -150 -633 -150h-143zM683 693l1 46c0 158 -37.667 237 -113 237c-86.667 0 -150 -83.667 -190 -251c52 -22.667 134 -34 246 -34zM499 1579l148 148l148 -148l-148 -148z" />
    <glyph glyph-name="uniFED4" unicode="&#x641;" horiz-adv-x="1117" arabic-form="medial" 
d="M1141 296l-0.000976562 -296.001h-103c-134.667 0 -239.667 8.33301 -315 25s-144 47 -206 91c-117.333 -77.333 -273.333 -116 -468 -116h-74v296h330c-72.667 78.667 -109 160 -109 244c0 108.667 54.5 210.334 163.5 305.001s226.167 142 351.5 142
c82.667 0 148.334 -24.5 197.001 -73.5s73 -115.167 73 -198.5c0 -141.333 -79.667 -281 -239 -419h399zM594.999 406.999c76.667 54.667 132.668 98.334 168.001 131.001c-10.667 134.667 -59.334 202 -146.001 202c-60 0 -123.333 -31.333 -190 -94
c60.667 -106.667 116.667 -186.334 168 -239.001zM481 1332l148 148l148 -148l-148 -148z" />
    <glyph glyph-name="uniFED6" unicode="&#x642;" horiz-adv-x="1877" arabic-form="final" 
d="M146 228h172.998c-20 -86.667 -30 -180 -30 -280c0 -294.667 171.333 -442 514 -442c260.667 0 481 93 661 279c19.333 82 29 157.333 29 226c-47.333 -7.33301 -89.666 -11 -126.999 -11c-256.667 0 -385 84.667 -385 254c0 148.667 49.833 283.5 149.5 404.5
s210.834 181.5 333.501 181.5c216 0 324 -179.333 324 -538v-6h113v-296h-141c-50 -257.333 -161.667 -453.333 -335 -588s-401.333 -202 -684 -202c-436.667 0 -655 200.333 -655 601c0 141.333 20 280.333 60 417zM1518 298l2 45c0 158.667 -38 238 -114 238
c-86.667 0 -149.667 -83.667 -189 -251c52 -22.667 133.667 -34 245 -34zM1084 1184l148 148l148 -148l-148 -148zM1429 1184l148 148l148 -148l-148 -148z" />
    <glyph glyph-name="uniFED7" unicode="&#x642;" horiz-adv-x="1035" arabic-form="initial" 
d="M-25 0v296h661c8 44 13.667 80.333 17 109c-42 -6.66699 -81.667 -10 -119 -10c-259.333 0 -389 84.667 -389 254c0 148 50 282.5 150 403.5s211 181.5 333 181.5c213.333 0 320 -184.333 320 -553c0 -264.667 -65.667 -441.667 -197 -531
c-147.333 -100 -358.333 -150 -633 -150h-143zM683 693l1 46c0 158 -37.667 237 -113 237c-86.667 0 -150 -83.667 -190 -251c52 -22.667 134 -34 246 -34zM247 1579l147 148l149 -148l-149 -148zM592 1579l148 148l148 -148l-148 -148z" />
    <glyph glyph-name="uniFED8" unicode="&#x642;" horiz-adv-x="1117" arabic-form="medial" 
d="M1141 296l-0.000976562 -296.001h-103c-134.667 0 -239.667 8.33301 -315 25s-144 47 -206 91c-117.333 -77.333 -273.333 -116 -468 -116h-74v296h330c-72.667 78.667 -109 160 -109 244c0 108.667 54.5 210.334 163.5 305.001s226.167 142 351.5 142
c82.667 0 148.334 -24.5 197.001 -73.5s73 -115.167 73 -198.5c0 -141.333 -79.667 -281 -239 -419h399zM594.999 406.999c76.667 54.667 132.668 98.334 168.001 131.001c-10.667 134.667 -59.334 202 -146.001 202c-60 0 -123.333 -31.333 -190 -94
c60.667 -106.667 116.667 -186.334 168 -239.001zM377 1332l148 148l148 -148l-148 -148zM722 1332l148 148l148 -148l-148 -148z" />
    <glyph glyph-name="uniFEDA" unicode="&#x643;" horiz-adv-x="2519" arabic-form="final" 
d="M1371 1400l-0.000976562 -175.999c-134 0 -234.333 -36.667 -301 -110l138 -70l49 -25c56.667 -29.333 85 -64.333 85 -105c0 -66.667 -83.333 -157.334 -250 -272.001h-295l339 203l-100 51l-46 23c-64 33.333 -96 77.333 -96 132c0 92.667 47.833 174 143.5 244
s206.834 105 333.501 105zM105.999 716.001l195.999 0.00195312l-2 -87c0 -106.667 18.333 -182.334 55 -227.001c70 -87.333 235 -131 495 -131c180.667 0 367.334 26.667 560.001 80s356.334 123.666 491.001 210.999l5 50l9 97c3.33301 40 5 72 5 96v873h259v-905l6 -190
c0 -110.667 19.667 -186.167 59 -226.5s112.666 -60.5 219.999 -60.5h80v-296h-102c-162.667 0 -278.5 22.833 -347.5 68.5s-120.5 133.167 -154.5 262.5c-124.667 -103.333 -299.5 -188.5 -524.5 -255.5s-449.5 -100.5 -673.5 -100.5c-437.333 0 -656 160.667 -656 482
c0 60 6.66699 146.333 20 259z" />
    <glyph glyph-name="uniFEDB" unicode="&#x643;" horiz-adv-x="1009" arabic-form="initial" 
d="M-25 0v296.001h222c197.333 0 339.333 18 426 54c-66 293.333 -265.667 525.333 -599 696v263l1037 369v-273l-725 -259c164 -108 291 -226 381 -354s135 -254.667 135 -380c0 -118.667 -42 -214.334 -126 -287.001c-60 -52 -127.5 -85.833 -202.5 -101.5
s-207.5 -23.5 -397.5 -23.5h-151z" />
    <glyph glyph-name="uniFEDC" unicode="&#x643;" horiz-adv-x="1118" arabic-form="medial" 
d="M1142 296v-295.999h-57c-80.667 0 -152.5 19.333 -215.5 58s-134.5 107 -214.5 205l-57 70c-12.667 -118 -55.167 -202.833 -127.5 -254.5s-185.5 -77.5 -339.5 -77.5l-156 -1v296h86c82 0 187 10 315 30c0 102.667 -11.333 187.667 -34 255s-64 137.666 -124 210.999
l-206 254v263l1036 369v-273l-760 -271l462 -568c146 -180 261.667 -270 347 -270h45z" />
    <glyph glyph-name="uniFEDE" unicode="&#x644;" horiz-adv-x="2123" arabic-form="final" 
d="M2148 296l-0.00195312 -295.998h-81c-101.333 0 -195.666 30.333 -282.999 91c-16.667 -154.667 -42.167 -269.667 -76.5 -345s-92.5 -143.333 -174.5 -204c-184.667 -138.667 -453.334 -208 -806.001 -208c-223.333 0 -386 41.667 -488 125s-153 216.666 -153 399.999
c0 124.667 16.667 258 50 400h197c-16 -108.667 -24 -200.334 -24 -275.001c0 -135.333 34.333 -228.166 103 -278.499s195.334 -75.5 380.001 -75.5c258.667 0 495.334 48.333 710.001 145l7 127c10 178 15 299.667 15 365v1411h260v-905l5 -180
c0 -114.667 19.5 -192.834 58.5 -234.501s112.5 -62.5 220.5 -62.5h80z" />
    <glyph glyph-name="uniFEDF" unicode="&#x644;" horiz-adv-x="808" arabic-form="initial" 
d="M339 1678h259v-904c0 -274.667 -26 -457.667 -78 -549c-85.333 -150 -238.333 -225 -459 -225h-86v296h78c84.667 0 170.667 14.667 258 44c18.667 138 28 267.667 28 389v949z" />
    <glyph glyph-name="uniFEE0" unicode="&#x644;" horiz-adv-x="938" arabic-form="medial" 
d="M-25 0v296h49c88 0 189 22.333 303 67c8 70.667 12 137.667 12 201v1114h259v-1162c0 -96.667 17.833 -157.5 53.5 -182.5s122.5 -37.5 260.5 -37.5h50v-296h-52c-138 0 -235.333 13.167 -292 39.5s-114.667 84.5 -174 174.5c-104.667 -142.667 -237.667 -214 -399 -214
h-70z" />
    <glyph glyph-name="uniFEE2" unicode="&#x645;" horiz-adv-x="1382" arabic-form="final" 
d="M554 456c132 -113.333 261.999 -193.999 389.999 -241.999c-20 119.333 -53 215.166 -99 287.499s-96.667 108.5 -152 108.5c-43.333 0 -89.666 -51.333 -138.999 -154zM422.999 186.001c-50 -98 -75 -187.332 -75 -267.999c0 -36.667 2 -85.334 6 -146.001
c4.66699 -62 7.66699 -106.333 9 -133l7 -117c4 -57.333 6 -87 6 -89v-223h-260v225c0 66 -5.33301 160.333 -16 283c-9.33301 110 -14 186.333 -14 229c0 102 32.667 207 98 315l88 146c23.333 38 43 71.667 59 101l53 96l49 88c76 132.667 173 199 291 199
c171.333 0 304.333 -112 399 -336l19 -46c38.667 -90.667 72.5 -149 101.5 -175s75.167 -39 138.5 -39h24v-296h-34c-85.333 0 -164 41 -236 123c-52 -98.667 -135.333 -148 -250 -148c-142 0 -296.333 70.333 -463 211zM1276 0.00195312z" />
    <glyph glyph-name="uniFEE3" unicode="&#x645;" horiz-adv-x="1276" arabic-form="initial" 
d="M-25 0l-0.000976562 295.999h65c70 0 124.333 11 163 33s73.334 61.333 104.001 118l40 73l43 80l16 32c88 170.667 194.333 256 319 256c116.667 0 223.167 -57.667 319.5 -173s144.5 -242.666 144.5 -381.999c0 -109.333 -26.167 -196.333 -78.5 -261
s-122.833 -97 -211.5 -97c-144 0 -304 73.667 -480 221c-52.667 -86 -99.5 -140.167 -140.5 -162.5s-114.5 -33.5 -220.5 -33.5h-83zM562.999 455.999c133.333 -114 263.333 -194.668 390 -242.001c-20 118.667 -53 214.334 -99 287.001s-96.667 109 -152 109
c-42.667 0 -89 -51.333 -139 -154z" />
    <glyph glyph-name="uniFEE4" unicode="&#x645;" horiz-adv-x="1391" arabic-form="medial" 
d="M419 196c-52.667 -86 -99.501 -140.167 -140.501 -162.5s-114.5 -33.5 -220.5 -33.5h-83v296h65c70 0 124.333 11 163 33s73.334 61.333 104.001 118l40 73l43 80l16 32c88 170.667 198.333 256 331 256c169.333 0 301 -110.667 395 -332l19 -46
c38.667 -90.667 72.5 -149 101.5 -175s75.167 -39 138.5 -39h24v-296h-34c-85.333 0 -164 41 -236 123c-52 -98.667 -135.333 -148 -250 -148c-142 0 -300.667 73.667 -476 221zM562.999 456c133.333 -114 263.333 -194.668 390 -242.001
c-20 118.667 -53 214.334 -99 287.001s-96.667 109 -152 109c-42.667 0 -89 -51.333 -139 -154zM1276 -0.000976562z" />
    <glyph glyph-name="uniFEE6" unicode="&#x646;" horiz-adv-x="2055" arabic-form="final" 
d="M147 352l197.001 0.000976562c-20 -87.333 -30 -184.666 -30 -291.999c0 -286.667 171 -430 513 -430c230.667 0 444 54 640 162c12 97.333 18 186.333 18 267c0 177.333 -50 379.666 -150 606.999h326c42 -116 69 -217.333 81 -304c81.333 -44 177.333 -66 288 -66h50
v-296h-53c-112 0 -200.333 16.333 -265 49c-20.667 -229.333 -118.334 -406 -293.001 -530s-413 -186 -715 -186c-445.333 0 -668 204.333 -668 613c0 125.333 20.333 260.666 61 405.999zM813.001 1012l148 148l148 -148l-148 -148z" />
    <glyph glyph-name="uniFEE7" unicode="&#x646;" horiz-adv-x="747" arabic-form="initial" 
d="M-25 0l-0.000976562 296.001h76c118.667 0 231.334 26 338.001 78l2 48l2 78c0 151.333 -27.333 297.333 -82 438h311c26 -116 39 -222.667 39 -320c0 -202.667 -54.833 -356.334 -164.5 -461.001s-270.167 -157 -481.5 -157h-40zM267.999 1283l148 148l148 -148
l-148 -148z" />
    <glyph glyph-name="uniFEE8" unicode="&#x646;" horiz-adv-x="938" arabic-form="medial" 
d="M-25 0v296h49c88 0 189 22.333 303 67c8 70.667 12 137.667 12 201v201h259v-249c0 -96.667 17.833 -157.5 53.5 -182.5s122.5 -37.5 260.5 -37.5h50v-296h-52c-138 0 -235.333 13.167 -292 39.5s-114.667 84.5 -174 174.5c-104.667 -142.667 -237.667 -214 -399 -214
h-70zM321 1110l148 148l148 -148l-148 -148z" />
    <glyph glyph-name="uniFEEA" unicode="&#x647;" horiz-adv-x="1163" arabic-form="final" 
d="M685 1182h258.999v-618l5 -93c3.33301 -67.333 18.333 -113.333 45 -138s75.334 -37 146.001 -37h48v-296h-109c-144 -0 -245.667 23.333 -305 70s-89 126.667 -89 240v90c-59.333 -135.333 -156 -203 -290 -203c-86 0 -161 25.5 -225 76.5s-96 111.167 -96 180.5
c0 88 55.167 183.5 165.5 286.5s258.833 197.5 445.5 283.5v158zM684.999 808c-130.667 -74.667 -243 -159.333 -337 -254c46.667 -56.667 96.667 -85 150 -85c48 0 107.333 25.667 178 77c2 18.667 3 31 3 37l3 46c2 34.667 3 52.667 3 54v125z" />
    <glyph glyph-name="uniFEEB" unicode="&#x647;" horiz-adv-x="1307" arabic-form="initial" 
d="M141 922l-0.000976562 262.001c233.333 0 424 -32 572 -96c152.667 -66 275.334 -161.833 368.001 -287.5s139 -258.5 139 -398.5c0 -122.667 -34.833 -220.334 -104.5 -293.001s-162.834 -109 -279.501 -109c-130 0 -251 39 -363 117c-120 -78 -259.667 -117 -419 -117
h-79v296h42c76.667 0 155.334 5 236.001 15c-77.333 70 -116 154 -116 252c0 136 69 250.667 207 344c-54.667 10 -115 15 -181 15h-22zM507.999 430.001c89.333 64 160.001 136.999 212.001 218.999c-31.333 114.667 -88.333 172 -171 172
c-74.667 0 -147.334 -43 -218.001 -129c50 -123.333 109 -210.666 177 -261.999zM715 303c76 -39.333 142.333 -59 199 -59c14.667 0 38 3.66699 70 11l1 60c0 100 -29 187.667 -87 263c-23.333 -66 -45 -114 -65 -144s-59.333 -73.667 -118 -131z" />
    <glyph glyph-name="uniFEEC" unicode="&#x647;" horiz-adv-x="1268" arabic-form="medial" 
d="M1292 296l-0.000976562 -296.001h-311c164 -102 246 -243.667 246 -425c0 -113.333 -33.667 -202.5 -101 -267.5s-159.666 -97.5 -276.999 -97.5c-174 0 -316.833 68.333 -428.5 205s-184.167 331.667 -217.5 585h-228v296h239c58.667 345.333 231.667 641.333 519 888
c195.333 -261.333 293 -473 293 -635c0 -91.333 -69.333 -175.666 -208 -252.999h474zM439.999 295.999h18.999c68.667 0 132.834 22 192.501 66s89.5 91.333 89.5 142c0 67.333 -33 159 -99 275c-94.667 -149.333 -162 -310.333 -202 -483zM436.998 -0.000976562
c30.667 -130 77.999 -241 141.999 -333c40 -56.667 94.833 -104 164.5 -142s136.834 -57 201.501 -57h35c-17.333 150 -76.5 274.5 -177.5 373.5s-222.833 151.833 -365.5 158.5z" />
    <glyph glyph-name="uniFEEE" unicode="&#x648;" horiz-adv-x="1050" arabic-form="final" 
d="M687 0l-93.999 1c-283.333 0 -425 84.333 -425 253c0 148.667 50 283.5 150 404.5s211.333 181.5 334 181.5c215.333 0 323 -176.667 323 -530v-14h99v-296h-142c-62.667 -240.667 -258.334 -504 -587.001 -790h-548l151 112c212 156.667 361 274.5 447 353.5
s183.333 187.167 292 324.5zM718.001 298l0.999023 45c0 158.667 -40 238 -120 238c-90 0 -155 -83.667 -195 -251c52.667 -22.667 136.334 -34 251.001 -34z" />
    <glyph glyph-name="uniFEF0" unicode="&#x649;" horiz-adv-x="2025" arabic-form="final" 
d="M2049 296l0.000976562 -296.001h-23c-46 0 -90 5 -132 15l-48 12l-36 7c-70.667 14.667 -137 22 -199 22c-108 0 -178.333 -41.667 -211 -125l243 -35l132 -22c128 -20.667 192 -71.667 192 -153c0 -102 -56.333 -195.333 -169 -280
c-206.667 -154 -526.334 -231 -959.001 -231c-502 0 -753 149 -753 447c0 96.667 24.667 211 74 343h198c-26 -88.667 -39 -161 -39 -217c0 -184.667 192.333 -277 577 -277c354.667 0 628.667 44 822 132l-274 40c-128.667 18 -216.167 42.833 -262.5 74.5
s-69.5 81.834 -69.5 150.501c0 121.333 54 226.5 162 315.5s235.333 133.5 382 133.5c62.667 0 129.667 -8 201 -24l43 -9l49 -10c38.667 -8.66699 65 -13 79 -13h21z" />
    <glyph glyph-name="uniFEF2" unicode="&#x64a;" horiz-adv-x="2155" arabic-form="final" 
d="M2179 296l-0.00195312 -296h-32c-74 0 -159.667 27 -257 81l-76 43l-44 22c-77.333 38.667 -153.333 58 -228 58c-46 0 -90.667 -8.33301 -134 -25l162 -77c96 -46 161.5 -83.333 196.5 -112s52.5 -59.667 52.5 -93c0 -96.667 -86.167 -177.667 -258.5 -243
s-386.166 -98 -641.499 -98c-287.333 0 -498 39.167 -632 117.5s-201 201.833 -201 370.5c0 75.333 9.33301 159.333 28 252h193l-3 -46c-2 -30.667 -3 -56 -3 -76c0 -119.333 59.667 -204 179 -254c148 -62 368.333 -93 661 -93c123.333 0 233 12.667 329 38l-104 49
l-94 44c-102.667 48.667 -154 104.667 -154 168c0 83.333 46.833 152 140.5 206s211.834 81 354.501 81c82 0 168 -13.667 258 -41l39 -12l68 -22c82 -28 137.333 -42 166 -42h35zM1183 -642l148 149l148 -149l-148 -148zM1529 -642l147 149l149 -149l-149 -148z" />
    <glyph glyph-name="uniFEF3" unicode="&#x64a;" horiz-adv-x="747" arabic-form="initial" 
d="M-25 0l-0.000976562 296.001h76c118.667 0 231.334 26 338.001 78l2 48l2 78c0 151.333 -27.333 297.333 -82 438h311c26 -116 39 -222.667 39 -320c0 -202.667 -54.833 -356.334 -164.5 -461.001s-270.167 -157 -481.5 -157h-40zM27.999 -344.999l148 148l148 -148
l-148 -148zM373.999 -344.999l148 148l148 -148l-148 -148z" />
    <glyph glyph-name="uniFEF4" unicode="&#x64a;" horiz-adv-x="938" arabic-form="medial" 
d="M-25 0v296h49c88 0 189 22.333 303 67c8 70.667 12 137.667 12 201v201h259v-249c0 -96.667 17.833 -157.5 53.5 -182.5s122.5 -37.5 260.5 -37.5h50v-296h-52c-138 0 -235.333 13.167 -292 39.5s-114.667 84.5 -174 174.5c-104.667 -142.667 -237.667 -214 -399 -214
h-70zM148 -345l148 148l148 -148l-148 -148zM493 -345l148 148l148 -148l-148 -148z" />
    <glyph glyph-name="uniFEF5" unicode="&#xfef5;" horiz-adv-x="1190" arabic-form="isolated" 
d="M135 296c173.333 44.667 323.666 159 450.999 343c-147.333 281.333 -291.666 530 -432.999 746h248c96.667 -137.333 200.667 -308.666 312 -513.999c13.333 97.333 20 190.666 20 279.999v527h259v-324c0 -159.333 -9.66699 -288.5 -29 -387.5
s-54.666 -197.833 -105.999 -296.5l34 -63c76 -140 114 -244.667 114 -314c0 -83.333 -28.667 -151 -86 -203c-38.667 -36 -82.334 -60 -131.001 -72s-127 -18 -235 -18h-418v296zM763 288c-18.667 44.667 -38.668 90 -60.001 136l-20 45
c-55.333 -70 -122.333 -136 -201 -198h81c66.667 0 133.334 5.66699 200.001 17zM-25.001 1468l0.000976562 138.001c73.333 89.333 136 134 188 134c25.333 0 76 -13 152 -39l42 -15c52.667 -18 92.667 -27 120 -27c41.333 0 93.333 22 156 66
c4 3.33301 10.667 8.33301 20 15v-139c-74 -88.667 -136.667 -133 -188 -133c-25.333 0 -76 13 -152 39l-42 14c-52.667 18.667 -92.667 28 -120 28c-42 0 -94 -22.333 -156 -67c-4.66699 -2.66699 -11.334 -7.33398 -20.001 -14.001z" />
    <glyph glyph-name="uniFEF6" unicode="&#xfef6;" horiz-adv-x="1558" arabic-form="final" 
d="M984 427l-72.999 -70c-76 -72.667 -124 -116.667 -144 -132l-212 -162l-80 -63h-518c234 130.667 454.667 266.334 662 407.001c-102.667 313.333 -271.334 642 -506.001 986h272c209.333 -340.667 355.333 -633.334 438 -878.001c59.333 56 97 102.833 113 140.5
s24 100.5 24 188.5v834h259v-1162c0 -96.667 17.667 -157.5 53 -182.5s122.333 -37.5 261 -37.5h50v-296h-52c-136.667 0 -238.167 10 -304.5 30s-121.5 57 -165.5 111c-51.333 62.667 -77 158 -77 286zM0.000976562 1468v138c74 89.333 136.667 134 188 134
c26 0 77 -13 153 -39l41 -15c53.333 -18 93.333 -27 120 -27c42 0 94 22 156 66l21 15v-139c-74 -88.667 -137 -133 -189 -133c-25.333 0 -76 13 -152 39l-42 14c-52.667 18.667 -92.667 28 -120 28c-41.333 0 -93.333 -22.333 -156 -67z" />
    <glyph glyph-name="uniFEF7" unicode="&#xfef7;" horiz-adv-x="1190" arabic-form="isolated" 
d="M135 296c173.333 44.667 323.667 159 451 343c-147.333 281.333 -271.666 496 -372.999 644h256c51.333 -69.333 132.666 -206.666 243.999 -411.999c13.333 97.333 20 190.666 20 279.999v527h259v-324c0 -159.333 -9.66699 -288.5 -29 -387.5
s-54.666 -197.833 -105.999 -296.5l34 -63c76 -140 114 -244.667 114 -314c0 -83.333 -28.667 -151 -86 -203c-38.667 -36 -82.334 -60 -131.001 -72s-127 -18 -235 -18h-418v296zM763.001 288c-18.667 44.667 -38.668 90 -60.001 136l-20 45
c-55.333 -70 -122.333 -136 -201 -198h81c66.667 0 133.334 5.66699 200.001 17zM569 1723l0.000976562 -133.001c-78.667 20 -167.667 34 -267 42c28.667 -55.333 67.667 -101.666 117 -138.999h168v-124h-530v124h171c-50 54 -75 100.667 -75 140
c0 71.333 76.333 107 229 107c63.333 0 125.666 -5.66699 186.999 -17z" />
    <glyph glyph-name="uniFEF8" unicode="&#xfef8;" horiz-adv-x="1558" arabic-form="final" 
d="M984 427l-73 -70.001c-76 -72.667 -124 -116.667 -144 -132l-212 -162l-80 -63h-518c234 130.667 454.667 266.334 662 407.001c-102.667 313.333 -241 605.333 -415 876h256c159.333 -267.333 280.333 -523.333 363 -768c59.333 56 97 102.833 113 140.5
s24 100.5 24 188.5v834h259v-1162c0 -96.667 17.667 -157.5 53 -182.5s122.333 -37.5 261 -37.5h50v-296h-52c-136.667 0 -238.167 10 -304.5 30s-121.5 57 -165.5 111c-51.333 62.667 -77 158 -77 286zM609 1723v-133c-78 20 -166.667 34 -266 42
c28 -54.667 67 -101 117 -139h168v-124h-531v124h171c-50 54 -75 100.667 -75 140c0 71.333 76.667 107 230 107c63.333 0 125.333 -5.66699 186 -17z" />
    <glyph glyph-name="uniFEF9" unicode="&#xfef9;" horiz-adv-x="1190" arabic-form="isolated" 
d="M135 0l0.000976562 296c174.667 44.667 325 159 451 343c-104 218 -284 516.667 -540 896l-46 69h264c163.333 -224.667 312.666 -469 447.999 -733c14 96 21 189.333 21 280v527h259v-324c0 -158.667 -9.66699 -287.5 -29 -386.5s-54.666 -198.167 -105.999 -297.5
l34 -63c75.333 -140 113 -244.333 113 -313c0 -84 -28.333 -152 -85 -204c-38.667 -36 -82.334 -60 -131.001 -72s-127 -18 -235 -18h-418zM763.001 288c-18.667 44.667 -38.668 90 -60.001 136l-20 45c-56.667 -71.333 -123.667 -137.333 -201 -198h81
c66.667 0 133.334 5.66699 200.001 17zM653 -502v-154l-518 -134v153l242 62c-99.333 49.333 -149 107 -149 173c0 74 40.167 134.833 120.5 182.5s182.833 71.5 307.5 71.5v-146c-125.333 -8 -221.333 -42 -288 -102c80 -70.667 175 -106 285 -106z" />
    <glyph glyph-name="uniFEFA" unicode="&#xfefa;" horiz-adv-x="1559" arabic-form="final" 
d="M984 427l-73 -70c-76 -72.667 -124 -116.667 -144 -132l-212 -162l-80 -63h-518c250 140 466 273 648 399c-29.333 230 -82 429.167 -158 597.5s-205 370.833 -387 607.5h317c256 -340 404.667 -703 446 -1089c59.333 56 97 102.833 113 140.5s24 100.5 24 188.5v834h259
v-1162c0 -96.667 17.667 -157.5 53 -182.5s122.333 -37.5 261 -37.5h50v-296h-52c-136.667 0 -238.167 10 -304.5 30s-121.5 57 -165.5 111c-51.333 62.667 -77 158 -77 286zM776 -502v-154l-518 -134v153l242 62c-99.333 49.333 -149 107 -149 173
c0 74 40.167 134.833 120.5 182.5s182.833 71.5 307.5 71.5v-146c-125.333 -8 -221.333 -42 -288 -102c80 -70.667 175 -106 285 -106z" />
    <glyph glyph-name="uniFEFB" unicode="&#xfefb;" horiz-adv-x="1190" arabic-form="isolated" 
d="M135 0l0.000976562 296c174.667 44.667 325 159 451 343c-104 218 -284 516.667 -540 896l-46 69h264c163.333 -224.667 312.666 -469 447.999 -733c14 96 21 189.333 21 280v527h259v-324c0 -158.667 -9.66699 -287.5 -29 -386.5s-54.666 -198.167 -105.999 -297.5
l34 -63c75.333 -140 113 -244.333 113 -313c0 -84 -28.333 -152 -85 -204c-38.667 -36 -82.334 -60 -131.001 -72s-127 -18 -235 -18h-418zM763.001 288c-18.667 44.667 -38.668 90 -60.001 136l-20 45c-56.667 -71.333 -123.667 -137.333 -201 -198h81
c66.667 0 133.334 5.66699 200.001 17z" />
    <glyph glyph-name="uniFEFC" unicode="&#xfefc;" horiz-adv-x="1558" arabic-form="final" 
d="M984 427l-73 -70c-76 -72.667 -124 -116.667 -144 -132l-212 -162l-80 -63h-518c250 140 466 273 648 399c-29.333 230 -82 429.167 -158 597.5s-205 370.833 -387 607.5h317c256 -340 404.667 -703 446 -1089c59.333 56 97 102.833 113 140.5s24 100.5 24 188.5v834h259
v-1162c0 -96.667 17.667 -157.5 53 -182.5s122.333 -37.5 261 -37.5h50v-296h-52c-136.667 0 -238.167 10 -304.5 30s-121.5 57 -165.5 111c-51.333 62.667 -77 158 -77 286z" />
    <glyph glyph-name=".notdef" horiz-adv-x="1024" 
d="M877 0h-730v1552h730v-1552zM727 1402h-430v-1252h430v1252z" />
    <glyph glyph-name="space" unicode=" " horiz-adv-x="653" 
 />
    <glyph glyph-name="exclam" unicode="!" horiz-adv-x="642" 
d="M173 0v247h296v-247h-296zM222 419l-49 765v296h296v-296l-49 -765h-198z" />
    <glyph glyph-name="quotedbl" unicode="&#x22;" horiz-adv-x="925" 
d="M148 987l-49 592h296l-62 -592h-185zM592 987l-49 592h296l-61 -592h-186z" />
    <glyph glyph-name="numbersign" unicode="#" horiz-adv-x="1308" 
d="M185 0l107 426h-274l29 148h282l83 333h-298l29 148h306l107 425h152l-106 -425h262l106 425h153l-106 -425h273l-29 -148h-281l-84 -333h299l-30 -148h-306l-106 -426h-153l107 426h-263l-106 -426h-153zM481 574h263l83 333h-262z" />
    <glyph glyph-name="dollar" unicode="$" horiz-adv-x="1308" 
d="M586 -160l0.000976562 164.001c-111.333 0 -246.333 24.667 -405 74v218c148.667 -67.333 283.667 -104.333 405 -111v475l-51 35c-122.667 82.667 -205.334 152.5 -248.001 209.5s-64 126.167 -64 207.5c0 99.333 32.5 182 97.5 248s153.5 105.667 265.5 119v162h161
v-162c104.667 -5.33301 210.667 -26.333 318 -63v-201c-109.333 51.333 -215.333 81.666 -318 90.999v-448l45 -30c126 -80.667 211.167 -149.667 255.5 -207s66.5 -127.333 66.5 -210c0 -108 -32.833 -198.5 -98.5 -271.5s-155.167 -118.5 -268.5 -136.5v-163h-161z
M716.001 197.001c95.333 30 143 88.667 143 176c0 66.667 -47.667 134 -143 202v-378zM617.001 942.001v356.001c-92 -30.667 -138 -85.334 -138 -164.001c0 -69.333 46 -133.333 138 -192z" />
    <glyph glyph-name="percent" unicode="%" horiz-adv-x="1604" 
d="M120 -37l1164 1554h200l-1163 -1554h-201zM373 740c-107.333 0 -192.168 33.168 -254.501 99.501s-93.5 156.5 -93.5 270.5c0 115.333 31.333 205.833 94 271.5s148.667 98.5 258 98.5c108.667 0 194.334 -32.833 257.001 -98.5s94 -155.834 94 -270.501
c0 -116 -31.333 -206.833 -94 -272.5s-149.667 -98.5 -261 -98.5zM374.998 888.001c87.333 0 131 74.333 131 223c0 147.333 -43 221 -129 221c-86.667 0 -130 -74 -130 -222s42.667 -222 128 -222zM1224 0.000976562c-107.333 0 -192.166 33.168 -254.499 99.501
s-93.5 156.5 -93.5 270.5c0 115.333 31.333 205.833 94 271.5s148.667 98.5 258 98.5s195.166 -32.833 257.499 -98.5s93.5 -155.834 93.5 -270.501c0 -116.667 -31.333 -207.667 -94 -273s-149.667 -98 -261 -98zM1226 148.002c87.333 0 131 74.333 131 223
c0 147.333 -43 221 -129 221c-86.667 0 -130 -74 -130 -222s42.667 -222 128 -222z" />
    <glyph glyph-name="ampersand" unicode="&#x26;" horiz-adv-x="1525" 
d="M1417 0l-348 0.00195312l-66 79c-116.667 -77.333 -245 -116 -385 -116c-159.333 0 -290.833 44.667 -394.5 134s-155.5 202.666 -155.5 339.999c0 204 123 356.667 369 458c-70.667 124 -106 225.333 -106 304c0 90 39.167 165.667 117.5 227s175.5 92 291.5 92
c111.333 0 203 -29.5 275 -88.5s108 -134.167 108 -225.5c0 -142 -109 -263.667 -327 -365c84.667 -156.667 184.667 -304.667 300 -444c67.333 97.333 101 233 101 407v23h249c0 -218 -78.667 -411.333 -236 -580c65.333 -84.667 134.333 -166.334 207 -245.001z
M538 742.002c-122 -55.333 -183 -138.999 -183 -250.999c0 -94 30.5 -173.667 91.5 -239s135.5 -98 223.5 -98c77.333 0 149 23.333 215 70c-110 139.333 -213.667 291.666 -311 456.999zM703 977.003c115.333 61.333 173 135 173 221c0 89.333 -44 134 -132 134
s-132 -43 -132 -129c0 -58 30.333 -133.333 91 -226z" />
    <glyph glyph-name="quotesingle" unicode="'" horiz-adv-x="506" 
d="M161 962l-62 617h321l-74 -617h-185z" />
    <glyph glyph-name="parenleft" unicode="(" horiz-adv-x="759" 
d="M660 1591l0.000976562 -190.997c-177.333 -178.667 -266 -431.334 -266 -758.001c0 -327.333 88.667 -580.333 266 -759v-191c-162 87.333 -292 217.666 -390 390.999s-147 359.666 -147 558.999s48.167 384.333 144.5 555s227.166 302 392.499 394z" />
    <glyph glyph-name="parenright" unicode=")" horiz-adv-x="759" 
d="M99 -308l0.000976562 191c176.667 178.667 265 430.667 265 756c0 328.667 -88.333 582.334 -265 761.001v191c162 -86.667 292 -216.834 390 -390.501s147 -360.167 147 -559.5c0 -198.667 -48.333 -383.5 -145 -554.5s-227.334 -302.5 -392.001 -394.5z" />
    <glyph glyph-name="asterisk" unicode="*" horiz-adv-x="955" 
d="M545 1181l257 141.999l66 -205l-291 -36c1.33301 8.66699 2 15.334 2 20.001c0 28.667 -11.333 55 -34 79zM572 1064l214.001 -201l-175 -127l-124 266c37.333 7.33301 65.666 28 84.999 62zM468.001 1002l-125 -266l-174 127l214 201c18.667 -34 47 -54.667 85 -62z
M377.001 1082l-291 36.001l67 205l256 -142c-22 -24 -33 -50.333 -33 -79c0 -4.66699 0.333008 -11.334 1 -20.001zM369.001 1480h215.999l-55 -288c-18 8.66699 -35.667 13 -53 13s-34.666 -4.33301 -51.999 -13z" />
    <glyph glyph-name="plus" unicode="+" horiz-adv-x="1629" 
d="M728 0v506h-506v173h506v505h173v-505h505v-173h-505v-506h-173z" />
    <glyph glyph-name="comma" unicode="," horiz-adv-x="506" 
d="M216 0h-122.999v321h321v-249c0 -262 -107 -393 -321 -393v111c37.333 0 67.166 16.333 89.499 49s33.5 75.667 33.5 129v32z" />
    <glyph glyph-name="hyphen" unicode="-" horiz-adv-x="1185" 
d="M148 543v197h888v-197h-888z" />
    <glyph glyph-name="period" unicode="." horiz-adv-x="506" 
d="M93 0v321h321v-321h-321z" />
    <glyph glyph-name="slash" unicode="/" horiz-adv-x="1158" 
d="M222 -296l533 1776h180l-533 -1776h-180z" />
    <glyph glyph-name="zero" unicode="0" horiz-adv-x="1308" 
d="M647 -37c-168 0 -304.501 71.999 -409.501 215.999s-157.5 331 -157.5 561c0 232.667 52.667 420.334 158 563.001s244 214 416 214c170.667 0 308.834 -71.167 414.501 -213.5s158.5 -328.833 158.5 -559.5c0 -236.667 -52.833 -426 -158.5 -568
s-246.167 -213 -421.5 -213zM649.999 147.999c175.333 0 263 197.333 263 592s-86.333 592 -259 592s-259 -197 -259 -591c0 -395.333 85 -593 255 -593z" />
    <glyph glyph-name="one" unicode="1" horiz-adv-x="1308" 
d="M266 0v173h296v1092l-296 -74v178l593 148v-1344h296v-173h-889z" />
    <glyph glyph-name="two" unicode="2" horiz-adv-x="1308" 
d="M126 0l0.000976562 234l16 22c79.333 106 160.666 195.333 243.999 268l121 107c199.333 176 299 330.333 299 463c0 72.667 -23.333 129.5 -70 170.5s-111.334 61.5 -194.001 61.5c-108.667 0 -234.667 -36.667 -378 -110v217c150.667 56 296.334 84 437.001 84
c157.333 0 283.333 -37.167 378 -111.5s142 -173.833 142 -298.5c0 -86 -23 -164.333 -69 -235s-127 -152.667 -243 -246l-100 -80c-139.333 -112 -222 -216 -248 -312h654v-234h-989z" />
    <glyph glyph-name="three" unicode="3" horiz-adv-x="1308" 
d="M180 11l-0.00195312 222.001c146.667 -56.667 267.667 -85 363 -85c88.667 0 159.834 22.667 213.501 68s80.5 105.666 80.5 180.999c0 195.333 -143 293 -429 293h-91v177l77 1c136.667 0 237.834 21.5 303.501 64.5s98.5 109.167 98.5 198.5
c0 134 -82.667 201 -248 201c-108.667 0 -224.667 -27.667 -348 -83v202c130 44.667 267 67 411 67c152.667 0 272.167 -31.333 358.5 -94s129.5 -149.334 129.5 -260.001c0 -174.667 -109 -298 -327 -370c249.333 -57.333 374 -190.666 374 -399.999
c0 -132.667 -50 -237.667 -150 -315s-236 -116 -408 -116c-146 0 -282 16 -408 48z" />
    <glyph glyph-name="four" unicode="4" horiz-adv-x="1308" 
d="M765 0v395h-691v222l679 863h271v-863h173v-222h-173v-395h-259zM311 617h460v580z" />
    <glyph glyph-name="five" unicode="5" horiz-adv-x="1308" 
d="M233 6l-0.00195312 215c126 -48.667 231 -73 315 -73c84.667 0 151.834 25.167 201.501 75.5s74.5 118.5 74.5 204.5c0 102 -39.5 180.5 -118.5 235.5s-191.833 82.5 -338.5 82.5c-36 0 -72 -3 -108 -9v743h850v-234h-634l-15 -319c213.333 0 379.833 -43.667 499.5 -131
s179.5 -209.333 179.5 -366c0 -144.667 -52.333 -258.667 -157 -342s-248 -125 -430 -125c-77.333 0 -183.666 14.333 -318.999 43z" />
    <glyph glyph-name="six" unicode="6" horiz-adv-x="1308" 
d="M389 785c92.667 112 211.334 168 356.001 168c132 0 241.333 -43.5 328 -130.5s130 -196.833 130 -329.5c0 -155.333 -50 -282.5 -150 -381.5s-228.667 -148.5 -386 -148.5c-184 0 -327.667 65.5 -431 196.5s-155 313.167 -155 546.5c0 294.667 81 517.667 243 669
c102 95.333 245 143 429 143c100 0 224 -18 372 -54v-216c-134.667 56.667 -255.334 85 -362.001 85c-118.667 0 -210.667 -48 -276 -144s-98 -230.667 -98 -404zM907 444c0 100.667 -22.167 180.332 -66.5 238.999s-104.5 88 -180.5 88
c-72.667 0 -133.834 -26.667 -183.501 -80s-74.5 -119.333 -74.5 -198c0 -103.333 24.333 -186.666 73 -249.999s112.334 -95 191.001 -95c73.333 0 131.833 26.833 175.5 80.5s65.5 125.5 65.5 215.5z" />
    <glyph glyph-name="seven" unicode="7" horiz-adv-x="1308" 
d="M285 0c14 111.333 41.5 209.002 82.5 293.002s133.167 230.667 276.5 440l348 507h-770v240h1012v-240c-194 -244.667 -346 -476.834 -456 -696.501s-165 -400.834 -165 -543.501h-328z" />
    <glyph glyph-name="eight" unicode="8" horiz-adv-x="1308" 
d="M417 793c-142.667 94 -213.998 207.334 -213.998 340.001c0 114.667 45 207.5 135 278.5s208 106.5 354 106.5c137.333 0 247.166 -30.333 329.499 -91s123.5 -141.667 123.5 -243c0 -130.667 -83.333 -254.334 -250 -371.001c210.667 -110 316 -248.333 316 -415
c0 -130 -51.333 -235 -154 -315s-237.334 -120 -404.001 -120c-159.333 0 -287.833 36.667 -385.5 110s-146.5 170 -146.5 290c0 174 98.667 317.333 296 430zM741.002 897.001c98.667 76.667 148.001 158.668 148.001 246.001c0 57.333 -20.333 103.166 -61 137.499
s-94.334 51.5 -161.001 51.5c-62 0 -112.167 -15 -150.5 -45s-57.5 -69.333 -57.5 -118c0 -48 19 -90.167 57 -126.5s113 -84.833 225 -145.5zM563.003 694.002c-107.333 -89.333 -161.001 -183.667 -161.001 -283c0 -77.333 26.833 -141 80.5 -191s121.834 -75 204.501 -75
c72.667 0 133.5 19.667 182.5 59s73.5 88.333 73.5 147c0 50.667 -16.5 94 -49.5 130s-97.167 81 -192.5 135z" />
    <glyph glyph-name="nine" unicode="9" horiz-adv-x="1308" 
d="M187 11l-0.00195312 214c126 -51.333 243.667 -77 353 -77c116.667 0 208.834 48.5 276.501 145.5s101.5 229.167 101.5 396.5c-94 -112.667 -210 -169 -348 -169c-130 0 -239.333 45 -328 135s-133 201 -133 333c0 154 50.167 280.5 150.5 379.5
s228.5 148.5 384.5 148.5c182.667 0 325.834 -65 429.501 -195s155.5 -309.333 155.5 -538c0 -292.667 -82.333 -516.667 -247 -672c-106 -99.333 -253 -149 -441 -149c-91.333 0 -209.333 16 -354 48zM404.998 1035c0 -102.667 22.166 -183.668 66.499 -243.001
s104.5 -89 180.5 -89c72 0 132.667 27 182 81s74 120.333 74 199c0 104.667 -24.167 189 -72.5 253s-111.833 96 -190.5 96c-73.333 0 -131.666 -26.667 -174.999 -80s-65 -125.666 -65 -216.999z" />
    <glyph glyph-name="colon" unicode=":" horiz-adv-x="506" 
d="M105 0v296h296v-296h-296zM105 802v296h296v-296h-296z" />
    <glyph glyph-name="semicolon" unicode=";" horiz-adv-x="506" 
d="M216 0l-111 -0.000976562v296h296v-223c0 -121.333 -25 -215.166 -75 -281.499s-123.667 -103.833 -221 -112.5v111c74 21.333 111 81 111 179v31zM105 801.999v296h296v-296h-296z" />
    <glyph glyph-name="less" unicode="&#x3c;" horiz-adv-x="1629" 
d="M1406 0l-1184 592l1184 592v-193l-796 -398v-2l796 -398v-193z" />
    <glyph glyph-name="equal" unicode="=" horiz-adv-x="1629" 
d="M222 309v172h1184v-172h-1184zM222 703v173h1184v-173h-1184z" />
    <glyph glyph-name="greater" unicode="&#x3e;" horiz-adv-x="1629" 
d="M222 0v193l796 398v2l-796 398v193l1184 -592z" />
    <glyph glyph-name="question" unicode="?" horiz-adv-x="1018" 
d="M279 0v247h297v-247h-297zM576 419l-297.001 0.00195312v28c0 107.333 49.333 215.666 148 324.999l71 78c96 106 144 200.667 144 284c0 124 -78 186 -234 186c-100.667 0 -216 -29.667 -346 -89v226c132.667 40 262.334 60 389.001 60c158 0 282.833 -30.333 374.5 -91
s137.5 -143.334 137.5 -248.001c0 -96 -55 -196 -165 -300l-67 -64c-62.667 -59.333 -104.167 -109.5 -124.5 -150.5s-30.5 -94.167 -30.5 -159.5v-85z" />
    <glyph glyph-name="at" unicode="@" horiz-adv-x="1729" 
d="M1061 45c-116 -54.667 -232.331 -82.001 -348.998 -82.001c-190 0 -346.167 57.833 -468.5 173.5s-183.5 262.834 -183.5 441.501c0 224.667 81.333 430.334 244 617.001c87.333 100.667 192.166 179.5 314.499 236.5s247.5 85.5 375.5 85.5
c187.333 0 343.666 -59.5 468.999 -178.5s188 -267.833 188 -446.5c0 -168 -51 -309.333 -153 -424s-227.667 -172 -377 -172c-108.667 0 -163 36.333 -163 109c0 31.333 18.667 108 56 230h-21c-52 -99.333 -115.333 -180.666 -190 -243.999s-145 -95 -211 -95
c-119.333 0 -179 77 -179 231c0 158 53.833 305 161.5 441s224.167 204 349.5 204c16 0 37.667 -2 65 -6c40 -5.33301 83.667 -8 131 -8h134l-111 -558c-7.33301 -34.667 -11 -67 -11 -97c0 -45.333 25.667 -68 77 -68c79.333 0 151.333 46.167 216 138.5
s97 195.166 97 308.499c0 143.333 -50.833 263.5 -152.5 360.5s-227.167 145.5 -376.5 145.5c-230.667 0 -426 -90 -586 -270c-145.333 -163.333 -218 -342.333 -218 -537c0 -142.667 48.833 -259.834 146.5 -351.501s222.167 -137.5 373.5 -137.5
c103.333 0 206.333 24 309 72zM1011 823.999l38 186c-53.333 24.667 -100.666 37 -141.999 37c-77.333 0 -140 -30.333 -188 -91c-84.667 -108 -127 -235.667 -127 -383c0 -82 23.667 -123 71 -123c35.333 0 87.666 37.167 156.999 111.5s133 161.833 191 262.5z" />
    <glyph glyph-name="A" unicode="A" horiz-adv-x="1508" 
d="M23 0l576 1480h308l576 -1480h-316l-154 395h-612l-154 -395h-224zM477 592h460l-230 590z" />
    <glyph glyph-name="B" unicode="B" horiz-adv-x="1290" 
d="M185 0l-0.000976562 1480h503c148.667 0 261.834 -28 339.501 -84s116.5 -137.667 116.5 -245c0 -178 -118.333 -304 -355 -378c276.667 -67.333 415 -203 415 -407c0 -118 -40.5 -208.5 -121.5 -271.5s-197.167 -94.5 -348.5 -94.5h-549zM480.999 864h67
c86.667 0 155.5 21.333 206.5 64s76.5 100.667 76.5 174c0 68 -20.5 114.167 -61.5 138.5s-118.5 36.5 -232.5 36.5h-56v-413zM480.999 210h60c129.333 0 218.5 13.833 267.5 41.5s73.5 78.167 73.5 151.5c0 75.333 -32.833 138 -98.5 188s-148.5 75 -248.5 75h-54v-456z
" />
    <glyph glyph-name="C" unicode="C" horiz-adv-x="1459" 
d="M1376 59c-143.333 -64 -314.332 -96 -512.999 -96c-242.667 0 -431.667 68.333 -567 205s-203 327.334 -203 572.001c0 249.333 68.167 441.166 204.5 575.499s330.833 201.5 583.5 201.5c161.333 0 321.666 -19 480.999 -57v-241c-180.667 63.333 -332 95 -454 95
c-156 0 -276.333 -49.5 -361 -148.5s-127 -239.5 -127 -421.5c0 -178.667 45.5 -318 136.5 -418s217.5 -150 379.5 -150c145.333 0 292 36.667 440 110v-227z" />
    <glyph glyph-name="D" unicode="D" horiz-adv-x="1624" 
d="M185 0v1480h637c229.333 0 405 -60.833 527 -182.5s183 -297.167 183 -526.5c0 -244 -64.667 -433.5 -194 -568.5s-310.333 -202.5 -543 -202.5h-610zM493 210l230 -0.000976562c178.667 0 303.667 50.333 375 151c71.333 100 107 230.667 107 392
c0 141.333 -32 259 -96 353c-44 64.667 -97 109.334 -159 134.001s-152.333 37 -271 37h-186v-1067z" />
    <glyph glyph-name="E" unicode="E" horiz-adv-x="1230" 
d="M185 0v1480h925v-203h-617v-413h506v-204h-506v-450h664v-210h-972z" />
    <glyph glyph-name="F" unicode="F" horiz-adv-x="1176" 
d="M185 0v1480h931v-203h-623v-450h512v-204h-512v-623h-308z" />
    <glyph glyph-name="G" unicode="G" horiz-adv-x="1527" 
d="M1367 35c-185.333 -48 -345.331 -72 -479.998 -72c-255.333 0 -451.5 67.167 -588.5 201.5s-205.5 326.833 -205.5 577.5c0 248.667 68.5 440 205.5 574s332.167 201 585.5 201c162 0 322.667 -19 482 -57v-241c-184.667 63.333 -336.334 95 -455.001 95
c-156.667 0 -277.667 -50 -363 -150s-128 -241.667 -128 -425c0 -177.333 45.667 -316.5 137 -417.5s217.333 -151.5 378 -151.5c35.333 0 76.666 5 123.999 15v487h308v-637z" />
    <glyph glyph-name="H" unicode="H" horiz-adv-x="1598" 
d="M185 0v1480h308v-601h612v601h308v-1480h-308v675h-612v-675h-308z" />
    <glyph glyph-name="I" unicode="I" horiz-adv-x="679" 
d="M185 0v1480h308v-1480h-308z" />
    <glyph glyph-name="J" unicode="J" horiz-adv-x="857" 
d="M-68 -260l-2.00098 220c80 -31.333 162.333 -47 247 -47c70.667 0 119.334 19.667 146.001 59s40 110 40 212v1296h309v-1263c0 -182 -37 -313 -111 -393s-195 -120 -363 -120c-84 0 -172.667 12 -266 36z" />
    <glyph glyph-name="K" unicode="K" horiz-adv-x="1454" 
d="M185 0v1480h296v-718l566 718h256l-513 -664l637 -816h-385l-561 728v-728h-296z" />
    <glyph glyph-name="L" unicode="L" horiz-adv-x="1191" 
d="M185 0v1480h308v-1270h667v-210h-975z" />
    <glyph glyph-name="M" unicode="M" horiz-adv-x="1859" 
d="M185 0v1480h408l356 -1041l367 1041h358v-1480h-284v1117l-361 -1018h-248l-354 1033v-1132h-242z" />
    <glyph glyph-name="N" unicode="N" horiz-adv-x="1574" 
d="M185 0v1480h271l686 -1011v1011h247v-1480h-276l-681 1011v-1011h-247z" />
    <glyph glyph-name="O" unicode="O" horiz-adv-x="1686" 
d="M834 -37c-224.667 0 -404.334 70.667 -539.001 212s-202 329.666 -202 564.999c0 238 67.667 427 203 567s318 210 548 210c228.667 0 410.834 -70 546.501 -210s203.5 -328 203.5 -564c0 -241.333 -67.833 -431.666 -203.5 -570.999s-321.167 -209 -556.5 -209zM838 167
c132 0 236.499 51.833 313.499 155.5s115.5 244.167 115.5 421.5c0 172 -38.667 310 -116 414s-179.666 156 -306.999 156c-128.667 0 -231.5 -52 -308.5 -156s-115.5 -243 -115.5 -417c0 -172.667 38.333 -311.5 115 -416.5s177.667 -157.5 303 -157.5z" />
    <glyph glyph-name="P" unicode="P" horiz-adv-x="1256" 
d="M185 0v1480h516c180 0 308.5 -30.167 385.5 -90.5s115.5 -161.166 115.5 -302.499c0 -160 -51.5 -284.5 -154.5 -373.5s-247.167 -133.5 -432.5 -133.5h-128v-580h-302zM487 782.999h60c105.333 0 188.5 24.5 249.5 73.5s91.5 115.5 91.5 199.5
c0 147.333 -93.667 221 -281 221h-120v-494z" />
    <glyph glyph-name="Q" unicode="Q" horiz-adv-x="1687" 
d="M1589 -296c-265.333 70 -481.333 158 -648 264c-48.667 -3.33301 -84.667 -5 -108 -5c-224 0 -403.333 70.667 -538 212s-202 329.666 -202 564.999c0 238 67.667 427 203 567s318 210 548 210s412.5 -70.167 547.5 -210.5s202.5 -330.166 202.5 -569.499
c0 -336 -131.667 -570.333 -395 -703c194 -66.667 390.667 -110.667 590 -132zM839 167c131.333 0 235.5 51.668 312.5 155.001s115.5 243.666 115.5 420.999c0 172.667 -38.5 311 -115.5 415s-179.5 156 -307.5 156c-128.667 0 -231.5 -52 -308.5 -156
s-115.5 -243 -115.5 -417c0 -172.667 38.333 -311.5 115 -416.5s178 -157.5 304 -157.5z" />
    <glyph glyph-name="R" unicode="R" horiz-adv-x="1413" 
d="M185 0v1480h554c146.667 0 258.5 -31.167 335.5 -93.5s115.5 -153.5 115.5 -273.5c0 -91.333 -25.5 -174.5 -76.5 -249.5s-121.167 -132.5 -210.5 -172.5l484 -691h-375l-367 605h-170v-605h-290zM475 808h71c223.333 0 335 90.333 335 271c0 132 -99.667 198 -299 198
h-107v-469z" />
    <glyph glyph-name="S" unicode="S" horiz-adv-x="1170" 
d="M102 13l0.00195312 254.002c159.333 -66.667 295.666 -100 408.999 -100c79.333 0 141.833 17.667 187.5 53s68.5 83.333 68.5 144c0 48 -14.333 88.5 -43 121.5s-83 72.167 -163 117.5l-99 55c-132.667 74.667 -226.334 146.167 -281.001 214.5s-82 148.166 -82 239.499
c0 122 44.833 220 134.5 294s208.167 111 355.5 111c118 0 251 -17 399 -51v-237c-151.333 56.667 -271 85 -359 85c-68 0 -122.5 -15.167 -163.5 -45.5s-61.5 -70.166 -61.5 -119.499c0 -40.667 14.333 -76.334 43 -107.001s82.667 -68.334 162 -113.001l106 -59
c142.667 -80 241 -153.667 295 -221s81 -149.333 81 -246c0 -137.333 -51 -245 -153 -323s-242.667 -117 -422 -117c-118.667 0 -256.667 16.667 -414 50z" />
    <glyph glyph-name="T" unicode="T" horiz-adv-x="1413" 
d="M552 0v1277h-530v203h1369v-203h-530v-1277h-309z" />
    <glyph glyph-name="U" unicode="U" horiz-adv-x="1508" 
d="M173 1480l308 0.000976562v-907c0 -143.333 23.667 -246.833 71 -310.5s123.666 -95.5 228.999 -95.5c100.667 0 173.5 30.333 218.5 91s67.5 158.334 67.5 293.001v929h268v-909c0 -136.667 -13 -240.834 -39 -312.501s-73.333 -133.834 -142 -186.501
c-94 -72.667 -220.333 -109 -379 -109c-170 0 -306.667 38.667 -410 116c-71.333 53.333 -121.166 116.5 -149.499 189.5s-42.5 174.833 -42.5 305.5v906z" />
    <glyph glyph-name="V" unicode="V" horiz-adv-x="1431" 
d="M572 0l-547 1480h329l424 -1145l410 1145h222l-529 -1480h-309z" />
    <glyph glyph-name="W" unicode="W" horiz-adv-x="1851" 
d="M390 0l-369 1480h291l270 -1083l255 1083h257l242 -1077l284 1077h213l-388 -1480h-294l-228 1015l-239 -1015h-294z" />
    <glyph glyph-name="X" unicode="X" horiz-adv-x="1366" 
d="M49 0l474 729l-453 751h359l301 -498l326 498h249l-454 -698l470 -782h-358l-321 529l-344 -529h-249z" />
    <glyph glyph-name="Y" unicode="Y" horiz-adv-x="1406" 
d="M537 0v620l-497 860h340l361 -625l377 625h244l-517 -858v-622h-308z" />
    <glyph glyph-name="Z" unicode="Z" horiz-adv-x="1320" 
d="M106 0v210l736 1067h-694v203h1052v-203l-736 -1067h736v-210h-1094z" />
    <glyph glyph-name="bracketleft" unicode="[" horiz-adv-x="759" 
d="M197 -296v1875h463v-173h-216v-1529h216v-173h-463z" />
    <glyph glyph-name="backslash" unicode="\" horiz-adv-x="1158" 
d="M935 -296h-180l-533 1776h180z" />
    <glyph glyph-name="bracketright" unicode="]" horiz-adv-x="759" 
d="M562 -296h-463v173h216v1529h-216v173h463v-1875z" />
    <glyph glyph-name="asciicircum" unicode="^" horiz-adv-x="1357" 
d="M1270 395h-193l-398 796h-2l-398 -796h-193l592 1184z" />
    <glyph glyph-name="underscore" unicode="_" horiz-adv-x="1024" 
d="M0 -173v173h1024v-173h-1024z" />
    <glyph glyph-name="grave" unicode="`" horiz-adv-x="1308" 
d="M867 1283h-191l-321 321h271z" />
    <glyph glyph-name="a" unicode="a" horiz-adv-x="1204" 
d="M723 118c-98.667 -95.333 -204.333 -143 -317 -143c-96 0 -174 29.333 -234 88s-90 134.667 -90 228c0 121.333 48.5 214.833 145.5 280.5s235.833 98.5 416.5 98.5h79v100c0 114 -65 171 -195 171c-115.333 0 -232 -32.667 -350 -98v204c134 50.667 266.667 76 398 76
c287.333 0 431 -114.333 431 -343v-486c0 -86 26.333 -129 79 -129c12 0 28.667 3.66699 50 11v-173c-62.667 -18.667 -118 -28 -166 -28c-121.333 0 -199.333 47.667 -234 143h-13zM723.001 277l-0.000976562 223.001h-70c-89.333 0 -159.5 -16 -210.5 -48
s-76.5 -76 -76.5 -132c0 -40.667 13.833 -74.834 41.5 -102.501s61.834 -41.5 102.501 -41.5c69.333 0 140.333 33.667 213 101z" />
    <glyph glyph-name="b" unicode="b" horiz-adv-x="1357" 
d="M185 0l0.000976562 1579h296v-688c76 154.667 195.667 232 359 232c132 0 235.833 -48.333 311.5 -145s113.5 -229.667 113.5 -399c0 -183.333 -42.667 -329.833 -128 -439.5s-199.333 -164.5 -342 -164.5c-122.667 0 -227.334 45.333 -314.001 136l-55 -111h-241z
M481.001 287c72 -80 148.667 -119.999 230 -119.999c72.667 0 130.667 35.167 174 105.5s65 164.166 65 281.499c0 224.667 -72.333 337 -217 337c-87.333 0 -171.333 -56.333 -252 -169v-435z" />
    <glyph glyph-name="c" unicode="c" horiz-adv-x="1090" 
d="M995 24c-122.667 -32.667 -236.333 -49 -341 -49c-175.333 0 -313.833 51.5 -415.5 154.5s-152.5 243.167 -152.5 420.5c0 179.333 52.333 319.666 157 420.999s249.334 152 434.001 152c89.333 0 192.333 -14.333 309 -43v-214c-121.333 39.333 -218.333 59 -291 59
c-88.667 0 -160 -34 -214 -102s-81 -158.333 -81 -271c0 -115.333 29.167 -207.666 87.5 -276.999s136.166 -104 233.499 -104c88.667 0 180 19.333 274 58v-205z" />
    <glyph glyph-name="d" unicode="d" horiz-adv-x="1357" 
d="M876 0v207c-76 -154.667 -195.667 -232 -359 -232c-132 0 -235.667 48.333 -311 145s-113 229.667 -113 399c0 184 42.5 330.667 127.5 440s199.167 164 342.5 164c114.667 0 219 -45.333 313 -136v592h297v-1579h-297zM876 811c-71.333 80 -147.667 120 -229 120
c-72.667 0 -130.667 -35 -174 -105s-65 -164 -65 -282c0 -224.667 72 -337 216 -337c88 0 172 56.333 252 169v435z" />
    <glyph glyph-name="e" unicode="e" horiz-adv-x="1200" 
d="M1079 37c-140.667 -41.333 -274 -62.001 -400 -62.001c-183.333 0 -328 52 -434 156s-159 246 -159 426c0 170 48.5 306.833 145.5 410.5s225.167 155.5 384.5 155.5c160.667 0 278 -50.667 352 -152s111 -261.666 111 -480.999h-681c20 -209.333 135 -314 345 -314
c99.333 0 211.333 23 336 69v-208zM394 656.999h394c0 187.333 -60.333 281 -181 281c-122.667 0 -193.667 -93.667 -213 -281z" />
    <glyph glyph-name="f" unicode="f" horiz-adv-x="849" 
d="M216 0v913.001h-151v185h151v79c0 284.667 135 427 405 427c87.333 0 177.333 -12.667 270 -38v-200c-84 35.333 -159.333 53 -226 53c-56 0 -95.5 -17.333 -118.5 -52s-34.5 -94.334 -34.5 -179.001v-90h278v-185h-278v-913h-296z" />
    <glyph glyph-name="g" unicode="g" horiz-adv-x="1351" 
d="M193 -341l24.001 214.998c122 -56 238.333 -84 349 -84c109.333 0 188.333 23.333 237 70s73 122.334 73 227.001v150c-72 -158 -191 -237 -357 -237c-130.667 0 -234.334 48.833 -311.001 146.5s-115 229.834 -115 396.501c0 175.333 43 315.833 129 421.5
s200.333 158.5 343 158.5c112 0 215.667 -45.333 311 -136l31 111h266v-838c0 -167.333 -10.167 -288 -30.5 -362s-59.833 -137 -118.5 -189c-98.667 -85.333 -237.667 -128 -417 -128c-127.333 0 -265.333 26 -414 78zM876.001 408.998v405
c-71.333 80.667 -146 121 -224 121c-74.667 0 -134 -34 -178 -102s-66 -159.333 -66 -274c0 -214.667 69 -322 207 -322c95.333 0 182.333 57.333 261 172z" />
    <glyph glyph-name="h" unicode="h" horiz-adv-x="1345" 
d="M185 0l-0.000976562 1579h296v-688c96.667 154.667 221.334 232 374.001 232c98 0 175.333 -31 232 -93s85 -146.667 85 -254v-776h-296v703c0 124.667 -41.333 187 -124 187c-94 0 -184.333 -66.333 -271 -199v-691h-296z" />
    <glyph glyph-name="i" unicode="i" horiz-adv-x="666" 
d="M185 0v1098h296v-1098h-296zM185 1283v247h296v-247h-296z" />
    <glyph glyph-name="j" unicode="j" horiz-adv-x="682" 
d="M-179 -373l0.000976562 197.999c86 -39.333 159.667 -59 221 -59c57.333 0 98.166 17.833 122.499 53.5s36.5 95.834 36.5 180.501v1098h296v-1078c0 -153.333 -34.167 -265 -102.5 -335s-177.5 -105 -327.5 -105c-66.667 0 -148.667 15.667 -246 47zM201.001 1283v247
h296v-247h-296z" />
    <glyph glyph-name="k" unicode="k" horiz-adv-x="1296" 
d="M185 0v1579h296v-993h19l391 512h246l-361 -470l474 -628h-360l-390 549h-19v-549h-296z" />
    <glyph glyph-name="l" unicode="l" horiz-adv-x="666" 
d="M185 0v1579h296v-1579h-296z" />
    <glyph glyph-name="m" unicode="m" horiz-adv-x="1986" 
d="M185 0v1098h284v-207c86.667 154.667 210 232 370 232c82.667 0 150.667 -20.333 204 -61s86 -97.667 98 -171c102.667 154.667 226.667 232 372 232c200.667 0 301 -110.667 301 -332v-791h-284v694c0 130 -43.333 195 -130 195c-88.667 0 -175 -64 -259 -192v-697h-284
v694c0 130.667 -43.667 196 -131 196s-173 -64.333 -257 -193v-697h-284z" />
    <glyph glyph-name="n" unicode="n" horiz-adv-x="1345" 
d="M185 0l-0.000976562 1098h296v-207c96.667 154.667 221.334 232 374.001 232c98 0 175.333 -31 232 -93s85 -146.667 85 -254v-776h-296v703c0 124.667 -41.333 187 -124 187c-94 0 -184.333 -66.333 -271 -199v-691h-296z" />
    <glyph glyph-name="o" unicode="o" horiz-adv-x="1308" 
d="M646 -25c-171.333 0 -307.501 51.833 -408.501 155.5s-151.5 243.167 -151.5 418.5c0 177.333 50.833 317.333 152.5 420s239.834 154 414.501 154c175.333 0 313.833 -51.333 415.5 -154s152.5 -242 152.5 -418c0 -180 -51 -321 -153 -423s-242.667 -153 -422 -153z
M650.999 160c80 0 142.5 34.501 187.5 103.501s67.5 164.833 67.5 287.5c0 119.333 -22.5 213.666 -67.5 282.999s-106.833 104 -185.5 104c-78 0 -139.5 -34.667 -184.5 -104s-67.5 -164.333 -67.5 -285c0 -119.333 22.333 -214 67 -284s105.667 -105 183 -105z" />
    <glyph glyph-name="p" unicode="p" horiz-adv-x="1357" 
d="M185 -395l-0.00195312 1493h296v-207c76 154.667 195.667 232 359 232c132 0 235.833 -48.333 311.5 -145s113.5 -229.667 113.5 -399c0 -184 -42.667 -330.667 -128 -440s-199.666 -164 -342.999 -164c-115.333 0 -219.666 45.333 -312.999 136v-506h-296zM480.998 287
c72 -80 148.667 -119.999 230 -119.999c72.667 0 130.667 35.167 174 105.5s65 164.166 65 281.499c0 224.667 -72.333 337 -217 337c-87.333 0 -171.333 -56.333 -252 -169v-435z" />
    <glyph glyph-name="q" unicode="q" horiz-adv-x="1357" 
d="M876 -395v602c-76 -154.667 -195.667 -232 -359 -232c-132 0 -235.667 48.333 -311 145s-113 229.667 -113 399c0 184 42.5 330.667 127.5 440s199.167 164 342.5 164c114.667 0 219 -45.333 313 -136l37 111h260v-1493h-297zM876 811c-71.333 80 -147.667 120 -229 120
c-72.667 0 -130.667 -35 -174 -105s-65 -164 -65 -282c0 -224.667 72 -337 216 -337c88 0 172 56.333 252 169v435z" />
    <glyph glyph-name="r" unicode="r" horiz-adv-x="931" 
d="M185 0l-0.000976562 1098h296v-207c76.667 154.667 193.334 232 350.001 232c18.667 0 37 -2 55 -6v-264c-42 15.333 -81 23 -117 23c-118 0 -214 -59.667 -288 -179v-697h-296z" />
    <glyph glyph-name="s" unicode="s" horiz-adv-x="1158" 
d="M156 35l0.00195312 216.998c146.667 -61.333 272 -92 376 -92c121.333 0 182 41.333 182 124c0 53.333 -50 100 -150 140l-100 40c-108.667 44 -186.334 91.333 -233.001 142s-70 113.334 -70 188.001c0 104 39.667 184.833 119 242.5s190.333 86.5 333 86.5
c89.333 0 195.666 -13 318.999 -39v-208c-118.667 41.333 -217 62 -295 62c-122.667 0 -184 -38 -184 -114c0 -50 45.333 -92.333 136 -127l86 -33c128.667 -48.667 218.167 -98 268.5 -148s75.5 -114.333 75.5 -193c0 -103.333 -42.833 -187.166 -128.5 -251.499
s-197.167 -96.5 -334.5 -96.5c-132 0 -265.333 20 -400 60z" />
    <glyph glyph-name="t" unicode="t" horiz-adv-x="830" 
d="M751 6c-70.667 -20.667 -126.332 -30.999 -166.999 -30.999c-134 0 -231.667 28.667 -293 86s-92 148.666 -92 273.999v578h-123v185h123v185l296 34v-219h235v-185h-235v-539c0 -134.667 55 -202 165 -202c25.333 0 55.666 4.66699 90.999 14v-180z" />
    <glyph glyph-name="u" unicode="u" horiz-adv-x="1345" 
d="M864 0v207c-96 -154.667 -220.667 -232 -374 -232c-98 0 -175.333 31 -232 93s-85 146.667 -85 254v776h296v-703c0 -124.667 41.667 -187 125 -187c93.333 0 183.333 66.333 270 199v691h296v-1098h-296z" />
    <glyph glyph-name="v" unicode="v" horiz-adv-x="1215" 
d="M456 0l-419 1098h312l307 -792l305 792h214l-423 -1098h-296z" />
    <glyph glyph-name="w" unicode="w" horiz-adv-x="1767" 
d="M379 0l-305 1098h275l216 -769l230 769h256l207 -773l233 773h206l-326 -1098h-284l-200 753l-224 -753h-284z" />
    <glyph glyph-name="x" unicode="x" horiz-adv-x="1210" 
d="M68 0l377 551l-361 547h337l236 -348l226 348h240l-344 -539l369 -559h-337l-246 363l-252 -363h-245z" />
    <glyph glyph-name="y" unicode="y" horiz-adv-x="1194" 
d="M189 -395l249 395l-407 1098h318l272 -734l323 734h225l-678 -1493h-302z" />
    <glyph glyph-name="z" unicode="z" horiz-adv-x="1210" 
d="M123 0v197l614 716h-586v185h936v-185l-614 -716h626v-197h-976z" />
    <glyph glyph-name="braceleft" unicode="{" horiz-adv-x="759" 
d="M99 740l49 -0.000976562c92 0 138 43.333 138 130c0 46.667 -6.33301 94.334 -19 143.001l-23 92c-14.667 59.333 -22 116 -22 170c0 94.667 36.667 169 110 223s174.666 81 303.999 81v-173c-62.667 -4 -106 -15.167 -130 -33.5s-36 -49.833 -36 -94.5
c0 -19.333 3.33301 -49.333 10 -90l15 -85c7.33301 -46 11 -93.333 11 -142c0 -136.667 -65.667 -243 -197 -319c131.333 -77.333 197 -184 197 -320c0 -48.667 -3.66699 -96 -11 -142l-15 -85c-6.66699 -40.667 -10 -70.667 -10 -90c0 -44.667 12 -76.167 36 -94.5
s67.333 -29.5 130 -33.5v-173c-129.333 0 -230.666 27 -303.999 81s-110 128.333 -110 223c0 54 7.33301 110.667 22 170l23 92c12.667 48.667 19 96.667 19 144c0 86 -46 129 -138 129h-49v197z" />
    <glyph glyph-name="bar" unicode="|" horiz-adv-x="790" 
d="M308 -296v1875h173v-1875h-173z" />
    <glyph glyph-name="braceright" unicode="}" horiz-adv-x="759" 
d="M636 740l0.00195312 -196.999h-50c-91.333 0 -137 -43.333 -137 -130c0 -46.667 6 -94.334 18 -143.001l23 -92c15.333 -59.333 23 -116 23 -170c0 -94.667 -36.833 -169 -110.5 -223s-174.834 -81 -303.501 -81v173c62.667 4 106 15.167 130 33.5s36 49.833 36 94.5
c0 19.333 -3.33301 49.333 -10 90l-15 85c-7.33301 46 -11 93.333 -11 142c0 136 65.333 242.667 196 320c-130.667 76 -196 182.333 -196 319c0 48.667 3.66699 96 11 142l15 85c6.66699 40.667 10 70.667 10 90c0 44.667 -12 76.167 -36 94.5s-67.333 29.5 -130 33.5v173
c129.333 0 230.666 -27 303.999 -81s110 -128.333 110 -223c0 -54 -7.66699 -110.667 -23 -170l-23 -92c-12 -48.667 -18 -96.667 -18 -144c0 -86 45.667 -129 137 -129h50z" />
    <glyph glyph-name="asciitilde" unicode="~" horiz-adv-x="1308" 
d="M111 419c0 114.667 24.333 204.667 73 270s116 98 202 98c55.333 0 136 -27.333 242 -82l120 -63l98 -52c22.667 -10.667 46 -16 70 -16c32 0 58 15.667 78 47s30 72 30 122v16h173c0 -116 -24 -206.667 -72 -272s-114.667 -98 -200 -98c-57.333 0 -142.333 29 -255 87
l-123 63l-93 49c-20 9.33301 -40 14 -60 14c-73.333 0 -110 -61 -110 -183h-173z" />
    <glyph glyph-name="quotesinglbase" horiz-adv-x="506" 
d="M216 0h-122.999v321h321v-249c0 -262 -107 -393 -321 -393v111c37.333 0 67.166 16.333 89.499 49s33.5 75.667 33.5 129v32z" />
    <glyph glyph-name="quotesinglbase" unicode="&#x201a;" horiz-adv-x="506" 
d="M216 0h-122.999v321h321v-249c0 -262 -107 -393 -321 -393v111c37.333 0 67.166 16.333 89.499 49s33.5 75.667 33.5 129v32z" />
    <glyph glyph-name="florin" horiz-adv-x="1308" 
d="M219 -296l197.999 993h-149v185h185l20 90c78 363.333 268.333 545 571 545c80 0 151.333 -6 214 -18v-204c-82 25.333 -154 38 -216 38c-133.333 0 -217.666 -91.333 -252.999 -274l-34 -177h177v-185h-214l-197 -993h-302z" />
    <glyph glyph-name="florin" unicode="&#x192;" horiz-adv-x="1308" 
d="M219 -296l197.999 993h-149v185h185l20 90c78 363.333 268.333 545 571 545c80 0 151.333 -6 214 -18v-204c-82 25.333 -154 38 -216 38c-133.333 0 -217.666 -91.333 -252.999 -274l-34 -177h177v-185h-214l-197 -993h-302z" />
    <glyph glyph-name="quotedblbase" horiz-adv-x="925" 
d="M204 0l-111 -0.000976562v296h296v-223c0 -121.333 -25 -215.166 -75 -281.499s-123.667 -103.833 -221 -112.5v111c74 21.333 111 81 111 179v31zM648 -0.000976562l-111 -0.000976562v296h296v-223c0 -121.333 -25 -215.166 -75 -281.499
s-123.667 -103.833 -221 -112.5v111c74 21.333 111 81 111 179v31z" />
    <glyph glyph-name="quotedblbase" unicode="&#x201e;" horiz-adv-x="925" 
d="M204 0l-111 -0.000976562v296h296v-223c0 -121.333 -25 -215.166 -75 -281.499s-123.667 -103.833 -221 -112.5v111c74 21.333 111 81 111 179v31zM648 -0.000976562l-111 -0.000976562v296h296v-223c0 -121.333 -25 -215.166 -75 -281.499
s-123.667 -103.833 -221 -112.5v111c74 21.333 111 81 111 179v31z" />
    <glyph glyph-name="ellipsis" unicode="&#x85;" horiz-adv-x="2048" 
d="M181 0v321h321v-321h-321zM864 0v321h320v-321h-320zM1546 0v321h321v-321h-321z" />
    <glyph glyph-name="ellipsis" unicode="&#x2026;" horiz-adv-x="2048" 
d="M181 0v321h321v-321h-321zM864 0v321h320v-321h-320zM1546 0v321h321v-321h-321z" />
    <glyph glyph-name="dagger" horiz-adv-x="1308" 
d="M506 -296l25 1098l-352 -25v222l352 -24l-25 505h296l-25 -505l352 24v-222l-352 25l25 -1098h-296z" />
    <glyph glyph-name="dagger" unicode="&#x2020;" horiz-adv-x="1308" 
d="M506 -296l25 1098l-352 -25v222l352 -24l-25 505h296l-25 -505l352 24v-222l-352 25l25 -1098h-296z" />
    <glyph glyph-name="daggerdbl" horiz-adv-x="1308" 
d="M506 -296l25 506l-352 -25v222l352 -25v420l-352 -25v222l352 -24l-25 505h296l-25 -505l352 24v-222l-352 25v-420l352 25v-222l-352 25l25 -506h-296z" />
    <glyph glyph-name="daggerdbl" unicode="&#x2021;" horiz-adv-x="1308" 
d="M506 -296l25 506l-352 -25v222l352 -25v420l-352 -25v222l352 -24l-25 505h296l-25 -505l352 24v-222l-352 25v-420l352 25v-222l-352 25l25 -506h-296z" />
    <glyph glyph-name="circumflex" horiz-adv-x="1308" 
d="M276 1283l241 321h273l241 -321h-179l-198 197h-2l-197 -197h-179z" />
    <glyph glyph-name="circumflex" unicode="&#x2c6;" horiz-adv-x="1308" 
d="M276 1283l241 321h273l241 -321h-179l-198 197h-2l-197 -197h-179z" />
    <glyph glyph-name="perthousand" horiz-adv-x="2381" 
d="M120 -37l1164 1554h200l-1163 -1554h-201zM373 740c-107.333 0 -192.168 33.168 -254.501 99.501s-93.5 156.5 -93.5 270.5c0 115.333 31.333 205.833 94 271.5s148.667 98.5 258 98.5c108.667 0 194.334 -32.833 257.001 -98.5s94 -155.834 94 -270.501
c0 -116 -31.333 -206.833 -94 -272.5s-149.667 -98.5 -261 -98.5zM374.998 888.001c87.333 0 131 74.333 131 223c0 147.333 -43 221 -129 221c-86.667 0 -130 -74 -130 -222s42.667 -222 128 -222zM1224 0.000976562c-107.333 0 -192.166 33.168 -254.499 99.501
s-93.5 156.5 -93.5 270.5c0 115.333 31.333 205.833 94 271.5s148.667 98.5 258 98.5s195.166 -32.833 257.499 -98.5s93.5 -155.834 93.5 -270.501c0 -116.667 -31.333 -207.667 -94 -273s-149.667 -98 -261 -98zM1226 148.002c87.333 0 131 74.333 131 223
c0 147.333 -43 221 -129 221c-86.667 0 -130 -74 -130 -222s42.667 -222 128 -222zM2001 0.00195312c-107.333 0 -191.999 33.168 -253.999 99.501s-93 156.5 -93 270.5c0 115.333 31.167 205.833 93.5 271.5s148.166 98.5 257.499 98.5s195.333 -32.833 258 -98.5
s94 -155.834 94 -270.501c0 -116.667 -31.5 -207.667 -94.5 -273s-150.167 -98 -261.5 -98zM2003 148.003c88 0 132 74.333 132 223c0 147.333 -43.333 221 -130 221c-86 0 -129 -74 -129 -222s42.333 -222 127 -222z" />
    <glyph glyph-name="perthousand" unicode="&#x2030;" horiz-adv-x="2381" 
d="M120 -37l1164 1554h200l-1163 -1554h-201zM373 740c-107.333 0 -192.168 33.168 -254.501 99.501s-93.5 156.5 -93.5 270.5c0 115.333 31.333 205.833 94 271.5s148.667 98.5 258 98.5c108.667 0 194.334 -32.833 257.001 -98.5s94 -155.834 94 -270.501
c0 -116 -31.333 -206.833 -94 -272.5s-149.667 -98.5 -261 -98.5zM374.998 888.001c87.333 0 131 74.333 131 223c0 147.333 -43 221 -129 221c-86.667 0 -130 -74 -130 -222s42.667 -222 128 -222zM1224 0.000976562c-107.333 0 -192.166 33.168 -254.499 99.501
s-93.5 156.5 -93.5 270.5c0 115.333 31.333 205.833 94 271.5s148.667 98.5 258 98.5s195.166 -32.833 257.499 -98.5s93.5 -155.834 93.5 -270.501c0 -116.667 -31.333 -207.667 -94 -273s-149.667 -98 -261 -98zM1226 148.002c87.333 0 131 74.333 131 223
c0 147.333 -43 221 -129 221c-86.667 0 -130 -74 -130 -222s42.667 -222 128 -222zM2001 0.00195312c-107.333 0 -191.999 33.168 -253.999 99.501s-93 156.5 -93 270.5c0 115.333 31.167 205.833 93.5 271.5s148.166 98.5 257.499 98.5s195.333 -32.833 258 -98.5
s94 -155.834 94 -270.501c0 -116.667 -31.5 -207.667 -94.5 -273s-150.167 -98 -261.5 -98zM2003 148.003c88 0 132 74.333 132 223c0 147.333 -43.333 221 -130 221c-86 0 -129 -74 -129 -222s42.333 -222 127 -222z" />
    <glyph glyph-name="Scaron" horiz-adv-x="1170" 
d="M102 13l0.00195312 254.002c159.333 -66.667 295.666 -100 408.999 -100c79.333 0 141.833 17.667 187.5 53s68.5 83.333 68.5 144c0 48 -14.333 88.5 -43 121.5s-83 72.167 -163 117.5l-99 55c-132.667 74.667 -226.334 146.167 -281.001 214.5s-82 148.166 -82 239.499
c0 122 44.833 220 134.5 294s208.167 111 355.5 111c118 0 251 -17 399 -51v-237c-151.333 56.667 -271 85 -359 85c-68 0 -122.5 -15.167 -163.5 -45.5s-61.5 -70.166 -61.5 -119.499c0 -40.667 14.333 -76.334 43 -107.001s82.667 -68.334 162 -113.001l106 -59
c142.667 -80 241 -153.667 295 -221s81 -149.333 81 -246c0 -137.333 -51 -245 -153 -323s-242.667 -117 -422 -117c-118.667 0 -256.667 16.667 -414 50zM969.002 1926l-241 -321h-273l-241 321h179l197 -198h2l198 198h179z" />
    <glyph glyph-name="Scaron" unicode="&#x160;" horiz-adv-x="1170" 
d="M102 13l0.00195312 254.002c159.333 -66.667 295.666 -100 408.999 -100c79.333 0 141.833 17.667 187.5 53s68.5 83.333 68.5 144c0 48 -14.333 88.5 -43 121.5s-83 72.167 -163 117.5l-99 55c-132.667 74.667 -226.334 146.167 -281.001 214.5s-82 148.166 -82 239.499
c0 122 44.833 220 134.5 294s208.167 111 355.5 111c118 0 251 -17 399 -51v-237c-151.333 56.667 -271 85 -359 85c-68 0 -122.5 -15.167 -163.5 -45.5s-61.5 -70.166 -61.5 -119.499c0 -40.667 14.333 -76.334 43 -107.001s82.667 -68.334 162 -113.001l106 -59
c142.667 -80 241 -153.667 295 -221s81 -149.333 81 -246c0 -137.333 -51 -245 -153 -323s-242.667 -117 -422 -117c-118.667 0 -256.667 16.667 -414 50zM969.002 1926l-241 -321h-273l-241 321h179l197 -198h2l198 198h179z" />
    <glyph glyph-name="guilsinglleft" horiz-adv-x="709" 
d="M641 888l-262 -339l262 -339l-139 -105l-416 444l416 444z" />
    <glyph glyph-name="guilsinglleft" unicode="&#x2039;" horiz-adv-x="709" 
d="M641 888l-262 -339l262 -339l-139 -105l-416 444l416 444z" />
    <glyph glyph-name="OE" horiz-adv-x="2169" 
d="M1124 37c-100.667 -49.333 -199 -74 -295 -74c-222 0 -400.167 71 -534.5 213s-201.5 330 -201.5 564c0 236 67.333 424.5 202 565.5s314.667 211.5 540 211.5c98 0 194.333 -24.667 289 -74v37h925v-203h-616v-413h505v-204h-505v-450h663v-210h-972v37zM1124 594
v292.999c0 151.333 -22.5 260.333 -67.5 327s-118.5 100 -220.5 100c-124 0 -224.333 -52.833 -301 -158.5s-115 -244.167 -115 -415.5s38.333 -309.666 115 -414.999s177.667 -158 303 -158c101.333 0 174.333 33.167 219 99.5s67 175.5 67 327.5z" />
    <glyph glyph-name="OE" unicode="&#x152;" horiz-adv-x="2169" 
d="M1124 37c-100.667 -49.333 -199 -74 -295 -74c-222 0 -400.167 71 -534.5 213s-201.5 330 -201.5 564c0 236 67.333 424.5 202 565.5s314.667 211.5 540 211.5c98 0 194.333 -24.667 289 -74v37h925v-203h-616v-413h505v-204h-505v-450h663v-210h-972v37zM1124 594
v292.999c0 151.333 -22.5 260.333 -67.5 327s-118.5 100 -220.5 100c-124 0 -224.333 -52.833 -301 -158.5s-115 -244.167 -115 -415.5s38.333 -309.666 115 -414.999s177.667 -158 303 -158c101.333 0 174.333 33.167 219 99.5s67 175.5 67 327.5z" />
    <glyph glyph-name="quoteleft" horiz-adv-x="506" 
d="M290 1258h124v-320h-321v248c0 262 107 393 321 393v-111c-37.333 0 -67.333 -16.167 -90 -48.5s-34 -75.5 -34 -129.5v-32z" />
    <glyph glyph-name="quoteleft" unicode="&#x2018;" horiz-adv-x="506" 
d="M290 1258h124v-320h-321v248c0 262 107 393 321 393v-111c-37.333 0 -67.333 -16.167 -90 -48.5s-34 -75.5 -34 -129.5v-32z" />
    <glyph glyph-name="quoteright" horiz-adv-x="506" 
d="M216 1258h-122.999v321h321v-248c0 -262 -107 -393 -321 -393v111c37.333 0 67.166 16.167 89.499 48.5s33.5 75.5 33.5 129.5v31z" />
    <glyph glyph-name="quoteright" unicode="&#x2019;" horiz-adv-x="506" 
d="M216 1258h-122.999v321h321v-248c0 -262 -107 -393 -321 -393v111c37.333 0 67.166 16.167 89.499 48.5s33.5 75.5 33.5 129.5v31z" />
    <glyph glyph-name="quotedblleft" horiz-adv-x="925" 
d="M278 1258h111v-296h-296v224c0 120.667 25 214.167 75 280.5s123.667 103.833 221 112.5v-111c-74 -20.667 -111 -80 -111 -178v-32zM722 1258h111v-296h-296v224c0 120.667 25 214.167 75 280.5s123.667 103.833 221 112.5v-111c-74 -20.667 -111 -80 -111 -178v-32z
" />
    <glyph glyph-name="quotedblleft" unicode="&#x201c;" horiz-adv-x="925" 
d="M278 1258h111v-296h-296v224c0 120.667 25 214.167 75 280.5s123.667 103.833 221 112.5v-111c-74 -20.667 -111 -80 -111 -178v-32zM722 1258h111v-296h-296v224c0 120.667 25 214.167 75 280.5s123.667 103.833 221 112.5v-111c-74 -20.667 -111 -80 -111 -178v-32z
" />
    <glyph glyph-name="quotedblright" horiz-adv-x="925" 
d="M204 1283l-111 -0.000976562v296h296v-223c0 -121.333 -25 -215.166 -75 -281.499s-123.667 -103.833 -221 -112.5v111c74 21.333 111 81 111 179v31zM648 1283l-111 -0.000976562v296h296v-223c0 -121.333 -24.833 -215.166 -74.5 -281.499
s-123.5 -103.833 -221.5 -112.5v111c74 21.333 111 81 111 179v31z" />
    <glyph glyph-name="quotedblright" unicode="&#x201d;" horiz-adv-x="925" 
d="M204 1283l-111 -0.000976562v296h296v-223c0 -121.333 -25 -215.166 -75 -281.499s-123.667 -103.833 -221 -112.5v111c74 21.333 111 81 111 179v31zM648 1283l-111 -0.000976562v296h296v-223c0 -121.333 -24.833 -215.166 -74.5 -281.499
s-123.5 -103.833 -221.5 -112.5v111c74 21.333 111 81 111 179v31z" />
    <glyph glyph-name="bullet" horiz-adv-x="1283" 
d="M222 597c0 113.333 41.332 210.833 123.999 292.5s181.334 122.5 296.001 122.5c116 0 214.833 -41 296.5 -123s122.5 -181 122.5 -297c0 -115.333 -40.833 -214 -122.5 -296s-180.167 -123 -295.5 -123c-118 0 -217.667 41 -299 123s-122 182.333 -122 301z" />
    <glyph glyph-name="bullet" unicode="&#x2022;" horiz-adv-x="1283" 
d="M222 597c0 113.333 41.332 210.833 123.999 292.5s181.334 122.5 296.001 122.5c116 0 214.833 -41 296.5 -123s122.5 -181 122.5 -297c0 -115.333 -40.833 -214 -122.5 -296s-180.167 -123 -295.5 -123c-118 0 -217.667 41 -299 123s-122 182.333 -122 301z" />
    <glyph glyph-name="endash" horiz-adv-x="1024" 
d="M86 537v160h851v-160h-851z" />
    <glyph glyph-name="endash" unicode="&#x2013;" horiz-adv-x="1024" 
d="M86 537v160h851v-160h-851z" />
    <glyph glyph-name="emdash" horiz-adv-x="2048" 
d="M80 537v123h1888v-123h-1888z" />
    <glyph glyph-name="emdash" unicode="&#x2014;" horiz-adv-x="2048" 
d="M80 537v123h1888v-123h-1888z" />
    <glyph glyph-name="tilde" horiz-adv-x="1308" 
d="M450 1283h-147.999c0 214 67 321 201 321c43.333 0 85.666 -14.333 126.999 -43l38 -26l31 -22c42.667 -30 73 -45 91 -45c44.667 0 67 45.333 67 136h148c0 -214 -67 -321 -201 -321c-43.333 0 -85.333 14.333 -126 43l-39 26l-31 22c-40.667 30 -71 45 -91 45
c-44.667 0 -67 -45.333 -67 -136z" />
    <glyph glyph-name="tilde" unicode="&#x2dc;" horiz-adv-x="1308" 
d="M450 1283h-147.999c0 214 67 321 201 321c43.333 0 85.666 -14.333 126.999 -43l38 -26l31 -22c42.667 -30 73 -45 91 -45c44.667 0 67 45.333 67 136h148c0 -214 -67 -321 -201 -321c-43.333 0 -85.333 14.333 -126 43l-39 26l-31 22c-40.667 30 -71 45 -91 45
c-44.667 0 -67 -45.333 -67 -136z" />
    <glyph glyph-name="trademark" horiz-adv-x="2048" 
d="M465 740v617h-268v123h734v-123h-268v-617h-198zM1061 740v740h254l156 -472l159 472h220v-740h-179v518l-160 -468h-144l-158 481v-531h-148z" />
    <glyph glyph-name="trademark" unicode="&#x2122;" horiz-adv-x="2048" 
d="M465 740v617h-268v123h734v-123h-268v-617h-198zM1061 740v740h254l156 -472l159 472h220v-740h-179v518l-160 -468h-144l-158 481v-531h-148z" />
    <glyph glyph-name="scaron" horiz-adv-x="1158" 
d="M156 35l0.00195312 216.998c146.667 -61.333 272 -92 376 -92c121.333 0 182 41.333 182 124c0 53.333 -50 100 -150 140l-100 40c-108.667 44 -186.334 91.333 -233.001 142s-70 113.334 -70 188.001c0 104 39.667 184.833 119 242.5s190.333 86.5 333 86.5
c89.333 0 195.666 -13 318.999 -39v-208c-118.667 41.333 -217 62 -295 62c-122.667 0 -184 -38 -184 -114c0 -50 45.333 -92.333 136 -127l86 -33c128.667 -48.667 218.167 -98 268.5 -148s75.5 -114.333 75.5 -193c0 -103.333 -42.833 -187.166 -128.5 -251.499
s-197.167 -96.5 -334.5 -96.5c-132 0 -265.333 20 -400 60zM989.002 1604l-241 -321h-273l-241 321h179l197 -198h2l198 198h179z" />
    <glyph glyph-name="scaron" unicode="&#x161;" horiz-adv-x="1158" 
d="M156 35l0.00195312 216.998c146.667 -61.333 272 -92 376 -92c121.333 0 182 41.333 182 124c0 53.333 -50 100 -150 140l-100 40c-108.667 44 -186.334 91.333 -233.001 142s-70 113.334 -70 188.001c0 104 39.667 184.833 119 242.5s190.333 86.5 333 86.5
c89.333 0 195.666 -13 318.999 -39v-208c-118.667 41.333 -217 62 -295 62c-122.667 0 -184 -38 -184 -114c0 -50 45.333 -92.333 136 -127l86 -33c128.667 -48.667 218.167 -98 268.5 -148s75.5 -114.333 75.5 -193c0 -103.333 -42.833 -187.166 -128.5 -251.499
s-197.167 -96.5 -334.5 -96.5c-132 0 -265.333 20 -400 60zM989.002 1604l-241 -321h-273l-241 321h179l197 -198h2l198 198h179z" />
    <glyph glyph-name="guilsinglright" horiz-adv-x="709" 
d="M68 210l262 339l-262 339l139 105l416 -444l-416 -444z" />
    <glyph glyph-name="guilsinglright" unicode="&#x203a;" horiz-adv-x="709" 
d="M68 210l262 339l-262 339l139 105l416 -444l-416 -444z" />
    <glyph glyph-name="oe" horiz-adv-x="1966" 
d="M1018 138c-66 -65.333 -123.834 -108.832 -173.501 -130.499s-116.167 -32.5 -199.5 -32.5c-169.333 0 -303.666 51.667 -402.999 155s-149 243 -149 419c0 172 50 310.667 150 416s232 158 396 158c150 0 279.667 -58.667 389 -176c94.667 117.333 217.667 176 369 176
c154 0 267.333 -51.333 340 -154s109 -262.334 109 -479.001h-682c20.667 -209.333 136 -314 346 -314c99.333 0 211.333 23 336 69v-208c-142.667 -41.333 -282.334 -62 -419.001 -62c-157.333 0 -293.666 54.333 -408.999 163zM653.999 160.001c144 0 216 129.667 216 389
s-71 389 -213 389c-76.667 0 -137.5 -35 -182.5 -105s-67.5 -164.667 -67.5 -284c0 -118.667 22.333 -213.167 67 -283.5s104.667 -105.5 180 -105.5zM1161 657.001h393c0 189.333 -60 284 -180 284c-122.667 0 -193.667 -94.667 -213 -284z" />
    <glyph glyph-name="oe" unicode="&#x153;" horiz-adv-x="1966" 
d="M1018 138c-66 -65.333 -123.834 -108.832 -173.501 -130.499s-116.167 -32.5 -199.5 -32.5c-169.333 0 -303.666 51.667 -402.999 155s-149 243 -149 419c0 172 50 310.667 150 416s232 158 396 158c150 0 279.667 -58.667 389 -176c94.667 117.333 217.667 176 369 176
c154 0 267.333 -51.333 340 -154s109 -262.334 109 -479.001h-682c20.667 -209.333 136 -314 346 -314c99.333 0 211.333 23 336 69v-208c-142.667 -41.333 -282.334 -62 -419.001 -62c-157.333 0 -293.666 54.333 -408.999 163zM653.999 160.001c144 0 216 129.667 216 389
s-71 389 -213 389c-76.667 0 -137.5 -35 -182.5 -105s-67.5 -164.667 -67.5 -284c0 -118.667 22.333 -213.167 67 -283.5s104.667 -105.5 180 -105.5zM1161 657.001h393c0 189.333 -60 284 -180 284c-122.667 0 -193.667 -94.667 -213 -284z" />
    <glyph glyph-name="Ydieresis" horiz-adv-x="1406" 
d="M537 0v620l-497 860h340l361 -625l377 625h244l-517 -858v-622h-308zM405 1605v222h222v-222h-222zM824 1605v222h222v-222h-222z" />
    <glyph glyph-name="Ydieresis" unicode="&#x178;" horiz-adv-x="1406" 
d="M537 0v620l-497 860h340l361 -625l377 625h244l-517 -858v-622h-308zM405 1605v222h222v-222h-222zM824 1605v222h222v-222h-222z" />
    <glyph glyph-name="nonbreakingspace" unicode="&#xa0;" horiz-adv-x="653" 
 />
    <glyph glyph-name="exclamdown" unicode="&#xa1;" horiz-adv-x="642" 
d="M469 1098v-247h-296v247h296zM420 679l49 -765v-296h-296v296l49 765h198z" />
    <glyph glyph-name="cent" unicode="&#xa2;" horiz-adv-x="1308" 
d="M680 0v176c-166.667 9.33301 -297.167 65 -391.5 167s-141.5 238.333 -141.5 409c0 172.667 45.5 308 136.5 406s223.167 154.333 396.5 169v153h160v-155c86.667 -6 170.667 -19.333 252 -40v-216c-92 38.667 -176 60.334 -252 65.001v-760
c85.333 5.33301 169.333 23.666 252 54.999v-202c-84 -25.333 -168 -41 -252 -47v-180h-160zM680 391v739.999c-144 -43.333 -216 -164.666 -216 -363.999c0 -198.667 72 -324 216 -376z" />
    <glyph glyph-name="sterling" unicode="&#xa3;" horiz-adv-x="1308" 
d="M225 0l-0.000976562 233.999c73.333 17.333 124.5 46.833 153.5 88.5s43.5 106.167 43.5 193.5v181h-163v185h163v170c0 310.667 149.667 466 449 466c80 0 169 -8 267 -24v-203c-80 27.333 -157 41 -231 41c-126 0 -189 -71.333 -189 -214v-236h195v-185h-195
c0 -131.333 -13.667 -226.166 -41 -284.499s-85.666 -117.833 -174.999 -178.5h651v-234h-928z" />
    <glyph glyph-name="currency" unicode="&#xa4;" horiz-adv-x="1308" 
d="M900 1109l199 198l122 -122l-199 -198c50.667 -78.667 76 -161 76 -247c0 -85.333 -25.333 -167.333 -76 -246l198 -199l-122 -122l-198 199v0c-80 -50.667 -162 -76 -246 -76c-84.667 0 -167 25.333 -247 76v0l-198 -199l-122 122l198 199
c-50 78.667 -75 160.667 -75 246c0 86 25 168.333 75 247l-198 198l122 122l198 -198c80 50 162.333 75 247 75c84 0 166 -25 246 -75zM656 962c-62.667 0 -115.834 -21.667 -159.501 -65s-65.5 -96 -65.5 -158c0 -60.667 21.833 -112.667 65.5 -156s96.167 -65 157.5 -65
c60.667 0 112.834 21.667 156.501 65s65.5 95.666 65.5 156.999c0 60.667 -21.667 112.834 -65 156.501s-95 65.5 -155 65.5z" />
    <glyph glyph-name="yen" unicode="&#xa5;" horiz-adv-x="1308" 
d="M498 0v302h-259v148h259v148h-259v148h250l-447 734h332l332 -544l353 544h220l-475 -734h250v-148h-259v-148h259v-148h-259v-302h-297z" />
    <glyph glyph-name="brokenbar" unicode="&#xa6;" horiz-adv-x="790" 
d="M308 -296v740h173v-740h-173zM308 839v740h173v-740h-173z" />
    <glyph glyph-name="section" unicode="&#xa7;" horiz-adv-x="1308" 
d="M197 -278l-0.000976562 219.001c168.667 -59.333 308.334 -89 419.001 -89c166.667 0 250 46.667 250 140c0 34.667 -11.667 62.5 -35 83.5s-72.666 47.833 -147.999 80.5l-154 66c-121.333 52.667 -207.666 107.167 -258.999 163.5s-77 125.166 -77 206.499
c0 103.333 50 204.666 150 303.999c-104 66.667 -156 152.334 -156 257.001c0 110 45.5 198.333 136.5 265s211.167 100 360.5 100c121.333 0 250.666 -13.667 387.999 -41v-205c-132 40 -253 60 -363 60c-75.333 0 -135.333 -12.333 -180 -37s-67 -57.667 -67 -99
c0 -56 53 -105.667 159 -149l134 -55c137.333 -56 233.166 -112.5 287.499 -169.5s81.5 -129.833 81.5 -218.5c0 -98.667 -48.333 -200.667 -145 -306c107.333 -69.333 161 -161.333 161 -276c0 -115.333 -47.5 -203.5 -142.5 -264.5s-232.167 -91.5 -411.5 -91.5
c-109.333 0 -239 18.667 -389 56zM840.999 375.001c38.667 52.667 58 101.336 58 146.003c0 43.333 -13.833 78.666 -41.5 105.999s-81.167 58.666 -160.5 93.999l-215 97c-38.667 -48.667 -58 -95.334 -58 -140.001c0 -78 69.667 -148 209 -210z" />
    <glyph glyph-name="dieresis" unicode="&#xa8;" horiz-adv-x="1308" 
d="M333 1283v222h222v-222h-222zM752 1283v222h222v-222h-222z" />
    <glyph glyph-name="copyright" unicode="&#xa9;" horiz-adv-x="1721" 
d="M1175 339c-100 -28.667 -192.665 -43.001 -277.998 -43.001c-136.667 0 -247.167 41 -331.5 123s-126.5 189.667 -126.5 323s40.667 239.333 122 318s190.666 118 327.999 118c88 0 183.333 -12.333 286 -37v-132c-96.667 38.667 -185.667 58 -267 58
c-84 0 -152.167 -30.167 -204.5 -90.5s-78.5 -139.166 -78.5 -236.499c0 -96 28.667 -173.5 86 -232.5s132.666 -88.5 225.999 -88.5c92 0 171.333 17.667 238 53v-133zM851.002 -37.001c-210 0 -390.501 76.499 -541.501 229.499s-226.5 335.5 -226.5 547.5
c0 214.667 76 397.834 228 549.501s335 227.5 549 227.5s397 -75.833 549 -227.5s228 -334.167 228 -547.5c0 -217.333 -76.167 -401.5 -228.5 -552.5s-338.166 -226.5 -557.499 -226.5zM851.001 91.998c211.333 0 379.334 77.666 504.001 232.999
c102 126.667 153 265.334 153 416.001c0 149.333 -51 287.333 -153 414c-124.667 155.333 -289.667 233 -495 233s-370.333 -77.667 -495 -233c-102 -126.667 -153 -265 -153 -415c0 -176 63.167 -328 189.5 -456s276.166 -192 449.499 -192z" />
    <glyph glyph-name="ordfeminine" unicode="&#xaa;" horiz-adv-x="987" 
d="M566 900c-50.667 -51.333 -108.333 -77 -173 -77c-60.667 0 -110.5 18.667 -149.5 56s-58.5 85 -58.5 143c0 153.333 114.667 230 344 230h48v47c0 62.667 -39.333 94 -118 94c-74.667 0 -146.334 -20 -215.001 -60v141c80 29.333 162.667 44 248 44
c196 0 294 -69.333 294 -208v-290c0 -39.333 13.333 -59 40 -59c7.33301 0 15.333 1 24 3v-126c-42.667 -10 -79.667 -15 -111 -15c-79.333 0 -132.666 25.667 -159.999 77h-13zM577.001 1019v113h-46c-91.333 0 -137 -31 -137 -93c0 -51.333 25 -77 75 -77
c36.667 0 72.667 19 108 57z" />
    <glyph glyph-name="guillemotleft" unicode="&#xab;" horiz-adv-x="1166" 
d="M1098 888l-263 -339l263 -339l-139 -105l-417 444l417 444zM641 885l-262 -336l262 -339l-139 -105l-416 444l416 444z" />
    <glyph glyph-name="logicalnot" unicode="&#xac;" horiz-adv-x="1629" 
d="M222 716v172h1184v-592h-172v420h-1012z" />
    <glyph glyph-name="uni00AD" unicode="&#xad;" horiz-adv-x="1186" 
d="M148 543v197h888v-197h-888z" />
    <glyph glyph-name="registered" unicode="&#xae;" horiz-adv-x="1721" 
d="M851 -37c-210 0 -390.501 76.499 -541.501 229.499s-226.5 335.5 -226.5 547.5c0 214.667 76 397.834 228 549.501s335 227.5 549 227.5s397 -75.833 549 -227.5s228 -334.167 228 -547.5c0 -217.333 -76.167 -401.5 -228.5 -552.5s-338.166 -226.5 -557.499 -226.5z
M850.999 91.999c211.333 0 379.334 77.666 504.001 232.999c102 126.667 153 265.334 153 416.001c0 149.333 -51 287.333 -153 414c-124.667 155.333 -289.667 233 -495 233s-370.333 -77.667 -495 -233c-102 -126.667 -153 -265 -153 -415c0 -176 63.167 -328 189.5 -456
s276.166 -192 449.499 -192zM551 321.998v840h337c188 0 282 -69.333 282 -208c0 -111.333 -59.667 -191.333 -179 -240l247 -392h-219l-189 343h-107v-343h-172zM723 779.998h45c144.667 0 217 51.333 217 154c0 74.667 -65 112 -195 112h-67v-266z" />
    <glyph glyph-name="degree" unicode="&#xb0;" horiz-adv-x="641" 
d="M318 1073c-60 0 -111.501 21.833 -154.501 65.5s-64.5 96.167 -64.5 157.5c0 62 21.5 114.333 64.5 157s95.5 64 157.5 64s114.5 -21.333 157.5 -64s64.5 -95 64.5 -157c0 -62.667 -21.667 -115.5 -65 -158.5s-96.666 -64.5 -159.999 -64.5zM319.999 1172
c33.333 0 62.333 12.1689 87 36.502s37 53.166 37 86.499s-12.333 62.333 -37 87s-53.334 37 -86.001 37c-33.333 0 -62.166 -12.333 -86.499 -37s-36.5 -53.667 -36.5 -87c0 -32.667 12.167 -61.334 36.5 -86.001s52.833 -37 85.5 -37z" />
    <glyph glyph-name="plusminus" unicode="&#xb1;" horiz-adv-x="1629" 
d="M222 0v173h1184v-173h-1184zM728 296v358h-506v173h506v357h173v-357h505v-173h-505v-358h-173z" />
    <glyph glyph-name="twosuperior" unicode="&#xb2;" horiz-adv-x="987" 
d="M171 607l0.000976562 168.999l9 9l21 23c19.333 21.333 46.666 46.333 81.999 75l80 66c144.667 118.667 217 222 217 310c0 82.667 -51 124 -153 124c-66 0 -143.667 -20.667 -233 -62v150c99.333 30.667 194 46 284 46c103.333 0 185.5 -22.167 246.5 -66.5
s91.5 -104.166 91.5 -179.499c0 -91.333 -64.333 -187 -193 -287l-70 -55c-78 -60 -123.667 -111 -137 -153h398v-169h-643z" />
    <glyph glyph-name="threesuperior" unicode="&#xb3;" horiz-adv-x="987" 
d="M195 614l-0.000976562 150c90 -34.667 168.333 -52 235 -52c108 0 162 42.667 162 128c0 112 -85 168 -255 168h-60v127h46c85.333 0 147 11.5 185 34.5s57 60.167 57 111.5c0 72.667 -46 109 -138 109c-71.333 0 -144.666 -16.667 -219.999 -50v134
c97.333 28.667 186.333 43 267 43c213.333 0 320 -71.667 320 -215c0 -106.667 -68.333 -180.667 -205 -222c154.667 -35.333 232 -116 232 -242c0 -79.333 -32.167 -141.333 -96.5 -186s-154.166 -67 -269.499 -67c-84.667 0 -171.334 9.66699 -260.001 29z" />
    <glyph glyph-name="acute" unicode="&#xb4;" horiz-adv-x="1308" 
d="M463 1283l241 321h271l-321 -321h-191z" />
    <glyph glyph-name="mu" unicode="&#xb5;" horiz-adv-x="1357" 
d="M870 210c-45.333 -64.667 -102 -115.833 -170 -153.5s-137.667 -56.5 -209 -56.5h-16v-296h-296v1394h296v-703c0 -124.667 41.667 -187 125 -187c93.333 0 183.333 66.333 270 199v691h296v-1098h-296v210z" />
    <glyph glyph-name="paragraph" unicode="&#xb6;" horiz-adv-x="1308" 
d="M543 -296v1036c-263.333 35.333 -395 172 -395 410c0 118 32 202.5 96 253.5s169.667 76.5 317 76.5h451v-1776h-161v1641h-148v-1641h-160z" />
    <glyph glyph-name="cedilla" unicode="&#xb8;" horiz-adv-x="1308" 
d="M621 0h136.001l-76 -113c154.667 -16.667 232 -68.667 232 -156c0 -46 -24 -84.667 -72 -116s-107 -47 -177 -47c-54.667 0 -117.334 9.66699 -188.001 29v92c46.667 -10 85.667 -15 117 -15c81.333 0 122 20 122 60c0 56 -65 84 -195 84h-20z" />
    <glyph glyph-name="onesuperior" unicode="&#xb9;" horiz-adv-x="987" 
d="M197 615v130h222v583l-222 -55v133l444 111v-772h221v-130h-665z" />
    <glyph glyph-name="ordmasculine" unicode="&#xba;" horiz-adv-x="987" 
d="M489 823c-110 0 -197.168 31.166 -261.501 93.499s-96.5 146.833 -96.5 253.5c0 108 32.333 192.833 97 254.5s153.334 92.5 266.001 92.5c112 0 200.333 -30.833 265 -92.5s97 -146.167 97 -253.5c0 -109.333 -32.333 -194.666 -97 -255.999s-154.667 -92 -270 -92z
M491.999 950.999c85.333 0 127.999 73.668 127.999 221.001c0 64.667 -11.667 117.167 -35 157.5s-53.666 60.5 -90.999 60.5c-38 0 -68.667 -20.167 -92 -60.5s-35 -93.5 -35 -159.5c0 -64.667 11.5 -117.334 34.5 -158.001s53.167 -61 90.5 -61z" />
    <glyph glyph-name="guillemotright" unicode="&#xbb;" horiz-adv-x="1166" 
d="M68 210l262 339l-262 339l139 105l416 -444l-416 -444zM524 213l263 336l-263 339l139 105l417 -444l-417 -444z" />
    <glyph glyph-name="onequarter" unicode="&#xbc;" horiz-adv-x="1946" 
d="M323 615v713l-222 -55v133l444 111v-902h-222zM284 -37l1108 1554h172l-1107 -1554h-173zM1461 2v226h-420v166l413 496h201v-496h93v-166h-93v-226h-194zM1208 394h254v304z" />
    <glyph glyph-name="onehalf" unicode="&#xbd;" horiz-adv-x="1946" 
d="M309 615v713l-222 -55v133l444 111v-902h-222zM202 -37l1108 1554h172l-1107 -1554h-173zM1103 2l0.000976562 168.999l9 9l21 23c19.333 21.333 46.666 46.333 81.999 75l80 66c144.667 118.667 217 222 217 310c0 82.667 -51 124 -153 124
c-66 0 -143.667 -20.667 -233 -62v150c99.333 30.667 194 46 284 46c103.333 0 185.5 -22.167 246.5 -66.5s91.5 -104.166 91.5 -179.499c0 -91.333 -64.333 -187 -193 -287l-70 -55c-78 -60 -123.667 -111 -137 -153h398v-169h-643z" />
    <glyph glyph-name="threequarters" unicode="&#xbe;" horiz-adv-x="1946" 
d="M161 614l-0.000976562 150c90 -34.667 168.333 -52 235 -52c108 0 162 42.667 162 128c0 112 -85 168 -255 168h-60v127h46c85.333 0 147 11.5 185 34.5s57 60.167 57 111.5c0 72.667 -46 109 -138 109c-71.333 0 -144.666 -16.667 -219.999 -50v134
c97.333 28.667 186.333 43 267 43c213.333 0 320 -71.667 320 -215c0 -106.667 -68.333 -180.667 -205 -222c154.667 -35.333 232 -116 232 -242c0 -79.333 -32.167 -141.333 -96.5 -186s-154.166 -67 -269.499 -67c-84.667 0 -171.334 9.66699 -260.001 29zM382.999 -37
l1108 1554h172l-1107 -1554h-173zM1498 2v226h-420v166l413 496h201v-496h93v-166h-93v-226h-194zM1245 394h254v304z" />
    <glyph glyph-name="questiondown" unicode="&#xbf;" horiz-adv-x="1018" 
d="M739 1098v-247h-296v247h296zM443 679l296 -0.000976562v-28c0 -108 -49.333 -216.333 -148 -325l-70 -78c-96 -106 -144 -200.667 -144 -284c0 -124 78 -186 234 -186c100.667 0 216 29.667 346 89v-226c-133.333 -40 -263.333 -60 -390 -60
c-158 0 -282.667 30.333 -374 91s-137 143.334 -137 248.001c0 96 54.667 196 164 300l68 64c62 59.333 103.333 109.5 124 150.5s31 94.167 31 159.5v85z" />
    <glyph glyph-name="Agrave" unicode="&#xc0;" horiz-adv-x="1508" 
d="M23 0l576 1480h308l576 -1480h-316l-154 395h-612l-154 -395h-224zM477 592h460l-230 590zM945 1605h-191l-321 321h271z" />
    <glyph glyph-name="Aacute" unicode="&#xc1;" horiz-adv-x="1508" 
d="M23 0l576 1480h308l576 -1480h-316l-154 395h-612l-154 -395h-224zM477 592h460l-230 590zM561 1605l241 321h271l-321 -321h-191z" />
    <glyph glyph-name="Acircumflex" unicode="&#xc2;" horiz-adv-x="1508" 
d="M23 0l576 1480h308l576 -1480h-316l-154 395h-612l-154 -395h-224zM477 592h460l-230 590zM376 1605l241 321h273l241 -321h-179l-198 197h-2l-197 -197h-179z" />
    <glyph glyph-name="Atilde" unicode="&#xc3;" horiz-adv-x="1508" 
d="M23 0l576 1480h308l576 -1480h-316l-154 395h-612l-154 -395h-224zM477 592h460l-230 590zM548 1605h-147.999c0 214 67 321 201 321c43.333 0 85.666 -14.333 126.999 -43l38 -26l31 -22c42.667 -30 73 -45 91 -45c44.667 0 67 45.333 67 136h148
c0 -214 -67 -321 -201 -321c-43.333 0 -85.333 14.333 -126 43l-39 26l-31 22c-40.667 30 -71 45 -91 45c-44.667 0 -67 -45.333 -67 -136z" />
    <glyph glyph-name="Adieresis" unicode="&#xc4;" horiz-adv-x="1508" 
d="M23 0l576 1480h308l576 -1480h-316l-154 395h-612l-154 -395h-224zM477 592h460l-230 590zM431 1605v222h222v-222h-222zM850 1605v222h222v-222h-222z" />
    <glyph glyph-name="Aring" unicode="&#xc5;" horiz-adv-x="1508" 
d="M23 0l576 1480h308l576 -1480h-316l-154 395h-612l-154 -395h-224zM477 592h460l-230 590zM749 1482c-62 0 -114.833 22.167 -158.5 66.5s-65.5 97.833 -65.5 160.5s22 116.167 66 160.5s97.667 66.5 161 66.5c62.667 0 116.167 -22 160.5 -66s66.5 -97.667 66.5 -161
c0 -64 -22.167 -117.833 -66.5 -161.5s-98.833 -65.5 -163.5 -65.5zM750 1581c36.667 0 67.499 12.332 92.499 36.999s37.5 55.334 37.5 92.001c0 35.333 -12.5 65.333 -37.5 90s-55.167 37 -90.5 37s-65.5 -12.333 -90.5 -37s-37.5 -55 -37.5 -91
c0 -35.333 12.333 -65.5 37 -90.5s54.334 -37.5 89.001 -37.5z" />
    <glyph glyph-name="AE" unicode="&#xc6;" horiz-adv-x="1961" 
d="M21 0l839 1480h982v-203h-623v-413h512v-204h-512v-450h669v-210h-972v382h-437l-218 -382h-240zM586 574h330v580z" />
    <glyph glyph-name="Ccedilla" unicode="&#xc7;" horiz-adv-x="1459" 
d="M1376 59c-143.333 -64 -314.332 -96 -512.999 -96c-242.667 0 -431.667 68.333 -567 205s-203 327.334 -203 572.001c0 249.333 68.167 441.166 204.5 575.499s330.833 201.5 583.5 201.5c161.333 0 321.666 -19 480.999 -57v-241c-180.667 63.333 -332 95 -454 95
c-156 0 -276.333 -49.5 -361 -148.5s-127 -239.5 -127 -421.5c0 -178.667 45.5 -318 136.5 -418s217.5 -150 379.5 -150c145.333 0 292 36.667 440 110v-227zM758.001 0h136.001l-76 -113c154.667 -16.667 232 -68.667 232 -156c0 -46 -24 -84.667 -72 -116
s-107 -47 -177 -47c-54.667 0 -117.334 9.66699 -188.001 29v92c46.667 -10 85.667 -15 117 -15c81.333 0 122 20 122 60c0 56 -65 84 -195 84h-20z" />
    <glyph glyph-name="Egrave" unicode="&#xc8;" horiz-adv-x="1230" 
d="M185 0v1480h925v-203h-617v-413h506v-204h-506v-450h664v-210h-972zM852 1605h-191l-321 321h271z" />
    <glyph glyph-name="Eacute" unicode="&#xc9;" horiz-adv-x="1230" 
d="M185 0v1480h925v-203h-617v-413h506v-204h-506v-450h664v-210h-972zM494 1605l241 321h271l-321 -321h-191z" />
    <glyph glyph-name="Ecircumflex" unicode="&#xca;" horiz-adv-x="1230" 
d="M185 0v1480h925v-203h-617v-413h506v-204h-506v-450h664v-210h-972zM284 1605l241 321h273l241 -321h-179l-198 197h-2l-197 -197h-179z" />
    <glyph glyph-name="Edieresis" unicode="&#xcb;" horiz-adv-x="1230" 
d="M185 0v1480h925v-203h-617v-413h506v-204h-506v-450h664v-210h-972zM345 1605v222h222v-222h-222zM764 1605v222h222v-222h-222z" />
    <glyph glyph-name="Igrave" unicode="&#xcc;" horiz-adv-x="678" 
d="M185 0v1480h308v-1480h-308zM530 1605h-191l-321 321h271z" />
    <glyph glyph-name="Iacute" unicode="&#xcd;" horiz-adv-x="678" 
d="M185 0v1480h308v-1480h-308zM149 1605l241 321h271l-321 -321h-191z" />
    <glyph glyph-name="Icircumflex" unicode="&#xce;" horiz-adv-x="678" 
d="M185 0v1480h308v-1480h-308zM-36 1605l241 321h273l241 -321h-179l-198 197h-2l-197 -197h-179z" />
    <glyph glyph-name="Idieresis" unicode="&#xcf;" horiz-adv-x="678" 
d="M185 0v1480h308v-1480h-308zM19 1605v222h222v-222h-222zM438 1605v222h222v-222h-222z" />
    <glyph glyph-name="Eth" unicode="&#xd0;" horiz-adv-x="1624" 
d="M185 0v645h-185v197h185v638h637c229.333 0 405 -60.833 527 -182.5s183 -297.167 183 -526.5c0 -244 -64.667 -433.5 -194 -568.5s-310.333 -202.5 -543 -202.5h-610zM493 210l230 -0.000976562c178.667 0 303.667 50.333 375 151c71.333 100 107 230.667 107 392
c0 141.333 -32 259 -96 353c-44 64.667 -97 109.334 -159 134.001s-152.333 37 -271 37h-186v-435h210v-197h-210v-435z" />
    <glyph glyph-name="Ntilde" unicode="&#xd1;" horiz-adv-x="1574" 
d="M185 0v1480h271l686 -1011v1011h247v-1480h-276l-681 1011v-1011h-247zM604 1605h-147.999c0 214 67 321 201 321c43.333 0 85.666 -14.333 126.999 -43l38 -26l31 -22c42.667 -30 73 -45 91 -45c44.667 0 67 45.333 67 136h148c0 -214 -67 -321 -201 -321
c-43.333 0 -85.333 14.333 -126 43l-39 26l-31 22c-40.667 30 -71 45 -91 45c-44.667 0 -67 -45.333 -67 -136z" />
    <glyph glyph-name="Ograve" unicode="&#xd2;" horiz-adv-x="1686" 
d="M834 -37c-224.667 0 -404.334 70.667 -539.001 212s-202 329.666 -202 564.999c0 238 67.667 427 203 567s318 210 548 210c228.667 0 410.834 -70 546.501 -210s203.5 -328 203.5 -564c0 -241.333 -67.833 -431.666 -203.5 -570.999s-321.167 -209 -556.5 -209zM838 167
c132 0 236.499 51.833 313.499 155.5s115.5 244.167 115.5 421.5c0 172 -38.667 310 -116 414s-179.666 156 -306.999 156c-128.667 0 -231.5 -52 -308.5 -156s-115.5 -243 -115.5 -417c0 -172.667 38.333 -311.5 115 -416.5s177.667 -157.5 303 -157.5zM1035 1605h-191
l-321 321h271z" />
    <glyph glyph-name="Oacute" unicode="&#xd3;" horiz-adv-x="1686" 
d="M834 -37c-224.667 0 -404.334 70.667 -539.001 212s-202 329.666 -202 564.999c0 238 67.667 427 203 567s318 210 548 210c228.667 0 410.834 -70 546.501 -210s203.5 -328 203.5 -564c0 -241.333 -67.833 -431.666 -203.5 -570.999s-321.167 -209 -556.5 -209zM838 167
c132 0 236.499 51.833 313.499 155.5s115.5 244.167 115.5 421.5c0 172 -38.667 310 -116 414s-179.666 156 -306.999 156c-128.667 0 -231.5 -52 -308.5 -156s-115.5 -243 -115.5 -417c0 -172.667 38.333 -311.5 115 -416.5s177.667 -157.5 303 -157.5zM650.999 1605
l241 321h271l-321 -321h-191z" />
    <glyph glyph-name="Ocircumflex" unicode="&#xd4;" horiz-adv-x="1686" 
d="M834 -37c-224.667 0 -404.334 70.667 -539.001 212s-202 329.666 -202 564.999c0 238 67.667 427 203 567s318 210 548 210c228.667 0 410.834 -70 546.501 -210s203.5 -328 203.5 -564c0 -241.333 -67.833 -431.666 -203.5 -570.999s-321.167 -209 -556.5 -209zM838 167
c132 0 236.499 51.833 313.499 155.5s115.5 244.167 115.5 421.5c0 172 -38.667 310 -116 414s-179.666 156 -306.999 156c-128.667 0 -231.5 -52 -308.5 -156s-115.5 -243 -115.5 -417c0 -172.667 38.333 -311.5 115 -416.5s177.667 -157.5 303 -157.5zM465.999 1605
l241 321h273l241 -321h-179l-198 197h-2l-197 -197h-179z" />
    <glyph glyph-name="Otilde" unicode="&#xd5;" horiz-adv-x="1686" 
d="M834 -37c-224.667 0 -404.334 70.667 -539.001 212s-202 329.666 -202 564.999c0 238 67.667 427 203 567s318 210 548 210c228.667 0 410.834 -70 546.501 -210s203.5 -328 203.5 -564c0 -241.333 -67.833 -431.666 -203.5 -570.999s-321.167 -209 -556.5 -209zM838 167
c132 0 236.499 51.833 313.499 155.5s115.5 244.167 115.5 421.5c0 172 -38.667 310 -116 414s-179.666 156 -306.999 156c-128.667 0 -231.5 -52 -308.5 -156s-115.5 -243 -115.5 -417c0 -172.667 38.333 -311.5 115 -416.5s177.667 -157.5 303 -157.5zM639.999 1605
h-147.999c0 214 67 321 201 321c43.333 0 85.666 -14.333 126.999 -43l38 -26l31 -22c42.667 -30 73 -45 91 -45c44.667 0 67 45.333 67 136h148c0 -214 -67 -321 -201 -321c-43.333 0 -85.333 14.333 -126 43l-39 26l-31 22c-40.667 30 -71 45 -91 45
c-44.667 0 -67 -45.333 -67 -136z" />
    <glyph glyph-name="Odieresis" unicode="&#xd6;" horiz-adv-x="1686" 
d="M834 -37c-224.667 0 -404.334 70.667 -539.001 212s-202 329.666 -202 564.999c0 238 67.667 427 203 567s318 210 548 210c228.667 0 410.834 -70 546.501 -210s203.5 -328 203.5 -564c0 -241.333 -67.833 -431.666 -203.5 -570.999s-321.167 -209 -556.5 -209zM838 167
c132 0 236.499 51.833 313.499 155.5s115.5 244.167 115.5 421.5c0 172 -38.667 310 -116 414s-179.666 156 -306.999 156c-128.667 0 -231.5 -52 -308.5 -156s-115.5 -243 -115.5 -417c0 -172.667 38.333 -311.5 115 -416.5s177.667 -157.5 303 -157.5zM522.999 1605v222
h222v-222h-222zM941.999 1605v222h222v-222h-222z" />
    <glyph glyph-name="multiply" unicode="&#xd7;" horiz-adv-x="1629" 
d="M222 122l470 470l-470 470l122 122l470 -470l470 470l122 -122l-470 -470l470 -470l-122 -122l-470 470l-470 -470z" />
    <glyph glyph-name="Oslash" unicode="&#xd8;" horiz-adv-x="1686" 
d="M478 424l646 765.999c-72 82.667 -166.333 124 -283 124c-128 0 -230.5 -52.167 -307.5 -156.5s-115.5 -243.166 -115.5 -416.499c0 -110 20 -215.667 60 -317zM91 -37.001l188.002 224c-125.333 144 -188 329 -188 555c0 236.667 67.667 425 203 565
s317.666 210 546.999 210c172 0 322.333 -42 451 -126l107 126h193l-189 -224c126 -142 189 -327 189 -555c0 -236.667 -67.833 -425 -203.5 -565s-317.834 -210 -546.501 -210c-170.667 0 -321 42.333 -451 127l-107 -127h-193zM559.002 289.999
c72.667 -82 167 -123 283 -123c128 0 230.5 52.167 307.5 156.5s115.5 243.833 115.5 418.5c0 110 -20 215 -60 315z" />
    <glyph glyph-name="Ugrave" unicode="&#xd9;" horiz-adv-x="1508" 
d="M173 1480l308 0.000976562v-907c0 -143.333 23.667 -246.833 71 -310.5s123.666 -95.5 228.999 -95.5c100.667 0 173.5 30.333 218.5 91s67.5 158.334 67.5 293.001v929h268v-909c0 -136.667 -13 -240.834 -39 -312.501s-73.333 -133.834 -142 -186.501
c-94 -72.667 -220.333 -109 -379 -109c-170 0 -306.667 38.667 -410 116c-71.333 53.333 -121.166 116.5 -149.499 189.5s-42.5 174.833 -42.5 305.5v906zM973 1605h-191l-321 321h271z" />
    <glyph glyph-name="Uacute" unicode="&#xda;" horiz-adv-x="1508" 
d="M173 1480l308 0.000976562v-907c0 -143.333 23.667 -246.833 71 -310.5s123.666 -95.5 228.999 -95.5c100.667 0 173.5 30.333 218.5 91s67.5 158.334 67.5 293.001v929h268v-909c0 -136.667 -13 -240.834 -39 -312.501s-73.333 -133.834 -142 -186.501
c-94 -72.667 -220.333 -109 -379 -109c-170 0 -306.667 38.667 -410 116c-71.333 53.333 -121.166 116.5 -149.499 189.5s-42.5 174.833 -42.5 305.5v906zM590 1605l241 321h271l-321 -321h-191z" />
    <glyph glyph-name="Ucircumflex" unicode="&#xdb;" horiz-adv-x="1508" 
d="M173 1480l308 0.000976562v-907c0 -143.333 23.667 -246.833 71 -310.5s123.666 -95.5 228.999 -95.5c100.667 0 173.5 30.333 218.5 91s67.5 158.334 67.5 293.001v929h268v-909c0 -136.667 -13 -240.834 -39 -312.501s-73.333 -133.834 -142 -186.501
c-94 -72.667 -220.333 -109 -379 -109c-170 0 -306.667 38.667 -410 116c-71.333 53.333 -121.166 116.5 -149.499 189.5s-42.5 174.833 -42.5 305.5v906zM397 1605l241 321h273l241 -321h-179l-198 197h-2l-197 -197h-179z" />
    <glyph glyph-name="Udieresis" unicode="&#xdc;" horiz-adv-x="1508" 
d="M173 1480l308 0.000976562v-907c0 -143.333 23.667 -246.833 71 -310.5s123.666 -95.5 228.999 -95.5c100.667 0 173.5 30.333 218.5 91s67.5 158.334 67.5 293.001v929h268v-909c0 -136.667 -13 -240.834 -39 -312.501s-73.333 -133.834 -142 -186.501
c-94 -72.667 -220.333 -109 -379 -109c-170 0 -306.667 38.667 -410 116c-71.333 53.333 -121.166 116.5 -149.499 189.5s-42.5 174.833 -42.5 305.5v906zM454 1605v222h222v-222h-222zM873 1605v222h222v-222h-222z" />
    <glyph glyph-name="Yacute" unicode="&#xdd;" horiz-adv-x="1406" 
d="M537 0v620l-497 860h340l361 -625l377 625h244l-517 -858v-622h-308zM549 1605l241 321h271l-321 -321h-191z" />
    <glyph glyph-name="Thorn" unicode="&#xde;" horiz-adv-x="1256" 
d="M185 0v1480h296v-283h214c180 0 308.5 -30.333 385.5 -91s115.5 -161 115.5 -301c0 -160.667 -51.667 -285.667 -155 -375s-247.333 -134 -432 -134h-128v-296h-296zM481 500h73.999c102.667 0 182.834 24.667 240.501 74s86.5 118 86.5 206c0 142 -93.333 213 -280 213
h-121v-493z" />
    <glyph glyph-name="germandbls" unicode="&#xdf;" horiz-adv-x="1354" 
d="M185 0l0.000976562 1131c0 315.333 149 473 447 473c129.333 0 231.833 -23.5 307.5 -70.5s113.5 -110.5 113.5 -190.5c0 -64.667 -21.667 -127.334 -65 -188.001l-61 -86c-46.667 -65.333 -70 -112.333 -70 -141c0 -42 35 -92 105 -150l137 -112
c79.333 -65.333 134.666 -123.833 165.999 -175.5s47 -110.5 47 -176.5c0 -103.333 -34.5 -185.666 -103.5 -246.999s-161.5 -92 -277.5 -92c-94 0 -195 18 -303 54v206c103.333 -50 192.333 -75 267 -75c45.333 0 82 11.5 110 34.5s42 52.833 42 89.5
c0 42.667 -40.667 97.667 -122 165l-148 123c-107.333 89.333 -161 174.666 -161 255.999c0 49.333 12.667 97.333 38 144l47 81l49 87c28.667 49.333 43 97.333 43 144c0 92 -52 138 -156 138s-156 -71 -156 -213v-1209h-296z" />
    <glyph glyph-name="agrave" unicode="&#xe0;" horiz-adv-x="1204" 
d="M723 118c-98.667 -95.333 -204.333 -143 -317 -143c-96 0 -174 29.333 -234 88s-90 134.667 -90 228c0 121.333 48.5 214.833 145.5 280.5s235.833 98.5 416.5 98.5h79v100c0 114 -65 171 -195 171c-115.333 0 -232 -32.667 -350 -98v204c134 50.667 266.667 76 398 76
c287.333 0 431 -114.333 431 -343v-486c0 -86 26.333 -129 79 -129c12 0 28.667 3.66699 50 11v-173c-62.667 -18.667 -118 -28 -166 -28c-121.333 0 -199.333 47.667 -234 143h-13zM723.001 277l-0.000976562 223.001h-70c-89.333 0 -159.5 -16 -210.5 -48
s-76.5 -76 -76.5 -132c0 -40.667 13.833 -74.834 41.5 -102.501s61.834 -41.5 102.501 -41.5c69.333 0 140.333 33.667 213 101zM782 1283h-191l-321 321h271z" />
    <glyph glyph-name="aacute" unicode="&#xe1;" horiz-adv-x="1204" 
d="M723 118c-98.667 -95.333 -204.333 -143 -317 -143c-96 0 -174 29.333 -234 88s-90 134.667 -90 228c0 121.333 48.5 214.833 145.5 280.5s235.833 98.5 416.5 98.5h79v100c0 114 -65 171 -195 171c-115.333 0 -232 -32.667 -350 -98v204c134 50.667 266.667 76 398 76
c287.333 0 431 -114.333 431 -343v-486c0 -86 26.333 -129 79 -129c12 0 28.667 3.66699 50 11v-173c-62.667 -18.667 -118 -28 -166 -28c-121.333 0 -199.333 47.667 -234 143h-13zM723.001 277l-0.000976562 223.001h-70c-89.333 0 -159.5 -16 -210.5 -48
s-76.5 -76 -76.5 -132c0 -40.667 13.833 -74.834 41.5 -102.501s61.834 -41.5 102.501 -41.5c69.333 0 140.333 33.667 213 101zM398 1283l241 321h271l-321 -321h-191z" />
    <glyph glyph-name="acircumflex" unicode="&#xe2;" horiz-adv-x="1204" 
d="M723 118c-98.667 -95.333 -204.333 -143 -317 -143c-96 0 -174 29.333 -234 88s-90 134.667 -90 228c0 121.333 48.5 214.833 145.5 280.5s235.833 98.5 416.5 98.5h79v100c0 114 -65 171 -195 171c-115.333 0 -232 -32.667 -350 -98v204c134 50.667 266.667 76 398 76
c287.333 0 431 -114.333 431 -343v-486c0 -86 26.333 -129 79 -129c12 0 28.667 3.66699 50 11v-173c-62.667 -18.667 -118 -28 -166 -28c-121.333 0 -199.333 47.667 -234 143h-13zM723.001 277l-0.000976562 223.001h-70c-89.333 0 -159.5 -16 -210.5 -48
s-76.5 -76 -76.5 -132c0 -40.667 13.833 -74.834 41.5 -102.501s61.834 -41.5 102.501 -41.5c69.333 0 140.333 33.667 213 101zM218 1283l241 321h273l241 -321h-179l-198 197h-2l-197 -197h-179z" />
    <glyph glyph-name="atilde" unicode="&#xe3;" horiz-adv-x="1204" 
d="M723 118c-98.667 -95.333 -204.333 -143 -317 -143c-96 0 -174 29.333 -234 88s-90 134.667 -90 228c0 121.333 48.5 214.833 145.5 280.5s235.833 98.5 416.5 98.5h79v100c0 114 -65 171 -195 171c-115.333 0 -232 -32.667 -350 -98v204c134 50.667 266.667 76 398 76
c287.333 0 431 -114.333 431 -343v-486c0 -86 26.333 -129 79 -129c12 0 28.667 3.66699 50 11v-173c-62.667 -18.667 -118 -28 -166 -28c-121.333 0 -199.333 47.667 -234 143h-13zM723.001 277l-0.000976562 223.001h-70c-89.333 0 -159.5 -16 -210.5 -48
s-76.5 -76 -76.5 -132c0 -40.667 13.833 -74.834 41.5 -102.501s61.834 -41.5 102.501 -41.5c69.333 0 140.333 33.667 213 101zM365 1283h-147.999c0 214 67 321 201 321c43.333 0 85.666 -14.333 126.999 -43l38 -26l31 -22c42.667 -30 73 -45 91 -45
c44.667 0 67 45.333 67 136h148c0 -214 -67 -321 -201 -321c-43.333 0 -85.333 14.333 -126 43l-39 26l-31 22c-40.667 30 -71 45 -91 45c-44.667 0 -67 -45.333 -67 -136z" />
    <glyph glyph-name="adieresis" unicode="&#xe4;" horiz-adv-x="1204" 
d="M723 118c-98.667 -95.333 -204.333 -143 -317 -143c-96 0 -174 29.333 -234 88s-90 134.667 -90 228c0 121.333 48.5 214.833 145.5 280.5s235.833 98.5 416.5 98.5h79v100c0 114 -65 171 -195 171c-115.333 0 -232 -32.667 -350 -98v204c134 50.667 266.667 76 398 76
c287.333 0 431 -114.333 431 -343v-486c0 -86 26.333 -129 79 -129c12 0 28.667 3.66699 50 11v-173c-62.667 -18.667 -118 -28 -166 -28c-121.333 0 -199.333 47.667 -234 143h-13zM723.001 277l-0.000976562 223.001h-70c-89.333 0 -159.5 -16 -210.5 -48
s-76.5 -76 -76.5 -132c0 -40.667 13.833 -74.834 41.5 -102.501s61.834 -41.5 102.501 -41.5c69.333 0 140.333 33.667 213 101zM268 1283v222h222v-222h-222zM687 1283v222h222v-222h-222z" />
    <glyph glyph-name="aring" unicode="&#xe5;" horiz-adv-x="1204" 
d="M723 118c-98.667 -95.333 -204.333 -143 -317 -143c-96 0 -174 29.333 -234 88s-90 134.667 -90 228c0 121.333 48.5 214.833 145.5 280.5s235.833 98.5 416.5 98.5h79v100c0 114 -65 171 -195 171c-115.333 0 -232 -32.667 -350 -98v204c134 50.667 266.667 76 398 76
c287.333 0 431 -114.333 431 -343v-486c0 -86 26.333 -129 79 -129c12 0 28.667 3.66699 50 11v-173c-62.667 -18.667 -118 -28 -166 -28c-121.333 0 -199.333 47.667 -234 143h-13zM723.001 277l-0.000976562 223.001h-70c-89.333 0 -159.5 -16 -210.5 -48
s-76.5 -76 -76.5 -132c0 -40.667 13.833 -74.834 41.5 -102.501s61.834 -41.5 102.501 -41.5c69.333 0 140.333 33.667 213 101zM586 1283c-62 0 -114.833 22.167 -158.5 66.5s-65.5 97.833 -65.5 160.5s22 116.167 66 160.5s97.667 66.5 161 66.5
c62.667 0 116.167 -22 160.5 -66s66.5 -97.667 66.5 -161c0 -64 -22.167 -117.833 -66.5 -161.5s-98.833 -65.5 -163.5 -65.5zM587 1382c36.667 0 67.499 12.332 92.499 36.999s37.5 55.334 37.5 92.001c0 35.333 -12.5 65.333 -37.5 90s-55.167 37 -90.5 37
s-65.5 -12.333 -90.5 -37s-37.5 -55 -37.5 -91c0 -35.333 12.333 -65.5 37 -90.5s54.334 -37.5 89.001 -37.5z" />
    <glyph glyph-name="ae" unicode="&#xe6;" horiz-adv-x="1808" 
d="M801 192c-102 -144.667 -231.668 -217 -389.001 -217c-98.667 0 -178.334 29 -239.001 87s-91 134.333 -91 229c0 120.667 48.5 213.334 145.5 278.001s235.833 97 416.5 97h79v104c0 114 -65 171 -195 171c-115.333 0 -232 -32.667 -350 -98v204
c134 50.667 264.667 76 392 76c115.333 0 226.333 -40.333 333 -121c100.667 80.667 211 121 331 121c155.333 0 269.833 -51.333 343.5 -154s110.5 -262.334 110.5 -479.001h-681c20.667 -209.333 136 -314 346 -314c98.667 0 210.334 23 335.001 69v-208
c-140 -41.333 -279.667 -62 -419 -62c-110 0 -200.167 16.333 -270.5 49s-136.166 88.667 -197.499 168zM722.999 277l-0.000976562 223h-70c-88 0 -157.833 -16.167 -209.5 -48.5s-77.5 -76.166 -77.5 -131.499c0 -40.667 13.833 -74.834 41.5 -102.501
s61.834 -41.5 102.501 -41.5c68.667 0 139.667 33.667 213 101zM1004 657h393c0 189.333 -60 284 -180 284c-123.333 0 -194.333 -94.667 -213 -284z" />
    <glyph glyph-name="ccedilla" unicode="&#xe7;" horiz-adv-x="1090" 
d="M995 24c-122.667 -32.667 -236.333 -49 -341 -49c-175.333 0 -313.833 51.5 -415.5 154.5s-152.5 243.167 -152.5 420.5c0 179.333 52.333 319.666 157 420.999s249.334 152 434.001 152c89.333 0 192.333 -14.333 309 -43v-214c-121.333 39.333 -218.333 59 -291 59
c-88.667 0 -160 -34 -214 -102s-81 -158.333 -81 -271c0 -115.333 29.167 -207.666 87.5 -276.999s136.166 -104 233.499 -104c88.667 0 180 19.333 274 58v-205zM552.001 0h136.001l-76 -113c154.667 -16.667 232 -68.667 232 -156c0 -46 -24 -84.667 -72 -116
s-107 -47 -177 -47c-54.667 0 -117.334 9.66699 -188.001 29v92c46.667 -10 85.667 -15 117 -15c81.333 0 122 20 122 60c0 56 -65 84 -195 84h-20z" />
    <glyph glyph-name="egrave" unicode="&#xe8;" horiz-adv-x="1200" 
d="M1079 37c-140.667 -41.333 -274 -62.001 -400 -62.001c-183.333 0 -328 52 -434 156s-159 246 -159 426c0 170 48.5 306.833 145.5 410.5s225.167 155.5 384.5 155.5c160.667 0 278 -50.667 352 -152s111 -261.666 111 -480.999h-681c20 -209.333 135 -314 345 -314
c99.333 0 211.333 23 336 69v-208zM394 656.999h394c0 187.333 -60.333 281 -181 281c-122.667 0 -193.667 -93.667 -213 -281zM802 1283h-191l-321 321h271z" />
    <glyph glyph-name="eacute" unicode="&#xe9;" horiz-adv-x="1200" 
d="M1079 37c-140.667 -41.333 -274 -62.001 -400 -62.001c-183.333 0 -328 52 -434 156s-159 246 -159 426c0 170 48.5 306.833 145.5 410.5s225.167 155.5 384.5 155.5c160.667 0 278 -50.667 352 -152s111 -261.666 111 -480.999h-681c20 -209.333 135 -314 345 -314
c99.333 0 211.333 23 336 69v-208zM394 656.999h394c0 187.333 -60.333 281 -181 281c-122.667 0 -193.667 -93.667 -213 -281zM421 1283l241 321h271l-321 -321h-191z" />
    <glyph glyph-name="ecircumflex" unicode="&#xea;" horiz-adv-x="1200" 
d="M1079 37c-140.667 -41.333 -274 -62.001 -400 -62.001c-183.333 0 -328 52 -434 156s-159 246 -159 426c0 170 48.5 306.833 145.5 410.5s225.167 155.5 384.5 155.5c160.667 0 278 -50.667 352 -152s111 -261.666 111 -480.999h-681c20 -209.333 135 -314 345 -314
c99.333 0 211.333 23 336 69v-208zM394 656.999h394c0 187.333 -60.333 281 -181 281c-122.667 0 -193.667 -93.667 -213 -281zM234 1283l241 321h273l241 -321h-179l-198 197h-2l-197 -197h-179z" />
    <glyph glyph-name="edieresis" unicode="&#xeb;" horiz-adv-x="1200" 
d="M1079 37c-140.667 -41.333 -274 -62.001 -400 -62.001c-183.333 0 -328 52 -434 156s-159 246 -159 426c0 170 48.5 306.833 145.5 410.5s225.167 155.5 384.5 155.5c160.667 0 278 -50.667 352 -152s111 -261.666 111 -480.999h-681c20 -209.333 135 -314 345 -314
c99.333 0 211.333 23 336 69v-208zM394 656.999h394c0 187.333 -60.333 281 -181 281c-122.667 0 -193.667 -93.667 -213 -281zM291 1283v222h222v-222h-222zM710 1283v222h222v-222h-222z" />
    <glyph glyph-name="igrave" unicode="&#xec;" horiz-adv-x="666" 
d="M185 0v1098h296v-1098h-296zM526 1283h-191l-321 321h271z" />
    <glyph glyph-name="iacute" unicode="&#xed;" horiz-adv-x="666" 
d="M185 0v1098h296v-1098h-296zM142 1283l241 321h271l-321 -321h-191z" />
    <glyph glyph-name="icircumflex" unicode="&#xee;" horiz-adv-x="666" 
d="M185 0v1098h296v-1098h-296zM-42 1283l241 321h273l241 -321h-179l-198 197h-2l-197 -197h-179z" />
    <glyph glyph-name="idieresis" unicode="&#xef;" horiz-adv-x="666" 
d="M185 0v1098h296v-1098h-296zM12 1283v222h222v-222h-222zM431 1283v222h222v-222h-222z" />
    <glyph glyph-name="eth" unicode="&#xf0;" horiz-adv-x="1310" 
d="M297 1066l-109.001 130.003l190 158c-90 26 -174 39 -252 39l-33 1v185c165.333 0 320 -25 464 -75l220 188l111 -133l-161 -138c150.667 -82.667 269.334 -197.834 356.001 -345.501s130 -308.5 130 -482.5c0 -184.667 -51.833 -333.834 -155.5 -447.501
s-239.167 -170.5 -406.5 -170.5c-166 0 -300 50.833 -402 152.5s-153 234.5 -153 398.5c0 158 49.167 288.667 147.5 392s222.833 155 373.5 155c39.333 0 86 -6 140 -18c-44.667 85.333 -114.667 156.666 -210 213.999zM657.999 160.003
c79.333 0 142.167 34.833 188.5 104.5s69.5 163.5 69.5 281.5c0 228.667 -84 343 -252 343c-78 0 -140 -33 -186 -99s-69 -155 -69 -267c0 -110 22.5 -198 67.5 -264s105.5 -99 181.5 -99z" />
    <glyph glyph-name="ntilde" unicode="&#xf1;" horiz-adv-x="1345" 
d="M185 0l-0.000976562 1098h296v-207c96.667 154.667 221.334 232 374.001 232c98 0 175.333 -31 232 -93s85 -146.667 85 -254v-776h-296v703c0 124.667 -41.333 187 -124 187c-94 0 -184.333 -66.333 -271 -199v-691h-296zM467.999 1283h-147.999c0 214 67 321 201 321
c43.333 0 85.666 -14.333 126.999 -43l38 -26l31 -22c42.667 -30 73 -45 91 -45c44.667 0 67 45.333 67 136h148c0 -214 -67 -321 -201 -321c-43.333 0 -85.333 14.333 -126 43l-39 26l-31 22c-40.667 30 -71 45 -91 45c-44.667 0 -67 -45.333 -67 -136z" />
    <glyph glyph-name="ograve" unicode="&#xf2;" horiz-adv-x="1308" 
d="M646 -25c-171.333 0 -307.501 51.833 -408.501 155.5s-151.5 243.167 -151.5 418.5c0 177.333 50.833 317.333 152.5 420s239.834 154 414.501 154c175.333 0 313.833 -51.333 415.5 -154s152.5 -242 152.5 -418c0 -180 -51 -321 -153 -423s-242.667 -153 -422 -153z
M650.999 160c80 0 142.5 34.501 187.5 103.501s67.5 164.833 67.5 287.5c0 119.333 -22.5 213.666 -67.5 282.999s-106.833 104 -185.5 104c-78 0 -139.5 -34.667 -184.5 -104s-67.5 -164.333 -67.5 -285c0 -119.333 22.333 -214 67 -284s105.667 -105 183 -105z
M844.999 1283h-191l-321 321h271z" />
    <glyph glyph-name="oacute" unicode="&#xf3;" horiz-adv-x="1308" 
d="M646 -25c-171.333 0 -307.501 51.833 -408.501 155.5s-151.5 243.167 -151.5 418.5c0 177.333 50.833 317.333 152.5 420s239.834 154 414.501 154c175.333 0 313.833 -51.333 415.5 -154s152.5 -242 152.5 -418c0 -180 -51 -321 -153 -423s-242.667 -153 -422 -153z
M650.999 160c80 0 142.5 34.501 187.5 103.501s67.5 164.833 67.5 287.5c0 119.333 -22.5 213.666 -67.5 282.999s-106.833 104 -185.5 104c-78 0 -139.5 -34.667 -184.5 -104s-67.5 -164.333 -67.5 -285c0 -119.333 22.333 -214 67 -284s105.667 -105 183 -105z
M462.999 1283l241 321h271l-321 -321h-191z" />
    <glyph glyph-name="ocircumflex" unicode="&#xf4;" horiz-adv-x="1308" 
d="M646 -25c-171.333 0 -307.501 51.833 -408.501 155.5s-151.5 243.167 -151.5 418.5c0 177.333 50.833 317.333 152.5 420s239.834 154 414.501 154c175.333 0 313.833 -51.333 415.5 -154s152.5 -242 152.5 -418c0 -180 -51 -321 -153 -423s-242.667 -153 -422 -153z
M650.999 160c80 0 142.5 34.501 187.5 103.501s67.5 164.833 67.5 287.5c0 119.333 -22.5 213.666 -67.5 282.999s-106.833 104 -185.5 104c-78 0 -139.5 -34.667 -184.5 -104s-67.5 -164.333 -67.5 -285c0 -119.333 22.333 -214 67 -284s105.667 -105 183 -105z
M275.999 1283l241 321h273l241 -321h-179l-198 197h-2l-197 -197h-179z" />
    <glyph glyph-name="otilde" unicode="&#xf5;" horiz-adv-x="1308" 
d="M646 -25c-171.333 0 -307.501 51.833 -408.501 155.5s-151.5 243.167 -151.5 418.5c0 177.333 50.833 317.333 152.5 420s239.834 154 414.501 154c175.333 0 313.833 -51.333 415.5 -154s152.5 -242 152.5 -418c0 -180 -51 -321 -153 -423s-242.667 -153 -422 -153z
M650.999 160c80 0 142.5 34.501 187.5 103.501s67.5 164.833 67.5 287.5c0 119.333 -22.5 213.666 -67.5 282.999s-106.833 104 -185.5 104c-78 0 -139.5 -34.667 -184.5 -104s-67.5 -164.333 -67.5 -285c0 -119.333 22.333 -214 67 -284s105.667 -105 183 -105z
M449.999 1283h-147.999c0 214 67 321 201 321c43.333 0 85.666 -14.333 126.999 -43l38 -26l31 -22c42.667 -30 73 -45 91 -45c44.667 0 67 45.333 67 136h148c0 -214 -67 -321 -201 -321c-43.333 0 -85.333 14.333 -126 43l-39 26l-31 22c-40.667 30 -71 45 -91 45
c-44.667 0 -67 -45.333 -67 -136z" />
    <glyph glyph-name="odieresis" unicode="&#xf6;" horiz-adv-x="1308" 
d="M646 -25c-171.333 0 -307.501 51.833 -408.501 155.5s-151.5 243.167 -151.5 418.5c0 177.333 50.833 317.333 152.5 420s239.834 154 414.501 154c175.333 0 313.833 -51.333 415.5 -154s152.5 -242 152.5 -418c0 -180 -51 -321 -153 -423s-242.667 -153 -422 -153z
M650.999 160c80 0 142.5 34.501 187.5 103.501s67.5 164.833 67.5 287.5c0 119.333 -22.5 213.666 -67.5 282.999s-106.833 104 -185.5 104c-78 0 -139.5 -34.667 -184.5 -104s-67.5 -164.333 -67.5 -285c0 -119.333 22.333 -214 67 -284s105.667 -105 183 -105z
M332.999 1283v222h222v-222h-222zM751.999 1283v222h222v-222h-222z" />
    <glyph glyph-name="divide" unicode="&#xf7;" horiz-adv-x="1629" 
d="M222 506v173h1184v-173h-1184zM691 938v246h247v-246h-247zM691 0v247h247v-247h-247z" />
    <glyph glyph-name="oslash" unicode="&#xf8;" horiz-adv-x="1308" 
d="M332 56l-67.001 -81h-177l139 167c-92.667 109.333 -139 245.333 -139 408c0 176.667 50.833 316.334 152.5 419.001s239.834 154 414.501 154c121.333 0 229.333 -26.667 324 -80l67 80h177l-139 -167c92.667 -108 139 -244 139 -408
c0 -176.667 -50.833 -316.334 -152.5 -419.001s-239.5 -154 -413.5 -154c-124 0 -232.333 27 -325 81zM485.999 240c44 -53.333 100.667 -80 170 -80c78 0 139.5 34.667 184.5 104s67.5 164 67.5 284c0 57.333 -7 115 -21 173zM823.999 857c-42.667 54 -99 81 -169 81
c-78 0 -139.5 -34.667 -184.5 -104s-67.5 -164 -67.5 -284c0 -58 7 -115.667 21 -173z" />
    <glyph glyph-name="ugrave" unicode="&#xf9;" horiz-adv-x="1345" 
d="M864 0v207c-96 -154.667 -220.667 -232 -374 -232c-98 0 -175.333 31 -232 93s-85 146.667 -85 254v776h296v-703c0 -124.667 41.667 -187 125 -187c93.333 0 183.333 66.333 270 199v691h296v-1098h-296zM860 1283h-191l-321 321h271z" />
    <glyph glyph-name="uacute" unicode="&#xfa;" horiz-adv-x="1345" 
d="M864 0v207c-96 -154.667 -220.667 -232 -374 -232c-98 0 -175.333 31 -232 93s-85 146.667 -85 254v776h296v-703c0 -124.667 41.667 -187 125 -187c93.333 0 183.333 66.333 270 199v691h296v-1098h-296zM475 1283l241 321h271l-321 -321h-191z" />
    <glyph glyph-name="ucircumflex" unicode="&#xfb;" horiz-adv-x="1345" 
d="M864 0v207c-96 -154.667 -220.667 -232 -374 -232c-98 0 -175.333 31 -232 93s-85 146.667 -85 254v776h296v-703c0 -124.667 41.667 -187 125 -187c93.333 0 183.333 66.333 270 199v691h296v-1098h-296zM288 1283l241 321h273l241 -321h-179l-198 197h-2l-197 -197
h-179z" />
    <glyph glyph-name="udieresis" unicode="&#xfc;" horiz-adv-x="1345" 
d="M864 0v207c-96 -154.667 -220.667 -232 -374 -232c-98 0 -175.333 31 -232 93s-85 146.667 -85 254v776h296v-703c0 -124.667 41.667 -187 125 -187c93.333 0 183.333 66.333 270 199v691h296v-1098h-296zM345 1283v222h222v-222h-222zM764 1283v222h222v-222h-222z" />
    <glyph glyph-name="yacute" unicode="&#xfd;" horiz-adv-x="1194" 
d="M189 -395l249 395l-407 1098h318l272 -734l323 734h225l-678 -1493h-302zM431 1283l241 321h271l-321 -321h-191z" />
    <glyph glyph-name="thorn" unicode="&#xfe;" horiz-adv-x="1357" 
d="M185 -395l-0.00195312 1974h296v-688c76 154.667 195.667 232 359 232c132 0 235.833 -48.333 311.5 -145s113.5 -229.667 113.5 -399c0 -184 -42.667 -330.667 -128 -440s-199.666 -164 -342.999 -164c-115.333 0 -219.666 45.333 -312.999 136v-506h-296zM480.998 287
c72 -80 148.667 -119.999 230 -119.999c72.667 0 130.667 35.167 174 105.5s65 164.166 65 281.499c0 224.667 -72.333 337 -217 337c-87.333 0 -171.333 -56.333 -252 -169v-435z" />
    <glyph glyph-name="ydieresis" unicode="&#xff;" horiz-adv-x="1194" 
d="M189 -395l249 395l-407 1098h318l272 -734l323 734h225l-678 -1493h-302zM301 1283v222h222v-222h-222zM720 1283v222h222v-222h-222z" />
    <glyph glyph-name="Amacron" unicode="&#x100;" horiz-adv-x="1508" 
d="M23 0l576 1480h308l576 -1480h-316l-154 395h-612l-154 -395h-224zM477 592h460l-230 590zM382 1605v173h740v-173h-740z" />
    <glyph glyph-name="amacron" unicode="&#x101;" horiz-adv-x="1204" 
d="M723 118c-98.667 -95.333 -204.333 -143 -317 -143c-96 0 -174 29.333 -234 88s-90 134.667 -90 228c0 121.333 48.5 214.833 145.5 280.5s235.833 98.5 416.5 98.5h79v100c0 114 -65 171 -195 171c-115.333 0 -232 -32.667 -350 -98v204c134 50.667 266.667 76 398 76
c287.333 0 431 -114.333 431 -343v-486c0 -86 26.333 -129 79 -129c12 0 28.667 3.66699 50 11v-173c-62.667 -18.667 -118 -28 -166 -28c-121.333 0 -199.333 47.667 -234 143h-13zM723.001 277l-0.000976562 223.001h-70c-89.333 0 -159.5 -16 -210.5 -48
s-76.5 -76 -76.5 -132c0 -40.667 13.833 -74.834 41.5 -102.501s61.834 -41.5 102.501 -41.5c69.333 0 140.333 33.667 213 101zM219 1283v173h740v-173h-740z" />
    <glyph glyph-name="Abreve" unicode="&#x102;" horiz-adv-x="1508" 
d="M23 0l576 1480h308l576 -1480h-316l-154 395h-612l-154 -395h-224zM477 592h460l-230 590zM398 1926l148.002 -0.000976562c28 -94.667 96.667 -142 206 -142s177.666 47.333 204.999 142h148c-11.333 -98 -48.833 -176 -112.5 -234s-143.834 -87 -240.501 -87
s-177 28.833 -241 86.5s-101.667 135.834 -113 234.501z" />
    <glyph glyph-name="abreve" unicode="&#x103;" horiz-adv-x="1204" 
d="M723 118c-98.667 -95.333 -204.333 -143 -317 -143c-96 0 -174 29.333 -234 88s-90 134.667 -90 228c0 121.333 48.5 214.833 145.5 280.5s235.833 98.5 416.5 98.5h79v100c0 114 -65 171 -195 171c-115.333 0 -232 -32.667 -350 -98v204c134 50.667 266.667 76 398 76
c287.333 0 431 -114.333 431 -343v-486c0 -86 26.333 -129 79 -129c12 0 28.667 3.66699 50 11v-173c-62.667 -18.667 -118 -28 -166 -28c-121.333 0 -199.333 47.667 -234 143h-13zM723.001 277l-0.000976562 223.001h-70c-89.333 0 -159.5 -16 -210.5 -48
s-76.5 -76 -76.5 -132c0 -40.667 13.833 -74.834 41.5 -102.501s61.834 -41.5 102.501 -41.5c69.333 0 140.333 33.667 213 101zM235 1604l148.002 -0.000976562c28 -94.667 96.667 -142 206 -142s177.666 47.333 204.999 142h148c-11.333 -98 -48.833 -176 -112.5 -234
s-143.834 -87 -240.501 -87s-177 28.833 -241 86.5s-101.667 135.834 -113 234.501z" />
    <glyph glyph-name="Aogonek" unicode="&#x104;" horiz-adv-x="1508" 
d="M23 0l576 1480h308l576 -1480h-316l-154 395h-612l-154 -395h-224zM477 592h460l-230 590zM1167 0l157.999 0.000976562c-124 -57.333 -186 -117.333 -186 -180c0 -63.333 54 -95 162 -95c56.667 0 101.667 5 135 15v-81c-57.333 -19.333 -123.666 -29 -198.999 -29
c-88.667 0 -160 14.667 -214 44s-81 67.666 -81 114.999c0 78.667 75 149 225 211z" />
    <glyph glyph-name="aogonek" unicode="&#x105;" horiz-adv-x="1204" 
d="M723 118c-98.667 -95.333 -204.333 -143 -317 -143c-96 0 -174 29.333 -234 88s-90 134.667 -90 228c0 121.333 48.5 214.833 145.5 280.5s235.833 98.5 416.5 98.5h79v100c0 114 -65 171 -195 171c-115.333 0 -232 -32.667 -350 -98v204c134 50.667 266.667 76 398 76
c287.333 0 431 -114.333 431 -343v-486c0 -86 26.333 -129 79 -129c12 0 28.667 3.66699 50 11v-173c-62.667 -18.667 -118 -28 -166 -28c-121.333 0 -199.333 47.667 -234 143h-13zM723.001 277l-0.000976562 223.001h-70c-89.333 0 -159.5 -16 -210.5 -48
s-76.5 -76 -76.5 -132c0 -40.667 13.833 -74.834 41.5 -102.501s61.834 -41.5 102.501 -41.5c69.333 0 140.333 33.667 213 101zM835 0.000976562l157.999 0.000976562c-124 -57.333 -186 -117.333 -186 -180c0 -63.333 54 -95 162 -95c56.667 0 101.667 5 135 15v-81
c-57.333 -19.333 -123.666 -29 -198.999 -29c-88.667 0 -160 14.667 -214 44s-81 67.666 -81 114.999c0 78.667 75 149 225 211z" />
    <glyph glyph-name="Cacute" unicode="&#x106;" horiz-adv-x="1459" 
d="M1376 59c-143.333 -64 -314.332 -96 -512.999 -96c-242.667 0 -431.667 68.333 -567 205s-203 327.334 -203 572.001c0 249.333 68.167 441.166 204.5 575.499s330.833 201.5 583.5 201.5c161.333 0 321.666 -19 480.999 -57v-241c-180.667 63.333 -332 95 -454 95
c-156 0 -276.333 -49.5 -361 -148.5s-127 -239.5 -127 -421.5c0 -178.667 45.5 -318 136.5 -418s217.5 -150 379.5 -150c145.333 0 292 36.667 440 110v-227zM692.001 1605l241 321h271l-321 -321h-191z" />
    <glyph glyph-name="cacute" unicode="&#x107;" horiz-adv-x="1090" 
d="M995 24c-122.667 -32.667 -236.333 -49 -341 -49c-175.333 0 -313.833 51.5 -415.5 154.5s-152.5 243.167 -152.5 420.5c0 179.333 52.333 319.666 157 420.999s249.334 152 434.001 152c89.333 0 192.333 -14.333 309 -43v-214c-121.333 39.333 -218.333 59 -291 59
c-88.667 0 -160 -34 -214 -102s-81 -158.333 -81 -271c0 -115.333 29.167 -207.666 87.5 -276.999s136.166 -104 233.499 -104c88.667 0 180 19.333 274 58v-205zM469.001 1283l241 321h271l-321 -321h-191z" />
    <glyph glyph-name="Ccaron" unicode="&#x10c;" horiz-adv-x="1459" 
d="M1376 59c-143.333 -64 -314.332 -96 -512.999 -96c-242.667 0 -431.667 68.333 -567 205s-203 327.334 -203 572.001c0 249.333 68.167 441.166 204.5 575.499s330.833 201.5 583.5 201.5c161.333 0 321.666 -19 480.999 -57v-241c-180.667 63.333 -332 95 -454 95
c-156 0 -276.333 -49.5 -361 -148.5s-127 -239.5 -127 -421.5c0 -178.667 45.5 -318 136.5 -418s217.5 -150 379.5 -150c145.333 0 292 36.667 440 110v-227zM1260 1926l-241 -321h-273l-241 321h179l197 -198h2l198 198h179z" />
    <glyph glyph-name="ccaron" unicode="&#x10d;" horiz-adv-x="1090" 
d="M995 24c-122.667 -32.667 -236.333 -49 -341 -49c-175.333 0 -313.833 51.5 -415.5 154.5s-152.5 243.167 -152.5 420.5c0 179.333 52.333 319.666 157 420.999s249.334 152 434.001 152c89.333 0 192.333 -14.333 309 -43v-214c-121.333 39.333 -218.333 59 -291 59
c-88.667 0 -160 -34 -214 -102s-81 -158.333 -81 -271c0 -115.333 29.167 -207.666 87.5 -276.999s136.166 -104 233.499 -104c88.667 0 180 19.333 274 58v-205zM1039 1604l-241 -321h-273l-241 321h179l197 -198h2l198 198h179z" />
    <glyph glyph-name="Dcaron" unicode="&#x10e;" horiz-adv-x="1624" 
d="M185 0v1480h637c229.333 0 405 -60.833 527 -182.5s183 -297.167 183 -526.5c0 -244 -64.667 -433.5 -194 -568.5s-310.333 -202.5 -543 -202.5h-610zM493 210l230 -0.000976562c178.667 0 303.667 50.333 375 151c71.333 100 107 230.667 107 392
c0 141.333 -32 259 -96 353c-44 64.667 -97 109.334 -159 134.001s-152.333 37 -271 37h-186v-1067zM1187 1926l-241 -321h-273l-241 321h179l197 -198h2l198 198h179z" />
    <glyph glyph-name="dcaron" unicode="&#x10f;" horiz-adv-x="1653" 
d="M876 0v207c-76 -154.667 -195.667 -232 -359 -232c-132 0 -235.667 48.333 -311 145s-113 229.667 -113 399c0 184 42.5 330.667 127.5 440s199.167 164 342.5 164c114.667 0 219 -45.333 313 -136v592h297v-1579h-297zM876 811c-71.333 80 -147.667 120 -229 120
c-72.667 0 -130.667 -35 -174 -105s-65 -164 -65 -282c0 -224.667 72 -337 216 -337c88 0 172 56.333 252 169v435zM1458 1283h-114v296h296v-229c0 -242 -98.667 -363 -296 -363v102c76 0 114 55 114 165v29z" />
    <glyph glyph-name="Dcroat" unicode="&#x110;" horiz-adv-x="1624" 
d="M185 0v645h-185v197h185v638h637c229.333 0 405 -60.833 527 -182.5s183 -297.167 183 -526.5c0 -244 -64.667 -433.5 -194 -568.5s-310.333 -202.5 -543 -202.5h-610zM493 210l230 -0.000976562c178.667 0 303.667 50.333 375 151c71.333 100 107 230.667 107 392
c0 141.333 -32 259 -96 353c-44 64.667 -97 109.334 -159 134.001s-152.333 37 -271 37h-186v-435h210v-197h-210v-435z" />
    <glyph glyph-name="dcroat" unicode="&#x111;" horiz-adv-x="1357" 
d="M1173 0h-297v207c-76 -154.667 -195.667 -232 -359 -232c-130 0 -233.167 48 -309.5 144s-114.5 226 -114.5 390c0 177.333 43 319.833 129 427.5s199.667 161.5 341 161.5c114.667 0 219 -45.333 313 -136v272h-259v172h259v173h297v-173h185v-172h-185v-1234zM876 786
c-71.333 80.667 -147.667 121 -229 121c-71.333 0 -129 -34 -173 -102s-66 -156.667 -66 -266c0 -221.333 72 -332 216 -332c88 0 172 56.333 252 169v410z" />
    <glyph glyph-name="Emacron" unicode="&#x112;" horiz-adv-x="1230" 
d="M185 0v1480h925v-203h-617v-413h506v-204h-506v-450h664v-210h-972zM273 1605v173h740v-173h-740z" />
    <glyph glyph-name="emacron" unicode="&#x113;" horiz-adv-x="1200" 
d="M1079 37c-140.667 -41.333 -274 -62.001 -400 -62.001c-183.333 0 -328 52 -434 156s-159 246 -159 426c0 170 48.5 306.833 145.5 410.5s225.167 155.5 384.5 155.5c160.667 0 278 -50.667 352 -152s111 -261.666 111 -480.999h-681c20 -209.333 135 -314 345 -314
c99.333 0 211.333 23 336 69v-208zM394 656.999h394c0 187.333 -60.333 281 -181 281c-122.667 0 -193.667 -93.667 -213 -281zM242 1283v173h740v-173h-740z" />
    <glyph glyph-name="Edotaccent" unicode="&#x116;" horiz-adv-x="1230" 
d="M185 0v1480h925v-203h-617v-413h506v-204h-506v-450h664v-210h-972zM495 1605v296h296v-296h-296z" />
    <glyph glyph-name="edotaccent" unicode="&#x117;" horiz-adv-x="1200" 
d="M1079 37c-140.667 -41.333 -274 -62.001 -400 -62.001c-183.333 0 -328 52 -434 156s-159 246 -159 426c0 170 48.5 306.833 145.5 410.5s225.167 155.5 384.5 155.5c160.667 0 278 -50.667 352 -152s111 -261.666 111 -480.999h-681c20 -209.333 135 -314 345 -314
c99.333 0 211.333 23 336 69v-208zM394 656.999h394c0 187.333 -60.333 281 -181 281c-122.667 0 -193.667 -93.667 -213 -281zM464 1283v296h296v-296h-296z" />
    <glyph glyph-name="Eogonek" unicode="&#x118;" horiz-adv-x="1230" 
d="M185 0v1480h925v-203h-617v-413h506v-204h-506v-450h664v-210h-972zM864 0l157.999 0.000976562c-124 -57.333 -186 -117.333 -186 -180c0 -63.333 54 -95 162 -95c56.667 0 101.667 5 135 15v-81c-57.333 -19.333 -123.666 -29 -198.999 -29
c-88.667 0 -160 14.667 -214 44s-81 67.666 -81 114.999c0 78.667 75 149 225 211z" />
    <glyph glyph-name="eogonek" unicode="&#x119;" horiz-adv-x="1200" 
d="M1079 37c-140.667 -41.333 -274 -62.001 -400 -62.001c-183.333 0 -328 52 -434 156s-159 246 -159 426c0 170 48.5 306.833 145.5 410.5s225.167 155.5 384.5 155.5c160.667 0 278 -50.667 352 -152s111 -261.666 111 -480.999h-681c20 -209.333 135 -314 345 -314
c99.333 0 211.333 23 336 69v-208zM394 656.999h394c0 187.333 -60.333 281 -181 281c-122.667 0 -193.667 -93.667 -213 -281zM633 -0.000976562l157.999 0.000976562c-124 -57.333 -186 -117.333 -186 -180c0 -63.333 54 -95 162 -95c56.667 0 101.667 5 135 15v-81
c-57.333 -19.333 -123.666 -29 -198.999 -29c-88.667 0 -160 14.667 -214 44s-81 67.666 -81 114.999c0 78.667 75 149 225 211z" />
    <glyph glyph-name="Ecaron" unicode="&#x11a;" horiz-adv-x="1230" 
d="M185 0v1480h925v-203h-617v-413h506v-204h-506v-450h664v-210h-972zM1009 1926l-241 -321h-273l-241 321h179l197 -198h2l198 198h179z" />
    <glyph glyph-name="ecaron" unicode="&#x11b;" horiz-adv-x="1200" 
d="M1079 37c-140.667 -41.333 -274 -62.001 -400 -62.001c-183.333 0 -328 52 -434 156s-159 246 -159 426c0 170 48.5 306.833 145.5 410.5s225.167 155.5 384.5 155.5c160.667 0 278 -50.667 352 -152s111 -261.666 111 -480.999h-681c20 -209.333 135 -314 345 -314
c99.333 0 211.333 23 336 69v-208zM394 656.999h394c0 187.333 -60.333 281 -181 281c-122.667 0 -193.667 -93.667 -213 -281zM989 1604l-241 -321h-273l-241 321h179l197 -198h2l198 198h179z" />
    <glyph glyph-name="Gbreve" unicode="&#x11e;" horiz-adv-x="1527" 
d="M1367 35c-185.333 -48 -345.331 -72 -479.998 -72c-255.333 0 -451.5 67.167 -588.5 201.5s-205.5 326.833 -205.5 577.5c0 248.667 68.5 440 205.5 574s332.167 201 585.5 201c162 0 322.667 -19 482 -57v-241c-184.667 63.333 -336.334 95 -455.001 95
c-156.667 0 -277.667 -50 -363 -150s-128 -241.667 -128 -425c0 -177.333 45.667 -316.5 137 -417.5s217.333 -151.5 378 -151.5c35.333 0 76.666 5 123.999 15v487h308v-637zM533.002 1926l148.002 -0.000976562c28 -94.667 96.667 -142 206 -142
s177.666 47.333 204.999 142h148c-11.333 -98 -48.833 -176 -112.5 -234s-143.834 -87 -240.501 -87s-177 28.833 -241 86.5s-101.667 135.834 -113 234.501z" />
    <glyph glyph-name="gbreve" unicode="&#x11f;" horiz-adv-x="1351" 
d="M193 -341l24.001 214.998c122 -56 238.333 -84 349 -84c109.333 0 188.333 23.333 237 70s73 122.334 73 227.001v150c-72 -158 -191 -237 -357 -237c-130.667 0 -234.334 48.833 -311.001 146.5s-115 229.834 -115 396.501c0 175.333 43 315.833 129 421.5
s200.333 158.5 343 158.5c112 0 215.667 -45.333 311 -136l31 111h266v-838c0 -167.333 -10.167 -288 -30.5 -362s-59.833 -137 -118.5 -189c-98.667 -85.333 -237.667 -128 -417 -128c-127.333 0 -265.333 26 -414 78zM876.001 408.998v405
c-71.333 80.667 -146 121 -224 121c-74.667 0 -134 -34 -178 -102s-66 -159.333 -66 -274c0 -214.667 69 -322 207 -322c95.333 0 182.333 57.333 261 172zM268.001 1604l148.002 -0.000976562c28 -94.667 96.667 -142 206 -142s177.666 47.333 204.999 142h148
c-11.333 -98 -48.833 -176 -112.5 -234s-143.834 -87 -240.501 -87s-177 28.833 -241 86.5s-101.667 135.834 -113 234.501z" />
    <glyph glyph-name="Gcommaaccent" unicode="&#x122;" horiz-adv-x="1527" 
d="M1367 35c-185.333 -48 -345.331 -72 -479.998 -72c-255.333 0 -451.5 67.167 -588.5 201.5s-205.5 326.833 -205.5 577.5c0 248.667 68.5 440 205.5 574s332.167 201 585.5 201c162 0 322.667 -19 482 -57v-241c-184.667 63.333 -336.334 95 -455.001 95
c-156.667 0 -277.667 -50 -363 -150s-128 -241.667 -128 -425c0 -177.333 45.667 -316.5 137 -417.5s217.333 -151.5 378 -151.5c35.333 0 76.666 5 123.999 15v487h308v-637zM760.002 0h136.001l-76 -113c154.667 -16.667 232 -68.667 232 -156c0 -46 -24 -84.667 -72 -116
s-107 -47 -177 -47c-54.667 0 -117.334 9.66699 -188.001 29v92c46.667 -10 85.667 -15 117 -15c81.333 0 122 20 122 60c0 56 -65 84 -195 84h-20z" />
    <glyph glyph-name="gcommaaccent" unicode="&#x123;" horiz-adv-x="1351" 
d="M193 -341l24.001 214.998c122 -56 238.333 -84 349 -84c109.333 0 188.333 23.333 237 70s73 122.334 73 227.001v150c-72 -158 -191 -237 -357 -237c-130.667 0 -234.334 48.833 -311.001 146.5s-115 229.834 -115 396.501c0 175.333 43 315.833 129 421.5
s200.333 158.5 343 158.5c112 0 215.667 -45.333 311 -136l31 111h266v-838c0 -167.333 -10.167 -288 -30.5 -362s-59.833 -137 -118.5 -189c-98.667 -85.333 -237.667 -128 -417 -128c-127.333 0 -265.333 26 -414 78zM876.001 408.998v405
c-71.333 80.667 -146 121 -224 121c-74.667 0 -134 -34 -178 -102s-66 -159.333 -66 -274c0 -214.667 69 -322 207 -322c95.333 0 182.333 57.333 261 172zM463.001 1283l241 321h271l-321 -321h-191z" />
    <glyph glyph-name="Itilde" unicode="&#x128;" horiz-adv-x="678" 
d="M185 0v1480h308v-1480h-308zM138 1605h-147.999c0 214 67 321 201 321c43.333 0 85.666 -14.333 126.999 -43l38 -26l31 -22c42.667 -30 73 -45 91 -45c44.667 0 67 45.333 67 136h148c0 -214 -67 -321 -201 -321c-43.333 0 -85.333 14.333 -126 43l-39 26l-31 22
c-40.667 30 -71 45 -91 45c-44.667 0 -67 -45.333 -67 -136z" />
    <glyph glyph-name="itilde" unicode="&#x129;" horiz-adv-x="666" 
d="M185 0v1098h296v-1098h-296zM129 1283h-147.999c0 214 67 321 201 321c43.333 0 85.666 -14.333 126.999 -43l38 -26l31 -22c42.667 -30 73 -45 91 -45c44.667 0 67 45.333 67 136h148c0 -214 -67 -321 -201 -321c-43.333 0 -85.333 14.333 -126 43l-39 26l-31 22
c-40.667 30 -71 45 -91 45c-44.667 0 -67 -45.333 -67 -136z" />
    <glyph glyph-name="Imacron" unicode="&#x12a;" horiz-adv-x="678" 
d="M185 0v1480h308v-1480h-308zM-30 1605v173h740v-173h-740z" />
    <glyph glyph-name="imacron" unicode="&#x12b;" horiz-adv-x="666" 
d="M185 0v1098h296v-1098h-296zM-37 1283v173h740v-173h-740z" />
    <glyph glyph-name="Iogonek" unicode="&#x12e;" horiz-adv-x="678" 
d="M185 0v1480h308v-1480h-308zM336 0l157.999 0.000976562c-124 -57.333 -186 -117.333 -186 -180c0 -63.333 54 -95 162 -95c56.667 0 101.667 5 135 15v-81c-57.333 -19.333 -123.666 -29 -198.999 -29c-88.667 0 -160 14.667 -214 44s-81 67.666 -81 114.999
c0 78.667 75 149 225 211z" />
    <glyph glyph-name="iogonek" unicode="&#x12f;" horiz-adv-x="666" 
d="M185 0v1098h296v-1098h-296zM185 1283v247h296v-247h-296zM324 0l157.999 0.000976562c-124 -57.333 -186 -117.333 -186 -180c0 -63.333 54 -95 162 -95c56.667 0 101.667 5 135 15v-81c-57.333 -19.333 -123.666 -29 -198.999 -29c-88.667 0 -160 14.667 -214 44
s-81 67.666 -81 114.999c0 78.667 75 149 225 211z" />
    <glyph glyph-name="Idotaccent" unicode="&#x130;" horiz-adv-x="678" 
d="M185 0v1480h308v-1480h-308zM185 1605v296h296v-296h-296z" />
    <glyph glyph-name="dotlessi" unicode="&#x131;" horiz-adv-x="666" 
d="M185 0v1098h296v-1098h-296z" />
    <glyph glyph-name="IJ" unicode="&#x132;" horiz-adv-x="1431" 
d="M185 0v1480h308v-1480h-308zM507 -260l-2.00098 220c80 -31.333 162.333 -47 247 -47c70.667 0 119.334 19.667 146.001 59s40 110 40 212v1296h309v-1263c0 -182 -37 -313 -111 -393s-195 -120 -363 -120c-84 0 -172.667 12 -266 36z" />
    <glyph glyph-name="ij" unicode="&#x133;" horiz-adv-x="1342" 
d="M185 0v1098h296v-1098h-296zM185 1283v247h296v-247h-296zM480 -373l0.000976562 197.999c86 -39.333 159.667 -59 221 -59c57.333 0 98.166 17.833 122.499 53.5s36.5 95.834 36.5 180.501v1098h296v-1078c0 -153.333 -34.167 -265 -102.5 -335s-177.5 -105 -327.5 -105
c-66.667 0 -148.667 15.667 -246 47zM860.001 1283v247h296v-247h-296z" />
    <glyph glyph-name="Jcircumflex" unicode="&#x134;" horiz-adv-x="680" 
d="M185 0v1480h308v-1480h-308z" />
    <glyph glyph-name="jcircumflex" unicode="&#x135;" horiz-adv-x="666" 
d="M185 0v1098h296v-1098h-296zM185 1283v247h296v-247h-296z" />
    <glyph glyph-name="Kcommaaccent" unicode="&#x136;" horiz-adv-x="1454" 
d="M185 0v1480h296v-718l566 718h256l-513 -664l637 -816h-385l-561 728v-728h-296zM346 0h136.001l-76 -113c154.667 -16.667 232 -68.667 232 -156c0 -46 -24 -84.667 -72 -116s-107 -47 -177 -47c-54.667 0 -117.334 9.66699 -188.001 29v92
c46.667 -10 85.667 -15 117 -15c81.333 0 122 20 122 60c0 56 -65 84 -195 84h-20z" />
    <glyph glyph-name="kcommaaccent" unicode="&#x137;" horiz-adv-x="1296" 
d="M185 0v1579h296v-993h19l391 512h246l-361 -470l474 -628h-360l-390 549h-19v-549h-296zM346 0h136.001l-76 -113c154.667 -16.667 232 -68.667 232 -156c0 -46 -24 -84.667 -72 -116s-107 -47 -177 -47c-54.667 0 -117.334 9.66699 -188.001 29v92
c46.667 -10 85.667 -15 117 -15c81.333 0 122 20 122 60c0 56 -65 84 -195 84h-20z" />
    <glyph glyph-name="Lacute" unicode="&#x139;" horiz-adv-x="1190" 
d="M185 0v1480h308v-1270h667v-210h-975zM302 1605l241 321h271l-321 -321h-191z" />
    <glyph glyph-name="lacute" unicode="&#x13a;" horiz-adv-x="666" 
d="M185 0v1579h296v-1579h-296zM142 1678l241 321h271l-321 -321h-191z" />
    <glyph glyph-name="Lcommaaccent" unicode="&#x13b;" horiz-adv-x="1190" 
d="M185 0v1480h308v-1270h667v-210h-975zM579 0h136.001l-76 -113c154.667 -16.667 232 -68.667 232 -156c0 -46 -24 -84.667 -72 -116s-107 -47 -177 -47c-54.667 0 -117.334 9.66699 -188.001 29v92c46.667 -10 85.667 -15 117 -15c81.333 0 122 20 122 60
c0 56 -65 84 -195 84h-20z" />
    <glyph glyph-name="lcommaaccent" unicode="&#x13c;" horiz-adv-x="666" 
d="M185 0v1579h296v-1579h-296zM307 0h136.001l-76 -113c154.667 -16.667 232 -68.667 232 -156c0 -46 -24 -84.667 -72 -116s-107 -47 -177 -47c-54.667 0 -117.334 9.66699 -188.001 29v92c46.667 -10 85.667 -15 117 -15c81.333 0 122 20 122 60c0 56 -65 84 -195 84h-20
z" />
    <glyph glyph-name="Lcaron" unicode="&#x13d;" horiz-adv-x="1190" 
d="M185 0v1480h308v-1270h667v-210h-975zM903 1186h-114v296h296v-229c0 -242 -98.667 -363 -296 -363v102c76 0 114 55 114 165v29z" />
    <glyph glyph-name="lcaron" unicode="&#x13e;" horiz-adv-x="962" 
d="M185 0v1579h296v-1579h-296zM768 1283h-114v296h296v-229c0 -242 -98.667 -363 -296 -363v102c76 0 114 55 114 165v29z" />
    <glyph glyph-name="Ldot" unicode="&#x13f;" horiz-adv-x="1190" 
d="M185 0v1480h308v-1270h667v-210h-975zM787 698v296h296v-296h-296z" />
    <glyph glyph-name="ldot" unicode="&#x140;" horiz-adv-x="962" 
d="M185 0v1579h296v-1579h-296zM666 674v296h296v-296h-296z" />
    <glyph glyph-name="Lslash" unicode="&#x141;" horiz-adv-x="1203" 
d="M197 0v596l-197 -102v193l197 103v690h308v-524l247 133v-197l-247 -132v-550h667v-210h-975z" />
    <glyph glyph-name="lslash" unicode="&#x142;" horiz-adv-x="728" 
d="M222 0v632l-210 -112v198l210 113v748h296v-589l210 110v-194l-210 -112v-794h-296z" />
    <glyph glyph-name="Nacute" unicode="&#x143;" horiz-adv-x="1574" 
d="M185 0v1480h271l686 -1011v1011h247v-1480h-276l-681 1011v-1011h-247zM678 1605l241 321h271l-321 -321h-191z" />
    </font>
</defs>
</svg>
