<?xml version="1.0" encoding="utf-8"?>
<!-- Generator: Adobe Illustrator 19.0.1, SVG Export Plug-In . SVG Version: 6.00 Build 0)  -->
<svg version="1.1" id="Layer_1" xmlns="http://www.w3.org/2000/svg" xmlns:xlink="http://www.w3.org/1999/xlink" x="0px" y="0px"
	 viewBox="0 0 100 100" enable-background="new 0 0 100 100" xml:space="preserve">
<path fill-rule="evenodd" clip-rule="evenodd" d="M79.5,80.9c0,0-0.1,0-0.1,0H22.7c0,0-0.1,0-0.1,0c-10.7,0-19.3-8.7-19.3-19.3
	c0-8,4.8-14.8,11.7-17.8c0.9-7,6.8-12.3,14-12.3c2.2,0,4.3,0.5,6.2,1.5c4.5-7.8,12.9-13.1,22.5-13.1c14,0,25.4,11,25.9,24.9
	c8.2,1.8,14.3,9.1,14.3,17.9C97.8,72.7,89.6,80.9,79.5,80.9z"/>
</svg>
